<?xml version="1.0" encoding="utf-8"?>
<!-- Generator: Adobe Illustrator 24.0.2, SVG Export Plug-In . SVG Version: 6.00 Build 0)  -->
<svg version="1.1" id="Layer_2_1_" xmlns="http://www.w3.org/2000/svg" xmlns:xlink="http://www.w3.org/1999/xlink" x="0px" y="0px"
	 viewBox="0 0 16 16" style="enable-background:new 0 0 16 16;" xml:space="preserve">
<style type="text/css">
	.st0{fill:#0397D6;}
</style>
<path class="st0" d="M8,0.7c4,0,7.3,3.3,7.3,7.3S12,15.3,8,15.3S0.7,12,0.7,8S4,0.7,8,0.7z M4.8,7.5C4.6,7.5,4.3,7.7,4.3,8
	c0,0.3,0.2,0.5,0.5,0.5h5.3l-2,2c-0.2,0.2-0.2,0.5,0,0.6c0.2,0.2,0.5,0.2,0.6,0l2.7-2.7c0.2-0.2,0.2-0.5,0-0.6c0,0,0,0,0,0L8.8,4.9
	c-0.2-0.2-0.5-0.2-0.6,0S8,5.4,8.1,5.6l2,2H4.8z"/>
</svg>
