<?xml version="1.0" encoding="utf-8"?>
<!-- Generator: Adobe Illustrator 24.0.2, SVG Export Plug-In . SVG Version: 6.00 Build 0)  -->
<svg version="1.1" id="Layer_1" xmlns="http://www.w3.org/2000/svg" xmlns:xlink="http://www.w3.org/1999/xlink" x="0px" y="0px"
	 viewBox="0 0 16 16" style="enable-background:new 0 0 16 16;" xml:space="preserve">
<style type="text/css">
	.st0{fill-rule:evenodd;clip-rule:evenodd;fill:#FFFFFF;}
</style>
<path class="st0" d="M8.6,1.5C8.6,1.2,8.4,1,8.1,1H1.5C0.7,1,0,1.7,0,2.5v12C0,15.3,0.7,16,1.5,16l0,0h12c0.8,0,1.5-0.7,1.5-1.5l0,0
	V7.9c0-0.3-0.2-0.5-0.5-0.5S14,7.6,14,7.9v6.6c0,0.3-0.2,0.5-0.5,0.5h-12C1.2,15,1,14.8,1,14.5v-12C1,2.2,1.2,2,1.5,2h6.6
	C8.4,2,8.6,1.8,8.6,1.5z"/>
<path class="st0" d="M16,0.5C16,0.2,15.8,0,15.5,0h-4C11.2,0,11,0.2,11,0.5S11.2,1,11.5,1h2.8L6.1,9.1C6,9.3,6,9.7,6.1,9.9
	s0.5,0.2,0.7,0L15,1.7v2.8C15,4.8,15.2,5,15.5,5S16,4.8,16,4.5V0.5z"/>
</svg>
