<?xml version="1.0" encoding="utf-8"?>
<!-- Generator: Adobe Illustrator 24.0.2, SVG Export Plug-In . SVG Version: 6.00 Build 0)  -->
<svg version="1.1" id="Layer_1" xmlns="http://www.w3.org/2000/svg" xmlns:xlink="http://www.w3.org/1999/xlink" x="0px" y="0px"
	 viewBox="0 0 70 70" style="enable-background:new 0 0 70 70;" xml:space="preserve">
<style type="text/css">
	.st0{fill:none;}
	.st1{fill:#333333;}
</style>
<g>
	<path class="st0" d="M34.2,3.8c-3.6,0-7.5,7.3-9.1,18.7c3-0.3,6.1-0.5,9.1-0.5s6.1,0.2,9.1,0.5C41.7,11.1,37.8,3.8,34.2,3.8z"/>
	<path class="st1" d="M45.9,43.3c0.3-3,0.5-6.1,0.5-9.1c0-3.1-0.2-6.1-0.5-9.1c2.8,0.4,5.3,0.9,7.5,1.5c0.1-0.8,0.2-1.5,0.5-2.2
		c-2.5-0.7-5.3-1.3-8.3-1.7c-1.1-8-3.3-15-6.4-18.6c9.1,1.5,16.8,7,21.3,14.6c0.5-0.1,1.1-0.2,1.6-0.2c0.3,0,0.6,0,0.9,0
		C57.4,8.5,46.6,1.6,34.2,1.6c-6.1,0-11.9,1.7-16.8,4.7C18,6.7,18.5,7.3,18.9,8c3.1-1.8,6.6-3.1,10.4-3.7
		c-3.1,3.6-5.4,10.6-6.4,18.6c-8,1.1-15,3.3-18.6,6.4c0.5-3.2,1.6-6.3,3-9.1c-0.7-0.4-1.3-0.9-1.8-1.4C3,23.4,1.6,28.6,1.6,34.2
		c0,17.5,13.8,31.8,31.2,32.6c-0.7-1.1-1.2-2.3-1.4-3.7c-2.1-2.2-4.2-6.7-5.5-12.8c-0.7,0.2-1.4,0.4-2.2,0.4
		c1.2,5.8,3.1,10.6,5.5,13.4c-12.8-2.1-22.9-12.2-25-25c2.3,2,6,3.6,10.5,4.8c-0.1-0.6-0.2-1.2-0.2-1.9c0-0.2,0-0.3,0-0.5
		c-6.7-1.9-10.7-4.8-10.7-7.4c0-3.6,7.3-7.5,18.7-9.1c-0.3,2.7-0.5,5.6-0.5,8.4c0.4,0,0.7-0.1,1.1-0.1c0.4,0,0.8,0,1.1,0.1
		c0-3.1,0.2-6,0.5-8.7c2.9-0.3,6.1-0.5,9.4-0.5s6.5,0.2,9.4,0.5c0.3,2.9,0.5,6.1,0.5,9.4c0,3.3-0.2,6.5-0.5,9.4
		c-2.9,0.3-6.1,0.5-9.4,0.5c-0.9,0-1.7,0-2.6,0c-0.2,0.8-0.5,1.5-0.8,2.2c1.1,0,2.3,0.1,3.4,0.1c3.1,0,6.1-0.2,9.1-0.5
		c-0.4,2.8-0.9,5.4-1.6,7.7c0.7,0.2,1.4,0.4,2.1,0.7c0.7-2.7,1.3-5.6,1.8-8.7c8-1.1,15-3.3,18.6-6.4c-1.6,9.4-7.5,17.4-15.6,21.8
		c0,0.4,0.1,0.7,0.1,1.1c0,0.5-0.1,1-0.1,1.5c10.7-5.3,18.1-16.2,18.3-28.9c-0.8,0.5-1.7,0.9-2.7,1.2C62.4,38.9,55.6,41.9,45.9,43.3
		z M34.2,22.1c-3.1,0-6.1,0.2-9.1,0.5c1.6-11.4,5.5-18.7,9.1-18.7s7.5,7.3,9.1,18.7C40.3,22.2,37.3,22.1,34.2,22.1z"/>
	<path class="st1" d="M11.6,19.1c-3.5,0-6.4-2.9-6.4-6.4s2.9-6.4,6.4-6.4S18,9.2,18,12.7S15.1,19.1,11.6,19.1z M11.6,8.6
		c-2.3,0-4.1,1.9-4.1,4.1s1.9,4.1,4.1,4.1s4.1-1.9,4.1-4.1S13.9,8.6,11.6,8.6z"/>
	<path class="st1" d="M23.2,48.5c-3.5,0-6.4-2.9-6.4-6.4s2.9-6.4,6.4-6.4s6.4,2.9,6.4,6.4S26.7,48.5,23.2,48.5z M23.2,38
		c-2.3,0-4.1,1.9-4.1,4.1s1.9,4.1,4.1,4.1s4.1-1.9,4.1-4.1S25.5,38,23.2,38z"/>
	<path class="st1" d="M40,68.4c-3.5,0-6.4-2.9-6.4-6.4s2.9-6.4,6.4-6.4s6.4,2.9,6.4,6.4S43.5,68.4,40,68.4z M40,57.9
		c-2.3,0-4.1,1.9-4.1,4.1s1.9,4.1,4.1,4.1s4.1-1.9,4.1-4.1S42.3,57.9,40,57.9z"/>
	<path class="st1" d="M62,33.8c-3.5,0-6.4-2.9-6.4-6.4S58.5,21,62,21s6.4,2.9,6.4,6.4S65.6,33.8,62,33.8z M62,23.3
		c-2.3,0-4.1,1.9-4.1,4.1s1.9,4.1,4.1,4.1s4.1-1.9,4.1-4.1S64.3,23.3,62,23.3z"/>
</g>
</svg>
