<?xml version="1.0" encoding="utf-8"?>
<!-- Generator: Adobe Illustrator 24.0.2, SVG Export Plug-In . SVG Version: 6.00 Build 0)  -->
<svg version="1.1" id="Layer_1" xmlns="http://www.w3.org/2000/svg" xmlns:xlink="http://www.w3.org/1999/xlink" x="0px" y="0px"
	 viewBox="0 0 70 70" style="enable-background:new 0 0 70 70;" xml:space="preserve">
<style type="text/css">
	.st0{fill:#333333;}
</style>
<g>
	<path class="st0" d="M35,68.9C16.3,68.9,1.1,53.7,1.1,35C1.1,16.3,16.3,1.1,35,1.1c18.7,0,33.9,15.2,33.9,33.9
		C68.9,53.7,53.7,68.9,35,68.9z M35,3.4C17.6,3.4,3.4,17.6,3.4,35c0,17.4,14.2,31.6,31.6,31.6S66.6,52.4,66.6,35
		C66.6,17.6,52.4,3.4,35,3.4z"/>
	<path class="st0" d="M49.8,30c-2.8,0-5-2.3-5-5c0-0.6,0.5-1.1,1.1-1.1c0,0,0,0,0,0c0.6,0,1.1,0.5,1.1,1.1c0,1.5,1.2,2.8,2.8,2.8
		c0,0,0,0,0,0c0.7,0,1.4-0.3,2-0.8c0.5-0.5,0.8-1.2,0.8-2c0-0.6,0.5-1.1,1.1-1.1c0,0,0,0,0,0c0.6,0,1.1,0.5,1.1,1.1
		c0,1.3-0.5,2.6-1.5,3.6C52.4,29.5,51.1,30,49.8,30C49.8,30,49.8,30,49.8,30z"/>
	<path class="st0" d="M19.7,30c-2.8,0-5-2.3-5-5c0-0.6,0.5-1.1,1.1-1.1c0,0,0,0,0,0c0.6,0,1.1,0.5,1.1,1.1c0,1.5,1.2,2.8,2.8,2.8
		c0,0,0,0,0,0c0.7,0,1.4-0.3,2-0.8c0.5-0.5,0.8-1.2,0.8-2c0-0.6,0.5-1.1,1.1-1.1c0,0,0,0,0,0c0.6,0,1.1,0.5,1.1,1.1
		c0,1.3-0.5,2.6-1.5,3.6C22.3,29.5,21.1,30,19.7,30C19.7,30,19.7,30,19.7,30z"/>
	<path class="st0" d="M44.2,49.9c-0.5,0-0.9-0.3-1.1-0.8c-1.1-3-4.5-5-8.5-5s-7.4,2-8.5,5c-0.2,0.6-0.8,0.9-1.4,0.7
		c-0.6-0.2-0.9-0.8-0.7-1.4c1.4-3.9,5.6-6.5,10.6-6.5c5,0,9.2,2.6,10.6,6.5c0.2,0.6-0.1,1.2-0.7,1.4C44.5,49.9,44.3,49.9,44.2,49.9z
		"/>
</g>
</svg>
