<?xml version="1.0" encoding="utf-8"?>
<!-- Generator: Adobe Illustrator 24.0.2, SVG Export Plug-In . SVG Version: 6.00 Build 0)  -->
<svg version="1.1" xmlns="http://www.w3.org/2000/svg" xmlns:xlink="http://www.w3.org/1999/xlink" x="0px" y="0px"
	 viewBox="0 0 130 130" style="enable-background:new 0 0 130 130;" xml:space="preserve">
<style type="text/css">
	.st0{fill:#0397D6;}
</style>
<g id="Layer_1">
	<path class="st0" d="M115,38.4h-5.4l1.9-5.9c0.2-0.7-0.2-1.5-0.9-1.7c-0.7-0.2-1.5,0.2-1.7,0.9l-2.1,6.7h-3.9l-2.1-6.7
		c-0.2-0.6-0.7-1-1.3-1c-0.6,0-1.1,0.4-1.3,0.9l-2.4,6.7h-3.8l-1.8-6.7c-0.2-0.7-1-1.2-1.7-1c-0.7,0.2-1.2,1-1,1.7l1.6,5.9h-5.3
		c-0.8,0-1.4,0.6-1.4,1.4c0,0.8,0.6,1.4,1.4,1.4h6.1l2.3,8.2c0.2,0.6,0.7,1,1.3,1c0,0,0,0,0,0c0.6,0,1.1-0.4,1.3-0.9l2.9-8.3h3.1
		l2.6,8.3c0.2,0.6,0.7,1,1.3,1c0,0,0,0,0,0c0.6,0,1.1-0.4,1.3-1l2.6-8.3h6.3c0.8,0,1.4-0.6,1.4-1.4C116.4,39.1,115.8,38.4,115,38.4z
		 M93.6,44.4l-0.9-3.2h2L93.6,44.4z M98.6,38.4l0.7-1.9l0.6,1.9H98.6z M104.8,44.5l-1.1-3.3h2.1L104.8,44.5z"/>
	<g>
		<path d="M47.1,84.8l13.4,13.4c0.2,0.7,0.4,2.6-0.5,3.8c-0.6,0.8-1.8,1.3-3.5,1.3L49.4,96c-0.5-0.5-1.4-0.5-2,0
			c-0.5,0.5-0.5,1.4,0,2l7.6,7.6c0.2,0.2,0.6,0.4,0.9,0.4c0.2,0,0.3,0,0.5,0c2.6,0,4.6-0.8,5.8-2.4c2.1-2.7,1-6.5,0.9-6.6
			c-0.1-0.2-0.2-0.4-0.4-0.6l-14.1-14c-0.3-0.3-0.6-0.4-1-0.4H25.5v-2.6c0-2.3-1.9-4.2-4.2-4.2H10.3c-2.3,0-4.2,1.9-4.2,4.2v27.7
			c0,2.3,1.9,4.2,4.2,4.2h11.1c2.3,0,4.2-1.9,4.2-4.2V84.8H47.1z M22.8,107.1c0,0.8-0.6,1.4-1.4,1.4H10.3c-0.8,0-1.4-0.6-1.4-1.4
			V79.4c0-0.8,0.6-1.4,1.4-1.4h11.1c0.8,0,1.4,0.6,1.4,1.4V107.1z"/>
		<path d="M96.2,83.6c-0.2-0.1-0.4,0-0.7,0L67,91.1c-0.7,0.2-1.2,1-1,1.7c0.2,0.7,0.9,1.2,1.7,1l28.2-7.4c2.4,0.8,3.1,4.3,3.1,4.3
			c0,0,0,0.1,0,0.1c0.3,0.9-0.4,2.1-0.7,2.7l-38.6,20.5c-2.8,0.6-4.1,0.1-4.2,0.1L38,105.9c-0.2-0.1-0.4-0.1-0.6-0.1h-6.4
			c-0.8,0-1.4,0.6-1.4,1.4c0,0.8,0.6,1.4,1.4,1.4h6.1l17.1,8.2c0.1,0.1,1.1,0.5,2.9,0.5c0.9,0,2-0.1,3.3-0.4c0.1,0,0.2-0.1,0.3-0.1
			l39-20.8c0.2-0.1,0.3-0.2,0.5-0.4c0.2-0.3,2-2.8,1.3-5.3C101.5,89.5,100.4,84.6,96.2,83.6z"/>
		<path d="M27.4,69.3l15.2,8c0.2,0.1,0.4,0.1,0.6,0.2c0,0,0.1,0,0.2,0c1.7,0,12.8-0.6,37.9-15.1c0.7-0.4,0.9-1.2,0.5-1.9
			c-0.4-0.7-1.2-0.9-1.9-0.5C56.2,73.7,45.4,74.7,43.6,74.7l-11.8-6.2l6.2-1.6c0.7-0.2,1.2-0.9,1-1.7c-0.2-0.7-0.9-1.2-1.7-1
			l-9.7,2.5c-0.6,0.1-1,0.6-1,1.2C26.6,68.5,26.9,69,27.4,69.3z"/>
		<path d="M109.2,69.6l-6.1-3c-0.7-0.3-1.5-0.1-1.9,0.6c-0.3,0.7-0.1,1.5,0.6,1.9l3.2,1.6c-28.6,9.8-48.1,6.6-48.3,6.6
			c-0.8-0.1-1.5,0.4-1.6,1.1c-0.1,0.8,0.4,1.5,1.1,1.6c0.3,0.1,3.6,0.6,9.2,0.6c9.1,0,24.4-1.4,43.6-8.4c0.5-0.2,0.9-0.7,0.9-1.2
			C110,70.4,109.7,69.9,109.2,69.6z"/>
		<path d="M52.1,66.4c8.9,0,16.1-7.2,16.1-16.1S61,34.3,52.1,34.3s-16.1,7.2-16.1,16.1S43.3,66.4,52.1,66.4z M52.1,37.1
			c7.3,0,13.3,6,13.3,13.3s-6,13.3-13.3,13.3s-13.3-6-13.3-13.3S44.8,37.1,52.1,37.1z"/>
		<path d="M99.4,15.2c-13.9,0-25.2,10.9-25.2,24.4s11.3,24.4,25.2,24.4s25.2-10.9,25.2-24.4S113.3,15.2,99.4,15.2z M99.4,61.2
			C87,61.2,77,51.5,77,39.6S87,18,99.4,18s22.4,9.7,22.4,21.6S111.8,61.2,99.4,61.2z"/>
		<path d="M46,52.4l1.3,4.5c0.2,0.6,0.7,1,1.3,1c0,0,0,0,0,0c0.6,0,1.1-0.4,1.3-0.9l1.5-4.5h1.2l1.5,4.5c0.2,0.6,0.7,1,1.3,1
			c0.6,0,1.1-0.4,1.3-1l1.4-4.5h3.2c0.8,0,1.4-0.6,1.4-1.4s-0.6-1.4-1.4-1.4h-2.3l0.9-3c0.2-0.7-0.2-1.5-0.9-1.7
			c-0.7-0.2-1.5,0.2-1.7,0.9l-1.2,3.8h-1.4l-1.3-3.9c-0.2-0.6-0.7-0.9-1.3-1c0,0,0,0,0,0c-0.6,0-1.1,0.4-1.3,0.9l-1.3,3.9h-1.4
			L47,45.8c-0.2-0.7-1-1.2-1.7-0.9c-0.7,0.2-1.2,1-0.9,1.7l0.9,3h-2.4c-0.8,0-1.4,0.6-1.4,1.4s0.6,1.4,1.4,1.4H46z"/>
	</g>
</g>
<g id="Layer_2">
</g>
<g id="Layer_3">
</g>
</svg>
