<?xml version="1.0" encoding="utf-8"?>
<!-- Generator: Adobe Illustrator 24.0.2, SVG Export Plug-In . SVG Version: 6.00 Build 0)  -->
<svg version="1.1" id="Layer_1" xmlns="http://www.w3.org/2000/svg" xmlns:xlink="http://www.w3.org/1999/xlink" x="0px" y="0px"
	 viewBox="0 0 60 60" style="enable-background:new 0 0 60 60;" xml:space="preserve">
<style type="text/css">
	.st0{fill:#333333;}
</style>
<g>
	<path class="st0" d="M57.6,42.8h-6.9v-25h6.9c0.3,0,0.6-0.3,0.6-0.6s-0.3-0.6-0.6-0.6H50c-0.3,0-0.6,0.3-0.6,0.6v2.5l-8.7-4.1
		c-0.1,0-0.2-0.1-0.3-0.1l-12.9,1c-0.2,0-0.3,0.1-0.4,0.2c0,0-0.5,0.6-1.2,1.4c-0.1-0.2-0.3-0.3-0.6-0.3H10.6V15
		c0-0.3-0.3-0.6-0.6-0.6H2.4c-0.3,0-0.6,0.3-0.6,0.6s0.3,0.6,0.6,0.6h6.9v24.7H2.4c-0.3,0-0.6,0.3-0.6,0.6c0,0.3,0.3,0.6,0.6,0.6H10
		c0.3,0,0.6-0.3,0.6-0.6v-3.2h2.8L19,48c0.1,0.3,0.9,1.6,3.8,1.6c0.3,0,0.6-0.3,0.6-0.6c0-0.3-0.3-0.6-0.6-0.6
		c-2.2,0-2.7-0.9-2.7-0.9c0,0,0,0,0-0.1l-5.8-10.6c-0.1-0.2-0.3-0.3-0.6-0.3h-3.2V19.1h14.5c-2.4,2.7-6.2,7-6.7,7.5
		c-0.5,0.5-0.5,1-0.5,1.3c0.1,0.9,0.8,1.8,2.3,2.9c2.6,1.9,7.5-2.2,8.9-4.2c1.2-1.6,2-1.7,2-1.8h3.2c0.3,0.1,0.8,0.9,1.2,1.7
		c0.6,1.2,6.3,11.9,7.1,12.9c0.2,0.3,0.5,0.9,0.7,1.5c0.2,0.9,0.2,2.1-1,2.9c-0.5,0.3-1,0.4-1.4,0.3c-0.9-0.2-1.5-1.1-1.5-1.2
		c0,0,0,0,0,0l-5.3-8.1c-0.2-0.3-0.6-0.4-0.9-0.2c-0.3,0.2-0.4,0.6-0.2,0.9l5.3,8.1c0.1,0.2,0.9,1.4,2.3,1.7c0.2,0,0.4,0.1,0.6,0.1
		c0.6,0,1.2-0.2,1.8-0.6c1.2-0.8,1.8-2,1.7-3.4h4.7v1.9c0,0.3,0.3,0.6,0.6,0.6h7.6c0.3,0,0.6-0.3,0.6-0.6
		C58.2,43.1,58,42.8,57.6,42.8z M44.5,40.3C44.5,40.3,44.5,40.3,44.5,40.3c-0.2-0.6-0.5-1.1-0.8-1.5c-0.5-0.7-4.5-8-7-12.8
		c-0.4-0.9-1.3-2.4-2.3-2.4h-3.3c-0.2,0-1.4,0.1-3,2.3c-0.6,0.9-2.1,2.2-3.7,3.2c-1.6,1-2.9,1.2-3.5,0.7c-1.6-1.2-1.8-1.8-1.8-2
		c0,0,0-0.2,0.1-0.3c0.7-0.7,7.5-8.3,8.7-9.7l12.4-1l8.9,4.2c0,0,0.1,0,0.1,0v19.2H44.5z"/>
	<path class="st0" d="M29.3,47.9c-1.7,0.2-2.1-0.9-2.1-1.1c0-0.1,0-0.1-0.1-0.2l-3-4.5c-0.2-0.3-0.6-0.4-0.9-0.2
		c-0.3,0.2-0.4,0.6-0.2,0.9l3,4.5c0.3,0.7,1.1,1.9,2.9,1.9c0.2,0,0.3,0,0.5,0c0.3,0,0.6-0.4,0.6-0.7C30,48.1,29.6,47.8,29.3,47.9z"
		/>
	<path class="st0" d="M35.9,46.1c-2.3,0.2-3.1-1.4-3.2-1.4c0,0,0,0,0,0l-3.8-6.3c-0.2-0.3-0.6-0.4-0.9-0.2c-0.3,0.2-0.4,0.6-0.2,0.9
		l3.8,6.3c0.1,0.3,1.2,2.1,3.9,2.1c0.2,0,0.4,0,0.5,0c0.3,0,0.6-0.3,0.6-0.7C36.5,46.3,36.2,46.1,35.9,46.1z"/>
</g>
</svg>
