<?xml version="1.0" encoding="utf-8"?>
<!-- Generator: Adobe Illustrator 24.0.2, SVG Export Plug-In . SVG Version: 6.00 Build 0)  -->
<svg version="1.1" id="Layer_1" xmlns="http://www.w3.org/2000/svg" xmlns:xlink="http://www.w3.org/1999/xlink" x="0px" y="0px"
	 viewBox="0 0 70 70" style="enable-background:new 0 0 70 70;" xml:space="preserve">
<style type="text/css">
	.st0{fill:#333333;}
</style>
<path class="st0" d="M60.1,14.3C53.9,6.8,44.8,2.4,35,2.4c-9.9,0-19.1,4.4-25.3,12.1C5,20.3,2.4,27.6,2.4,35l0,0.3
	c0,5.2,1.3,10.1,3.6,14.7c0.2,0.4,0.6,0.6,0.9,0.6c0.2,0,0.3,0,0.5-0.1C8,50.1,8.2,49.5,8,49c-2.1-4-3.2-8.2-3.4-12.7h16.1
	c0,0.1,0,0.2,0,0.4c0,1,0.1,1.9,0.1,2.9c0,0.6,0.5,1,1.1,1c0.6,0,1-0.5,1-1.1c-0.1-0.9-0.1-1.9-0.1-2.8c0-0.1,0-0.2,0-0.4h24.4
	c0,0.1,0,0.2,0,0.3c0,1.1-0.1,2.2-0.1,3.3c0,0.2,0,0.3,0,0.5c-0.1,1.1-0.2,2.2-0.3,3.2c0,0.1,0,0.3-0.1,0.4
	c-0.1,1.1-0.3,2.2-0.5,3.2c0,0.1,0,0.2-0.1,0.3c-0.2,1.1-0.4,2.2-0.7,3.2c-0.1,0.6,0.2,1.1,0.8,1.3c0.1,0,0.2,0,0.3,0
	c0,0,0.1,0,0.1,0c0.1,0,0.1,0,0.2,0c0.1,0,0.1,0,0.2-0.1c0,0,0.1,0,0.1-0.1c0.1,0,0.1-0.1,0.2-0.2c0,0,0.1-0.1,0.1-0.1
	c0.1-0.1,0.1-0.2,0.2-0.4c0.1-0.6,0.3-1.2,0.4-1.8c0-0.2,0.1-0.4,0.1-0.6c0.1-0.4,0.2-0.8,0.2-1.3c0-0.2,0.1-0.5,0.1-0.7
	c0.1-0.4,0.1-0.8,0.2-1.2c0-0.3,0.1-0.5,0.1-0.8c0.1-0.4,0.1-0.8,0.1-1.1c0-0.3,0.1-0.6,0.1-0.8c0-0.4,0.1-0.8,0.1-1.1
	c0-0.3,0-0.6,0.1-0.9c0-0.4,0.1-0.7,0.1-1.1c0-0.3,0-0.6,0.1-0.9c0-0.4,0-0.7,0.1-1.1c0-0.3,0-0.6,0-0.9c0-0.2,0-0.4,0-0.6h16.1
	c0,0.9-0.1,1.7-0.2,2.5c0,0,0,0,0,0L65,39.5c-0.6,2.2-1.5,5.6-4.8,9.3c-3.6,3.9-6.3,4.9-10.5,6.5l-0.3,0.1
	c-4.1,1.5-6.4,1.1-11.9,0.2l-0.5-0.1c-4.2-0.7-7.1-3.3-8.3-4.5l2-2c0.7-0.7,0.9-1.7,0.5-2.6S29.9,45,29,44.9l-15.2-0.7
	c-0.7,0-1.3,0.2-1.8,0.7c-0.5,0.5-0.7,1.1-0.7,1.8L12,61.9c0,1,0.6,1.8,1.5,2.1c0.9,0.3,1.9,0.1,2.6-0.5l1.8-1.8
	c5.3,4,10.7,5.9,17.1,5.9C53,67.6,67.6,53,67.6,35C67.6,27.5,64.9,20.1,60.1,14.3z M40.7,5.1c6.6,1.2,12.6,4.6,17.1,9.7
	c-0.1,0-0.1,0.1-0.2,0.1c-0.1,0.1-0.3,0.2-0.4,0.3c-0.3,0.2-0.5,0.3-0.8,0.5c-0.2,0.1-0.3,0.2-0.5,0.3c-0.3,0.2-0.6,0.3-0.9,0.5
	c-0.2,0.1-0.3,0.2-0.5,0.2c-0.3,0.2-0.7,0.3-1.1,0.5c-0.1,0-0.2,0.1-0.3,0.2c-0.5,0.2-1,0.4-1.5,0.6c-0.1,0-0.2,0.1-0.3,0.1
	c-0.4,0.1-0.8,0.3-1.2,0.4c-0.2,0.1-0.3,0.1-0.5,0.2c-0.4,0.1-0.7,0.2-1.1,0.3c-0.2,0.1-0.4,0.1-0.6,0.2c-0.1,0-0.3,0.1-0.4,0.1
	c0-0.1-0.1-0.2-0.1-0.4c-0.1-0.5-0.3-1-0.4-1.4c-0.1-0.2-0.1-0.5-0.2-0.7c-0.2-0.5-0.3-1.1-0.5-1.6c0-0.1-0.1-0.3-0.1-0.4
	c-0.2-0.6-0.5-1.3-0.7-1.9c-0.1-0.2-0.1-0.3-0.2-0.4c-0.2-0.4-0.4-0.9-0.6-1.3c-0.1-0.2-0.2-0.4-0.3-0.6c-0.2-0.4-0.4-0.7-0.5-1
	c-0.1-0.2-0.2-0.4-0.3-0.6c-0.2-0.3-0.4-0.6-0.6-0.9c-0.1-0.2-0.2-0.3-0.3-0.5c-0.2-0.3-0.5-0.6-0.7-0.9c-0.1-0.1-0.1-0.2-0.2-0.3
	C41.4,5.8,41.1,5.5,40.7,5.1C40.7,5.1,40.7,5.1,40.7,5.1z M24.8,18.5c0.1-0.3,0.2-0.6,0.2-0.9c0.1-0.3,0.2-0.5,0.2-0.8
	c0.1-0.3,0.2-0.6,0.3-0.8c0.1-0.3,0.2-0.5,0.3-0.7c0.1-0.3,0.2-0.5,0.3-0.8c0.1-0.2,0.2-0.5,0.3-0.7c0.1-0.3,0.2-0.5,0.3-0.7
	c0.1-0.2,0.2-0.4,0.3-0.6c0.1-0.2,0.2-0.5,0.3-0.7c0.1-0.2,0.2-0.4,0.3-0.6c0.1-0.2,0.2-0.4,0.3-0.6c0.1-0.2,0.2-0.4,0.3-0.5
	c0.1-0.2,0.2-0.4,0.4-0.6c0.1-0.2,0.2-0.3,0.3-0.5c0.1-0.2,0.3-0.4,0.4-0.5c0.1-0.1,0.2-0.3,0.3-0.4c0.1-0.2,0.3-0.3,0.4-0.5
	c0.1-0.1,0.2-0.3,0.3-0.4c0.1-0.1,0.3-0.3,0.4-0.4c0.1-0.1,0.2-0.2,0.3-0.3c0.1-0.1,0.3-0.2,0.4-0.3c0.1-0.1,0.2-0.2,0.3-0.3
	c0.1-0.1,0.3-0.2,0.4-0.3c0.1-0.1,0.2-0.1,0.3-0.2C32.8,5.1,32.9,5,33.1,5c0.1,0,0.2-0.1,0.3-0.1c0.2-0.1,0.4-0.1,0.5-0.1
	c0.1,0,0.2-0.1,0.3-0.1c0.3,0,0.5-0.1,0.8-0.1c0.3,0,0.5,0,0.8,0.1c0.1,0,0.2,0,0.3,0.1c0.2,0,0.4,0.1,0.5,0.1
	c0.1,0,0.2,0.1,0.3,0.1c0.2,0.1,0.3,0.1,0.5,0.2c0.1,0.1,0.2,0.1,0.3,0.2c0.1,0.1,0.3,0.2,0.4,0.3c0.1,0.1,0.2,0.2,0.3,0.3
	c0.1,0.1,0.3,0.2,0.4,0.3c0.1,0.1,0.2,0.2,0.3,0.3c0.1,0.1,0.3,0.3,0.4,0.4c0.1,0.1,0.2,0.3,0.3,0.4c0.1,0.1,0.3,0.3,0.4,0.5
	c0.1,0.1,0.2,0.3,0.3,0.4c0.1,0.2,0.2,0.3,0.4,0.5c0.1,0.2,0.2,0.3,0.3,0.5c0.1,0.2,0.2,0.4,0.4,0.6c0.1,0.2,0.2,0.4,0.3,0.5
	c0.1,0.2,0.2,0.4,0.3,0.6c0.1,0.2,0.2,0.4,0.3,0.6c0.1,0.2,0.2,0.4,0.3,0.7c0.1,0.2,0.2,0.4,0.3,0.6c0.1,0.2,0.2,0.5,0.3,0.7
	c0.1,0.2,0.2,0.5,0.3,0.7c0.1,0.3,0.2,0.5,0.3,0.8c0.1,0.2,0.2,0.5,0.2,0.7c0.1,0.3,0.2,0.6,0.3,0.8c0.1,0.3,0.2,0.5,0.2,0.8
	c0.1,0.3,0.2,0.6,0.2,0.9c0.1,0.3,0.1,0.5,0.2,0.8c0,0.1,0.1,0.2,0.1,0.4c-0.3,0.1-0.7,0.1-1,0.2c-0.4,0.1-0.8,0.1-1.1,0.2
	c-0.6,0.1-1.1,0.2-1.7,0.2c-0.4,0-0.7,0.1-1.1,0.1c-0.6,0.1-1.3,0.1-1.9,0.2c-0.3,0-0.6,0.1-0.9,0.1c-1,0.1-1.9,0.1-2.9,0.1
	c-0.9,0-1.8,0-2.8-0.1c-0.3,0-0.6,0-0.9-0.1c-0.6,0-1.2-0.1-1.8-0.1c-0.4,0-0.7-0.1-1.1-0.1c-0.5-0.1-1.1-0.1-1.6-0.2
	c-0.4-0.1-0.7-0.1-1.1-0.2c-0.3-0.1-0.7-0.1-1-0.2c0-0.1,0.1-0.2,0.1-0.4C24.7,19,24.7,18.8,24.8,18.5z M22.9,32.1c0-0.3,0-0.6,0-1
	c0.1-1.2,0.1-2.3,0.3-3.4c0-0.2,0.1-0.5,0.1-0.7c0.1-0.9,0.2-1.8,0.3-2.6c0.1-0.4,0.1-0.8,0.2-1.1c0.1-0.5,0.2-1,0.3-1.5
	c0.3,0.1,0.7,0.1,1,0.2c0.4,0.1,0.8,0.1,1.1,0.2c0.6,0.1,1.1,0.2,1.7,0.2c0.4,0,0.7,0.1,1.1,0.1c0.6,0.1,1.3,0.1,1.9,0.2
	c0.3,0,0.6,0.1,0.9,0.1c1,0,1.9,0.1,2.9,0.1c1,0,2,0,3-0.1c0.3,0,0.7-0.1,1-0.1c0.7,0,1.3-0.1,2-0.2c0.4,0,0.8-0.1,1.1-0.1
	c0.6-0.1,1.2-0.2,1.8-0.3c0.4-0.1,0.8-0.1,1.2-0.2c0.4-0.1,0.7-0.1,1.1-0.2c0.1,0.5,0.2,1,0.3,1.5c0.1,0.4,0.1,0.8,0.2,1.1
	c0.1,0.9,0.2,1.8,0.3,2.7c0,0.2,0.1,0.5,0.1,0.7c0.1,1.1,0.2,2.3,0.3,3.5c0,0.3,0,0.6,0,1c0,0.7,0,1.4,0.1,2.1H22.8
	C22.8,33.5,22.8,32.8,22.9,32.1z M29.3,5.1C29.3,5.1,29.3,5.1,29.3,5.1c-0.4,0.4-0.7,0.7-1,1.1c-0.1,0.1-0.1,0.2-0.2,0.2
	c-0.3,0.3-0.5,0.6-0.7,1c-0.1,0.1-0.2,0.3-0.3,0.5c-0.2,0.3-0.4,0.6-0.6,0.9c-0.1,0.2-0.2,0.4-0.3,0.6c-0.2,0.3-0.4,0.7-0.5,1
	c-0.1,0.2-0.2,0.4-0.3,0.6c-0.2,0.4-0.4,0.8-0.6,1.3c-0.1,0.2-0.1,0.3-0.2,0.5c-0.2,0.6-0.5,1.2-0.7,1.9c-0.1,0.1-0.1,0.3-0.1,0.4
	c-0.2,0.5-0.3,1-0.5,1.6c-0.1,0.2-0.1,0.5-0.2,0.7c-0.1,0.5-0.3,0.9-0.4,1.4c0,0.1-0.1,0.3-0.1,0.4c-0.1,0-0.3-0.1-0.5-0.1
	c-0.2-0.1-0.4-0.1-0.6-0.2c-0.4-0.1-0.7-0.2-1.1-0.3c-0.2-0.1-0.4-0.1-0.6-0.2c-0.4-0.1-0.8-0.3-1.2-0.4c-0.1,0-0.2-0.1-0.3-0.1
	c-0.5-0.2-1-0.4-1.5-0.6c-0.1,0-0.2-0.1-0.3-0.1c-0.4-0.2-0.7-0.3-1.1-0.5c-0.2-0.1-0.3-0.1-0.5-0.2c-0.3-0.1-0.6-0.3-0.9-0.5
	c-0.2-0.1-0.3-0.2-0.5-0.2c-0.3-0.2-0.6-0.3-0.9-0.5c-0.1-0.1-0.3-0.2-0.4-0.2c-0.1,0-0.1-0.1-0.2-0.1C16.6,9.8,22.6,6.3,29.3,5.1z
	 M4.6,34.2c0.2-6.3,2.3-12.5,6.2-17.6c0.1,0.1,0.2,0.1,0.3,0.2c0.2,0.1,0.3,0.2,0.5,0.3c0.3,0.2,0.6,0.3,0.8,0.5
	c0.2,0.1,0.4,0.2,0.5,0.3c0.3,0.2,0.6,0.3,0.9,0.5c0.2,0.1,0.3,0.2,0.5,0.3c0.4,0.2,0.8,0.4,1.2,0.5c0.1,0,0.2,0.1,0.3,0.1
	c0.5,0.2,1,0.4,1.6,0.6c0.2,0.1,0.3,0.1,0.5,0.2c0.4,0.1,0.8,0.3,1.1,0.4c0.2,0.1,0.4,0.1,0.6,0.2c0.4,0.1,0.7,0.2,1.1,0.3
	c0.2,0.1,0.5,0.1,0.7,0.2c0.2,0,0.3,0.1,0.5,0.1c-0.1,0.5-0.2,1.1-0.3,1.6c-0.1,0.4-0.1,0.8-0.2,1.2c-0.1,0.9-0.3,1.8-0.4,2.8
	c0,0.2-0.1,0.4-0.1,0.7c-0.1,1.2-0.2,2.3-0.3,3.5c0,0.3,0,0.7,0,1c0,0.7-0.1,1.4-0.1,2.2H4.6z M49.3,34.2c0-0.7,0-1.5-0.1-2.2
	c0-0.3,0-0.7,0-1c-0.1-1.2-0.2-2.4-0.3-3.6c0-0.2-0.1-0.5-0.1-0.7c-0.1-0.9-0.2-1.9-0.4-2.8c-0.1-0.4-0.1-0.8-0.2-1.2
	c-0.1-0.5-0.2-1.1-0.3-1.6c0.2,0,0.3-0.1,0.5-0.1c0.2-0.1,0.4-0.1,0.7-0.2c0.4-0.1,0.7-0.2,1.1-0.3c0.2-0.1,0.4-0.1,0.6-0.2
	c0.4-0.1,0.8-0.3,1.2-0.4c0.2-0.1,0.3-0.1,0.5-0.2c0.5-0.2,1.1-0.4,1.6-0.6c0.1,0,0.2-0.1,0.3-0.1c0.4-0.2,0.8-0.4,1.2-0.6
	c0.2-0.1,0.3-0.2,0.5-0.3c0.3-0.2,0.6-0.3,0.9-0.5c0.2-0.1,0.4-0.2,0.5-0.3c0.3-0.2,0.6-0.3,0.8-0.5c0.2-0.1,0.3-0.2,0.5-0.3
	c0.1-0.1,0.2-0.1,0.3-0.2c3.9,5.1,6.1,11.3,6.3,17.8H49.3z M35,65.5c-6.2,0-11.4-1.9-16.5-6c-0.4-0.3-1.1-0.3-1.4,0.1L14.6,62
	c-0.1,0.1-0.2,0.1-0.3,0.1c-0.1,0-0.2-0.1-0.2-0.3l-0.7-15.2c0-0.1,0-0.2,0.1-0.2c0,0,0.1-0.1,0.2-0.1L28.9,47
	c0.2,0,0.2,0.1,0.3,0.2c0,0.1,0,0.2-0.1,0.3L26.6,50l-0.2,0.2c-0.3,0.4-0.4,0.9,0,1.3c0.2,0.2,3.9,4.9,10.2,6l0.5,0.1
	c5.6,1,8.4,1.4,13-0.3l0.3-0.1c3.9-1.5,6.9-2.6,10.3-6C55.3,59.8,45.8,65.5,35,65.5z"/>
</svg>
