<?xml version="1.0" encoding="utf-8"?>
<!-- Generator: Adobe Illustrator 24.0.2, SVG Export Plug-In . SVG Version: 6.00 Build 0)  -->
<svg version="1.1" xmlns="http://www.w3.org/2000/svg" xmlns:xlink="http://www.w3.org/1999/xlink" x="0px" y="0px"
	 viewBox="0 0 130 130" style="enable-background:new 0 0 130 130;" xml:space="preserve">
<style type="text/css">
	.st0{fill:#0397D6;}
</style>
<g id="Layer_1">
</g>
<g id="Layer_2">
	<path class="st0" d="M109.2,27.6c0.1-0.3,0-0.5-0.1-0.8c-0.2-0.5-0.7-0.9-1.3-0.9h-6.9c-0.8,0-1.4,0.6-1.4,1.4
		c0,0.8,0.6,1.4,1.4,1.4h3.5L57.9,73.1l-7.3-7.3c-0.3-0.3-0.6-0.4-1-0.4h-4.6c-0.4,0-0.7,0.1-1,0.4L35,75H15.9
		c-0.8,0-1.4,0.6-1.4,1.4c0,0.8,0.6,1.4,1.4,1.4h19.7c0.4,0,0.7-0.1,1-0.4l9.1-9.1h3.4l7.8,7.8c0.5,0.5,1.4,0.5,1.9,0l47.6-45.5V34
		c0,0.8,0.6,1.4,1.4,1.4c0.8,0,1.4-0.6,1.4-1.4v-6.1C109.2,27.8,109.2,27.7,109.2,27.6z"/>
	<g>
		<path d="M8.1,79.4c0.8,0,1.4-0.6,1.4-1.4V18.8c0-0.8,0.6-1.4,1.4-1.4H89c0.8,0,1.4-0.6,1.4-1.4s-0.6-1.4-1.4-1.4H10.9
			c-2.3,0-4.2,1.9-4.2,4.2V78C6.7,78.8,7.4,79.4,8.1,79.4z"/>
		<path d="M120.8,14.6H97.6c-2.3,0-4.2,1.9-4.2,4.2v9.8c0,0.8,0.6,1.4,1.4,1.4c0.8,0,1.4-0.6,1.4-1.4v-9.8c0-0.8,0.6-1.4,1.4-1.4
			h23.3c0.8,0,1.4,0.6,1.4,1.4V60c0,0.8-0.6,1.4-1.4,1.4H97.6c-0.8,0-1.4-0.6-1.4-1.4V48c0-0.8-0.6-1.4-1.4-1.4
			c-0.8,0-1.4,0.6-1.4,1.4v12c0,2.3,1.9,4.2,4.2,4.2h23.3c2.3,0,4.2-1.9,4.2-4.2V18.8C125,16.5,123.1,14.6,120.8,14.6z"/>
		<path d="M90.4,26.5c0-0.8-0.6-1.4-1.4-1.4H67.1c-2.3,0-4.2,1.9-4.2,4.2v29.4c0,0.8,0.6,1.4,1.4,1.4c0.8,0,1.4-0.6,1.4-1.4V29.3
			c0-0.8,0.6-1.4,1.4-1.4H89C89.8,27.9,90.4,27.3,90.4,26.5z"/>
		<path d="M116.7,65.7c-0.8,0-1.4,0.6-1.4,1.4v37.8c0,0.8-0.6,1.4-1.4,1.4H67.1c-0.8,0-1.4-0.6-1.4-1.4V79.4c0-0.8-0.6-1.4-1.4-1.4
			c-0.8,0-1.4,0.6-1.4,1.4v15.5H10.9c-0.8,0-1.4-0.6-1.4-1.4v-6.4H58c0.8,0,1.4-0.6,1.4-1.4c0-0.8-0.6-1.4-1.4-1.4H8.1
			c-0.8,0-1.4,0.6-1.4,1.4c0,0.1,0,0.1,0,0.2c0,0.1,0,0.1,0,0.2v7.5c0,2.3,1.9,4.2,4.2,4.2h39.4l-4.7,18H40c-0.8,0-1.4,0.6-1.4,1.4
			c0,0.8,0.6,1.4,1.4,1.4h6.6c0,0,0,0,0,0c0,0,0,0,0,0H81c0.8,0,1.4-0.6,1.4-1.4c0-0.8-0.6-1.4-1.4-1.4H48.4l4.7-18H63v7.2
			c0,2.3,1.9,4.2,4.2,4.2h46.8c2.3,0,4.2-1.9,4.2-4.2V67.1C118.1,66.3,117.5,65.7,116.7,65.7z"/>
		<path d="M96.5,80.8h10.2c0.8,0,1.4-0.6,1.4-1.4c0-0.8-0.6-1.4-1.4-1.4H96.5c-0.8,0-1.4,0.6-1.4,1.4C95.1,80.2,95.7,80.8,96.5,80.8
			z"/>
		<path d="M96.5,88.8h10.2c0.8,0,1.4-0.6,1.4-1.4c0-0.8-0.6-1.4-1.4-1.4H96.5c-0.8,0-1.4,0.6-1.4,1.4C95.1,88.2,95.7,88.8,96.5,88.8
			z"/>
		<path d="M110.6,48.7h6.9c0.8,0,1.4-0.6,1.4-1.4c0-0.8-0.6-1.4-1.4-1.4h-6.9c-0.8,0-1.4,0.6-1.4,1.4
			C109.2,48.1,109.8,48.7,110.6,48.7z"/>
		<path d="M110.6,56.2h6.9c0.8,0,1.4-0.6,1.4-1.4c0-0.8-0.6-1.4-1.4-1.4h-6.9c-0.8,0-1.4,0.6-1.4,1.4
			C109.2,55.5,109.8,56.2,110.6,56.2z"/>
		<path d="M90.7,93.5c-2.7,0-5,2.2-5,5c0,2.7,2.2,5,5,5c2.7,0,5-2.2,5-5C95.6,95.8,93.4,93.5,90.7,93.5z M90.7,100.7
			c-1.2,0-2.2-1-2.2-2.2c0-1.2,1-2.2,2.2-2.2c1.2,0,2.2,1,2.2,2.2C92.9,99.8,91.9,100.7,90.7,100.7z"/>
	</g>
</g>
<g id="Layer_3">
</g>
</svg>
