<?xml version="1.0" encoding="utf-8"?>
<!-- Generator: Adobe Illustrator 24.0.2, SVG Export Plug-In . SVG Version: 6.00 Build 0)  -->
<svg version="1.1" id="Layer_1" xmlns="http://www.w3.org/2000/svg" xmlns:xlink="http://www.w3.org/1999/xlink" x="0px" y="0px"
	 viewBox="0 0 38 28" style="enable-background:new 0 0 38 28;" xml:space="preserve">
<style type="text/css">
	.st0{fill:#969696;}
	.st1{fill:#595959;}
</style>
<g>
	<path class="st0" d="M34,1c1.7,0,3,1.3,3,3v14c0,1.7-1.3,3-3,3h-9.9h-0.5l-0.3,0.3L19,26.5l-4.4-5.1L14.3,21h-0.5H4
		c-1.7,0-3-1.3-3-3V4c0-1.7,1.3-3,3-3H34 M34,0H4C1.8,0,0,1.8,0,4v14c0,2.2,1.8,4,4,4h9.9l5.1,6l5.1-6H34c2.2,0,4-1.8,4-4V4
		C38,1.8,36.2,0,34,0L34,0z"/>
</g>
<g>
	<g>
		<path class="st1" d="M12.3,7.1h1.1v4.2h0c0.2-0.3,0.5-0.6,0.7-0.9l2.7-3.3h1.4l-3.2,3.7l3.4,5h-1.3l-2.9-4.3l-0.8,1v3.3h-1.1V7.1z
			"/>
		<path class="st1" d="M20,7.2C20.6,7.1,21.4,7,22.2,7c1.2,0,2,0.2,2.5,0.7c0.4,0.4,0.7,1,0.7,1.7c0,1.2-0.7,1.9-1.7,2.2v0
			c0.7,0.2,1.1,0.9,1.3,1.8c0.3,1.2,0.5,2.1,0.7,2.4h-1.2c-0.1-0.2-0.3-1-0.6-2.1c-0.3-1.2-0.7-1.7-1.8-1.7h-1.1v3.8H20V7.2z
			 M21.1,11.2h1.2c1.2,0,2-0.7,2-1.7c0-1.1-0.8-1.6-2-1.6c-0.5,0-0.9,0.1-1.1,0.1V11.2z"/>
	</g>
</g>
</svg>
