<?xml version="1.0" encoding="utf-8"?>
<!-- Generator: Adobe Illustrator 24.0.2, SVG Export Plug-In . SVG Version: 6.00 Build 0)  -->
<svg version="1.1" xmlns="http://www.w3.org/2000/svg" xmlns:xlink="http://www.w3.org/1999/xlink" x="0px" y="0px"
	 viewBox="0 0 130 130" style="enable-background:new 0 0 130 130;" xml:space="preserve">
<style type="text/css">
	.st0{fill:#0397D6;}
</style>
<g id="Layer_1">
</g>
<g id="Layer_2">
</g>
<g id="Layer_3">
	<path d="M46.2,85.1L22.1,61V37c0-0.3-0.1-0.5-0.2-0.8c-0.1-0.1-2.2-3.3-5.6-3.4c-2.2-0.1-4.2,1-6.2,3.3c-0.2,0.2-0.3,0.6-0.3,0.9
		V80c0,0.3,0.1,0.6,0.3,0.9L27,101.2v15.3c0,0.8,0.6,1.4,1.4,1.4h16.9c0.8,0,1.4-0.6,1.4-1.4V86.1C46.6,85.7,46.5,85.3,46.2,85.1z
		 M43.9,115.1H29.7v-14.4c0-0.3-0.1-0.6-0.3-0.9L12.6,79.5V37.6c1.2-1.4,2.4-2,3.6-2c1.5,0.1,2.7,1.3,3.2,1.9v24
		c0,0.4,0.1,0.7,0.4,1l2.3,2.3c-3,0.6-5.4,3.3-5.4,6.7c0,1.4,0.4,2.8,1.2,3.9c0.1,0.2,0.2,0.4,0.3,0.5l11.9,12.2
		c0.3,0.3,0.6,0.4,1,0.4c0.3,0,0.7-0.1,1-0.4c0.5-0.5,0.6-1.4,0-2L20.5,74.3c0-0.1-0.1-0.2-0.1-0.2c-0.6-0.7-0.9-1.6-0.9-2.6
		c0-2.2,1.7-4,3.7-4c1,0,1.9,0.4,2.6,1.1c0.1,0.1,0.1,0.1,0.2,0.2l17.9,17.9V115.1z"/>
	<path d="M121.4,36.2c-1.9-2.3-4-3.4-6.2-3.3c-3.4,0.2-5.5,3.3-5.6,3.4c-0.2,0.2-0.2,0.5-0.2,0.8V61L85.2,85.1
		c-0.3,0.3-0.4,0.6-0.4,1v30.5c0,0.8,0.6,1.4,1.4,1.4h16.9c0.8,0,1.4-0.6,1.4-1.4v-15.3l16.9-20.4c0.2-0.2,0.3-0.6,0.3-0.9V37
		C121.7,36.7,121.6,36.4,121.4,36.2z M118.9,79.5l-16.9,20.4c-0.2,0.2-0.3,0.6-0.3,0.9v14.4H87.6V86.6l17.9-17.9
		c0.1,0,0.1-0.1,0.2-0.2c0.7-0.7,1.6-1.1,2.6-1.1c2.1,0,3.7,1.8,3.7,4c0,0.9-0.3,1.9-0.9,2.6c-0.1,0.1-0.1,0.1-0.1,0.2L99.4,86.2
		c-0.5,0.5-0.5,1.4,0,2c0.3,0.3,0.6,0.4,1,0.4c0.4,0,0.7-0.1,1-0.4L113.3,76c0.2-0.2,0.3-0.3,0.3-0.5c0.8-1.1,1.2-2.5,1.2-3.9
		c0-3.3-2.3-6.1-5.4-6.7l2.3-2.3c0.3-0.3,0.4-0.6,0.4-1v-24c0.5-0.6,1.7-1.8,3.2-1.9c1.2-0.1,2.4,0.6,3.6,2V79.5z"/>
	<path class="st0" d="M57.1,36.6c-0.6-2.2-2.5-3.9-5.1-4.9c1.5-1.3,2.5-3.2,2.5-5.4c0-3.8-3-6.9-6.8-6.9s-6.8,3.1-6.8,6.9
		c0,2.2,1,4.2,2.6,5.5c-2.5,0.9-4.4,2.7-4.9,4.8h-0.2v5.8h18.8v-5.8H57.1z M47.7,22c2.4,0,4.3,2,4.3,4.4s-1.9,4.4-4.3,4.4
		c-2.4,0-4.3-2-4.3-4.4S45.4,22,47.7,22z M40.9,40V38l0-0.1c0.1-2.4,3.2-4.3,6.9-4.3s6.8,1.9,6.9,4.3l0,2H40.9z"/>
	<path d="M92.8,35.8c-0.6-2.2-2.5-3.9-5.1-4.9c1.5-1.3,2.5-3.2,2.5-5.4c0-3.8-3-6.9-6.8-6.9s-6.8,3.1-6.8,6.9c0,2.2,1,4.2,2.6,5.5
		c-2.5,0.9-4.4,2.7-4.9,4.8h-0.2v5.8H93v-5.8H92.8z M83.5,21.1c2.4,0,4.3,2,4.3,4.4S85.8,30,83.5,30s-4.3-2-4.3-4.4
		S81.1,21.1,83.5,21.1z M76.7,39.1v-1.9l0-0.1c0.1-2.4,3.2-4.3,6.9-4.3c3.7,0,6.8,1.9,6.9,4.3l0,2H76.7z"/>
	<path d="M75.1,61.8c-0.6-2.2-2.5-3.9-5.1-4.9c1.5-1.3,2.5-3.2,2.5-5.4c0-3.8-3-6.9-6.8-6.9c-3.7,0-6.8,3.1-6.8,6.9
		c0,2.2,1,4.2,2.6,5.5c-2.5,0.9-4.4,2.7-4.9,4.8h-0.2v5.8h18.8v-5.8H75.1z M65.7,47.2c2.4,0,4.3,2,4.3,4.4S68.1,56,65.7,56
		c-2.4,0-4.3-2-4.3-4.4S63.4,47.2,65.7,47.2z M58.9,65.2v-1.9l0-0.1c0.1-2.4,3.2-4.3,6.9-4.3c3.7,0,6.8,1.9,6.9,4.3l0,2H58.9z"/>
	<path d="M52.5,64.1c-0.2,0-0.5-0.1-0.7-0.2c-6.2-3.8-10.7-10-12.3-17c-0.2-0.7,0.3-1.5,1-1.7c0.7-0.2,1.5,0.3,1.7,1
		c1.4,6.3,5.4,11.9,11,15.2c0.7,0.4,0.9,1.2,0.5,1.9C53.5,63.9,53,64.1,52.5,64.1z"/>
	<path d="M78.4,64.4c-0.5,0-0.9-0.2-1.2-0.7c-0.4-0.7-0.2-1.5,0.5-1.9c2.8-1.6,5.3-3.8,7.3-6.4c2.1-2.8,3.5-5.9,4.3-9.3
		c0.2-0.7,0.9-1.2,1.7-1.1c0.7,0.2,1.2,0.9,1.1,1.7c-0.8,3.8-2.4,7.3-4.8,10.3c-2.2,2.9-4.9,5.3-8.1,7.1
		C78.9,64.4,78.6,64.4,78.4,64.4z"/>
	<path d="M54.4,19.5c-0.5,0-1-0.3-1.2-0.8c-0.3-0.7-0.1-1.5,0.6-1.9c3.7-1.8,7.7-2.8,11.9-2.8c4.1,0,8.1,0.9,11.7,2.7
		c0.7,0.3,1,1.2,0.6,1.9c-0.3,0.7-1.2,1-1.9,0.6c-3.3-1.6-6.8-2.4-10.5-2.4c-3.8,0-7.3,0.8-10.7,2.5C54.9,19.4,54.6,19.5,54.4,19.5z
		"/>
</g>
</svg>
