<?xml version="1.0" encoding="utf-8"?>
<!-- Generator: Adobe Illustrator 24.0.2, SVG Export Plug-In . SVG Version: 6.00 Build 0)  -->
<svg version="1.1" id="Layer_1" xmlns="http://www.w3.org/2000/svg" xmlns:xlink="http://www.w3.org/1999/xlink" x="0px" y="0px"
	 viewBox="0 0 24 24" style="enable-background:new 0 0 24 24;" xml:space="preserve">
<style type="text/css">
	.st0{fill-rule:evenodd;clip-rule:evenodd;}
</style>
<path class="st0" d="M20.1,3.9c0.3,0.3,0.3,0.7,0,1c0,0,0,0,0,0L4.9,20.1c-0.3,0.3-0.7,0.3-1,0c-0.3-0.3-0.3-0.7,0-1L19.1,3.9
	C19.4,3.6,19.8,3.6,20.1,3.9C20.1,3.9,20.1,3.9,20.1,3.9z"/>
<path class="st0" d="M3.9,3.9c-0.3,0.3-0.3,0.7,0,1c0,0,0,0,0,0l15.2,15.2c0.3,0.3,0.7,0.3,1,0c0.3-0.3,0.3-0.7,0-1L4.9,3.9
	C4.6,3.6,4.2,3.6,3.9,3.9C3.9,3.9,3.9,3.9,3.9,3.9z"/>
</svg>
