<?xml version="1.0" encoding="utf-8"?>
<!-- Generator: Adobe Illustrator 24.0.2, SVG Export Plug-In . SVG Version: 6.00 Build 0)  -->
<svg version="1.1" id="Layer_1" xmlns="http://www.w3.org/2000/svg" xmlns:xlink="http://www.w3.org/1999/xlink" x="0px" y="0px"
	 viewBox="0 0 70 70" style="enable-background:new 0 0 70 70;" xml:space="preserve">
<style type="text/css">
	.st0{fill:#333333;}
</style>
<g>
	<path class="st0" d="M50.7,68.2H19.3c-0.6,0-1.1-0.5-1.1-1.1s0.5-1.1,1.1-1.1h31.4c0.6,0,1.1,0.5,1.1,1.1S51.3,68.2,50.7,68.2z"/>
	<rect x="20.5" y="60" transform="matrix(0.3484 -0.9374 0.9374 0.3484 -40.195 64.4844)" class="st0" width="11.6" height="2.2"/>
	
		<rect x="42.6" y="55.3" transform="matrix(0.9373 -0.3486 0.3486 0.9373 -18.5739 19.0737)" class="st0" width="2.2" height="11.6"/>
	<path class="st0" d="M58.5,44.2H11.5c-1.9,0-3.4-1.5-3.4-3.4V5.2c0-1.9,1.5-3.4,3.4-3.4h46.9c1.9,0,3.4,1.5,3.4,3.4v35.6
		C61.8,42.7,60.3,44.2,58.5,44.2z M11.5,4.1c-0.6,0-1.1,0.5-1.1,1.1v35.6c0,0.6,0.5,1.1,1.1,1.1h46.9c0.6,0,1.1-0.5,1.1-1.1V5.2
		c0-0.6-0.5-1.1-1.1-1.1H11.5z"/>
	<path class="st0" d="M65.9,56.8H4.1c-2.1,0-3.7-1.7-3.7-3.7V10.4c0-2.1,1.7-3.7,3.7-3.7h0.6c0.6,0,1.1,0.5,1.1,1.1S5.3,8.9,4.7,8.9
		H4.1c-0.8,0-1.5,0.7-1.5,1.5v42.7c0,0.8,0.7,1.5,1.5,1.5h61.9c0.8,0,1.5-0.7,1.5-1.5V10.4c0-0.8-0.7-1.5-1.5-1.5h-0.7
		c-0.6,0-1.1-0.5-1.1-1.1s0.5-1.1,1.1-1.1h0.7c2.1,0,3.7,1.7,3.7,3.7v42.7C69.7,55.2,68,56.8,65.9,56.8z"/>
	<path class="st0" d="M59.7,12.4H10c-0.4,0-0.8-0.3-0.8-0.8s0.3-0.8,0.8-0.8h49.7c0.4,0,0.8,0.3,0.8,0.8S60.1,12.4,59.7,12.4z"/>
	<circle class="st0" cx="15.3" cy="7.3" r="1.3"/>
	<circle class="st0" cx="20.1" cy="7.3" r="1.3"/>
	<circle class="st0" cx="24.9" cy="7.3" r="1.3"/>
	<path class="st0" d="M68.6,49.1H1.4c-0.4,0-0.8-0.3-0.8-0.8s0.3-0.8,0.8-0.8h67.1c0.4,0,0.8,0.3,0.8,0.8S69,49.1,68.6,49.1z"/>
	<rect x="14.9" y="26.1" class="st0" width="5.2" height="2.2"/>
	<rect x="23.2" y="26.1" class="st0" width="31.8" height="2.2"/>
	<rect x="41.1" y="30.5" class="st0" width="13.9" height="2.2"/>
	<rect x="14.9" y="30.5" class="st0" width="24" height="2.2"/>
	<circle class="st0" cx="35" cy="51.4" r="1.3"/>
	<rect x="14.9" y="18.3" class="st0" width="15.7" height="3.5"/>
</g>
</svg>
