<?xml version="1.0" encoding="utf-8"?>
<!-- Generator: Adobe Illustrator 24.0.2, SVG Export Plug-In . SVG Version: 6.00 Build 0)  -->
<svg version="1.1" id="Layer_1" xmlns="http://www.w3.org/2000/svg" xmlns:xlink="http://www.w3.org/1999/xlink" x="0px" y="0px"
	 viewBox="0 0 60 60" style="enable-background:new 0 0 60 60;" xml:space="preserve">
<style type="text/css">
	.st0{fill:#333333;}
</style>
<g>
	<path class="st0" d="M18.6,32.6H6.9v23.6c0,0.3,0.3,0.6,0.6,0.6s0.6-0.3,0.6-0.6V33.9h10.4c0.3,0,0.6-0.3,0.6-0.6
		S18.9,32.6,18.6,32.6z"/>
	<path class="st0" d="M45.9,40.3c-0.3,0-0.6,0.3-0.6,0.6s0.3,0.6,0.6,0.6h5.9v14.9c0,0.3,0.3,0.6,0.6,0.6s0.6-0.3,0.6-0.6V40.3H45.9
		z"/>
	<path class="st0" d="M39.5,11.8H37V8h-4.3V3.6c0-0.3-0.3-0.6-0.6-0.6s-0.6,0.3-0.6,0.6V8h-3.6c-0.3,0-0.6,0.3-0.6,0.6
		s0.3,0.6,0.6,0.6h7.9v2.5h-11V17h-3.3v39.4c0,0.3,0.3,0.6,0.6,0.6s0.6-0.3,0.6-0.6V18.3h18.8v38.1c0,0.3,0.3,0.6,0.6,0.6
		s0.6-0.3,0.6-0.6V17h-3.3V11.8z M26,13h12.3v4H26V13z"/>
	<rect x="26.7" y="22.8" class="st0" width="10.8" height="1.3"/>
	<rect x="26.7" y="27.8" class="st0" width="10.8" height="1.3"/>
	<rect x="26.7" y="33" class="st0" width="10.8" height="1.3"/>
	<rect x="26.7" y="38.3" class="st0" width="10.8" height="1.3"/>
	<rect x="26.7" y="44" class="st0" width="10.8" height="1.3"/>
	<rect x="26.7" y="49.5" class="st0" width="10.8" height="1.3"/>
	<rect x="26.7" y="54.8" class="st0" width="10.8" height="1.3"/>
	<path class="st0" d="M12.9,38.3c-0.3,0-0.6,0.3-0.6,0.6v2.8c0,0.3,0.3,0.6,0.6,0.6s0.6-0.3,0.6-0.6v-2.8
		C13.6,38.5,13.3,38.3,12.9,38.3z"/>
	<path class="st0" d="M17.4,38.3c-0.3,0-0.6,0.3-0.6,0.6v2.8c0,0.3,0.3,0.6,0.6,0.6s0.6-0.3,0.6-0.6v-2.8
		C18.1,38.5,17.8,38.3,17.4,38.3z"/>
	<path class="st0" d="M12.9,45.5c-0.3,0-0.6,0.3-0.6,0.6v2.8c0,0.3,0.3,0.6,0.6,0.6s0.6-0.3,0.6-0.6v-2.8
		C13.6,45.8,13.3,45.5,12.9,45.5z"/>
	<path class="st0" d="M17.4,45.5c-0.3,0-0.6,0.3-0.6,0.6v2.8c0,0.3,0.3,0.6,0.6,0.6s0.6-0.3,0.6-0.6v-2.8
		C18.1,45.8,17.8,45.5,17.4,45.5z"/>
	<path class="st0" d="M12.9,53c-0.3,0-0.6,0.3-0.6,0.6v2.8c0,0.3,0.3,0.6,0.6,0.6s0.6-0.3,0.6-0.6v-2.8C13.6,53.3,13.3,53,12.9,53z"
		/>
	<path class="st0" d="M17.4,53c-0.3,0-0.6,0.3-0.6,0.6v2.8c0,0.3,0.3,0.6,0.6,0.6s0.6-0.3,0.6-0.6v-2.8C18.1,53.3,17.8,53,17.4,53z"
		/>
	<path class="st0" d="M46.9,45.5c-0.3,0-0.6,0.3-0.6,0.6v2.8c0,0.3,0.3,0.6,0.6,0.6s0.6-0.3,0.6-0.6v-2.8
		C47.6,45.8,47.3,45.5,46.9,45.5z"/>
	<path class="st0" d="M46.9,53c-0.3,0-0.6,0.3-0.6,0.6v2.8c0,0.3,0.3,0.6,0.6,0.6s0.6-0.3,0.6-0.6v-2.8C47.6,53.3,47.3,53,46.9,53z"
		/>
</g>
</svg>
