<?xml version="1.0" encoding="utf-8"?>
<!-- Generator: Adobe Illustrator 24.0.2, SVG Export Plug-In . SVG Version: 6.00 Build 0)  -->
<svg version="1.1" id="Layer_1" xmlns="http://www.w3.org/2000/svg" xmlns:xlink="http://www.w3.org/1999/xlink" x="0px" y="0px"
	 viewBox="0 0 70 70" style="enable-background:new 0 0 70 70;" xml:space="preserve">
<style type="text/css">
	.st0{fill:#333333;}
</style>
<g>
	<path class="st0" d="M47.4,69.2H23.5c-2.1,0-4-1.2-4.9-3.1l-5.3-11.5h43.3l-4.2,11.1C51.6,67.8,49.6,69.2,47.4,69.2z M16.8,56.9
		l3.8,8.3c0.5,1.1,1.6,1.8,2.8,1.8h23.9c1.3,0,2.5-0.8,2.9-2l3-8.1H16.8z"/>
	<g>
		<circle class="st0" cx="35" cy="61" r="1.6"/>
		<path class="st0" d="M35,63.8c-1.5,0-2.8-1.2-2.8-2.8s1.2-2.8,2.8-2.8c1.5,0,2.8,1.2,2.8,2.8S36.5,63.8,35,63.8z M35,60.5
			c-0.3,0-0.5,0.2-0.5,0.5s0.2,0.5,0.5,0.5c0.3,0,0.5-0.2,0.5-0.5S35.3,60.5,35,60.5z"/>
	</g>
	<path class="st0" d="M56.8,56.9H13.2c-3.5,0-6.4-2.9-6.4-6.4V17.4c0-0.6,0.5-1.1,1.1-1.1s1.1,0.5,1.1,1.1v33.1
		c0,2.3,1.8,4.1,4.1,4.1h43.5c2.3,0,4.1-1.8,4.1-4.1V7.1C60.9,4.9,59,3,56.8,3H13.2C11,3,9.1,4.9,9.1,7.1v2.8C9.1,10.5,8.6,11,8,11
		s-1.1-0.5-1.1-1.1V7.1c0-3.5,2.9-6.4,6.4-6.4h43.5c3.5,0,6.4,2.9,6.4,6.4v43.4C63.1,54,60.3,56.9,56.8,56.9z"/>
	<path class="st0" d="M18.8,22.7h-2.3c-0.5,0-0.9-0.4-0.9-0.9v-5.2c0-0.5,0.4-0.9,0.9-0.9h2.3c0.5,0,0.9,0.4,0.9,0.9v5.2
		C19.7,22.4,19.3,22.7,18.8,22.7z"/>
	<path class="st0" d="M25.6,22.7h-2.3c-0.5,0-0.9-0.4-0.9-0.9v-5.2c0-0.5,0.4-0.9,0.9-0.9h2.3c0.5,0,0.9,0.4,0.9,0.9v5.2
		C26.5,22.4,26.1,22.7,25.6,22.7z"/>
	<path class="st0" d="M32.5,22.7h-2.3c-0.5,0-0.9-0.4-0.9-0.9v-5.2c0-0.5,0.4-0.9,0.9-0.9h2.3c0.5,0,0.9,0.4,0.9,0.9v5.2
		C33.3,22.4,32.9,22.7,32.5,22.7z"/>
	<path class="st0" d="M39.3,22.7H37c-0.5,0-0.9-0.4-0.9-0.9v-5.2c0-0.5,0.4-0.9,0.9-0.9h2.3c0.5,0,0.9,0.4,0.9,0.9v5.2
		C40.1,22.4,39.7,22.7,39.3,22.7z"/>
	<path class="st0" d="M46.1,22.7h-2.3c-0.5,0-0.9-0.4-0.9-0.9v-5.2c0-0.5,0.4-0.9,0.9-0.9h2.3c0.5,0,0.9,0.4,0.9,0.9v5.2
		C46.9,22.4,46.6,22.7,46.1,22.7z"/>
	<path class="st0" d="M52.9,22.7h-2.3c-0.5,0-0.9-0.4-0.9-0.9v-5.2c0-0.5,0.4-0.9,0.9-0.9h2.3c0.5,0,0.9,0.4,0.9,0.9v5.2
		C53.8,22.4,53.4,22.7,52.9,22.7z"/>
	<rect x="18.2" y="34.3" class="st0" width="33.5" height="4"/>
</g>
</svg>
