<?xml version="1.0" encoding="utf-8"?>
<!-- Generator: Adobe Illustrator 24.0.2, SVG Export Plug-In . SVG Version: 6.00 Build 0)  -->
<svg version="1.1" id="Layer_1" xmlns="http://www.w3.org/2000/svg" xmlns:xlink="http://www.w3.org/1999/xlink" x="0px" y="0px"
	 viewBox="0 0 70 70" style="enable-background:new 0 0 70 70;" xml:space="preserve">
<style type="text/css">
	.st0{fill:#333333;}
</style>
<g>
	<path class="st0" d="M35,68.9C16.3,68.9,1.1,53.7,1.1,35C1.1,16.3,16.3,1.1,35,1.1c18.7,0,33.9,15.2,33.9,33.9
		C68.9,53.7,53.7,68.9,35,68.9z M35,3.4C17.6,3.4,3.4,17.6,3.4,35c0,17.4,14.2,31.6,31.6,31.6S66.6,52.4,66.6,35
		C66.6,17.6,52.4,3.4,35,3.4z"/>
	<path class="st0" d="M23.6,28.8c-0.6,0-1.1-0.5-1.1-1.1c0-1.5-1.2-2.8-2.8-2.8S17,26.1,17,27.7c0,0.6-0.5,1.1-1.1,1.1
		s-1.1-0.5-1.1-1.1c0-2.8,2.3-5,5-5s5,2.3,5,5C24.8,28.3,24.3,28.8,23.6,28.8z"/>
	<path class="st0" d="M53.7,28.8c-0.6,0-1.1-0.5-1.1-1.1c0-1.5-1.2-2.8-2.8-2.8S47,26.1,47,27.7c0,0.6-0.5,1.1-1.1,1.1
		s-1.1-0.5-1.1-1.1c0-2.8,2.3-5,5-5s5,2.3,5,5C54.8,28.3,54.3,28.8,53.7,28.8z"/>
	<path class="st0" d="M34.7,49.9c-5,0-9.2-2.6-10.6-6.5c-0.2-0.6,0.1-1.2,0.7-1.4c0.6-0.2,1.2,0.1,1.4,0.7c1.1,3,4.5,5,8.5,5
		s7.4-2,8.5-5c0.2-0.6,0.9-0.9,1.4-0.7c0.6,0.2,0.9,0.8,0.7,1.4C43.9,47.3,39.6,49.9,34.7,49.9z"/>
	<path class="st0" d="M14.6,46.7c-2.7,0-4.9-2.2-4.9-4.9s2.2-4.9,4.9-4.9c2.7,0,4.9,2.2,4.9,4.9S17.3,46.7,14.6,46.7z M14.6,39.2
		c-1.5,0-2.6,1.2-2.6,2.6s1.2,2.6,2.6,2.6s2.6-1.2,2.6-2.6S16.1,39.2,14.6,39.2z"/>
	<path class="st0" d="M54.9,46.7c-2.7,0-4.9-2.2-4.9-4.9s2.2-4.9,4.9-4.9c2.7,0,4.9,2.2,4.9,4.9S57.6,46.7,54.9,46.7z M54.9,39.2
		c-1.5,0-2.6,1.2-2.6,2.6s1.2,2.6,2.6,2.6s2.6-1.2,2.6-2.6S56.4,39.2,54.9,39.2z"/>
</g>
</svg>
