<?xml version="1.0" encoding="utf-8"?>
<!-- Generator: Adobe Illustrator 24.0.2, SVG Export Plug-In . SVG Version: 6.00 Build 0)  -->
<svg version="1.1" id="Layer_1" xmlns="http://www.w3.org/2000/svg" xmlns:xlink="http://www.w3.org/1999/xlink" x="0px" y="0px"
	 viewBox="0 0 70 70" style="enable-background:new 0 0 70 70;" xml:space="preserve">
<style type="text/css">
	.st0{fill:#333333;}
</style>
<g>
	<path class="st0" d="M59.7,66c-0.8,0-1.6-0.3-2.2-0.9l-20-20c-0.6,0.1-1.3,0.2-1.9,0.2c-5.7,0-10.3-4.6-10.3-10.3
		c0-1,0.1-2,0.4-2.9c0.1-0.4,0.4-0.6,0.7-0.7c0.4-0.1,0.7,0,1,0.3l3.4,3.4c0.3,0.3,0.9,0.3,1.2,0l4.2-4.2c0.2-0.2,0.2-0.4,0.2-0.6
		c0-0.2-0.1-0.4-0.2-0.6l-3-3c-0.3-0.3-0.4-0.7-0.3-1c0.1-0.4,0.4-0.6,0.8-0.7c0.7-0.1,1.3-0.2,1.9-0.2C41.3,24.7,46,29.3,46,35
		c0,0.4,0,0.9-0.1,1.3l20.2,20.2c1.2,1.2,1.2,3.3,0,4.5L62,65.1C61.4,65.7,60.6,66,59.7,66z M37.9,43c0.3,0,0.5,0.1,0.7,0.3L59,63.6
		c0.4,0.4,1.1,0.4,1.6,0l4.1-4.1c0.4-0.4,0.4-1.1,0-1.6L44,37.4c-0.2-0.2-0.3-0.6-0.3-0.9c0.1-0.5,0.1-1,0.1-1.5
		c0-4.3-3.3-7.9-7.6-8.2l1.4,1.4c0.5,0.5,0.9,1.3,0.9,2.1c0,0.8-0.3,1.5-0.9,2.1l-4.2,4.2c-1.1,1.1-3,1.1-4.1,0l-2-2
		c0,0.2,0,0.3,0,0.5c0,4.6,3.7,8.3,8.3,8.3c0.6,0,1.3-0.1,2-0.3C37.7,43,37.8,43,37.9,43z"/>
	<path class="st0" d="M60.2,61.3c-1.4,0-2.6-1.1-2.6-2.6c0-1.4,1.1-2.6,2.6-2.6s2.6,1.1,2.6,2.6C62.7,60.2,61.6,61.3,60.2,61.3z
		 M60.2,57.6c-0.6,0-1.2,0.5-1.2,1.2c0,0.6,0.5,1.2,1.2,1.2s1.2-0.5,1.2-1.2C61.3,58.1,60.8,57.6,60.2,57.6z"/>
	<path class="st0" d="M34.5,52.4c-9.6,0-17.4-7.8-17.4-17.4s7.8-17.4,17.4-17.4S51.9,25.4,51.9,35c0,0.6,0,1.1-0.1,1.7
		c-0.1,0.6-0.6,1-1.1,0.9c-0.6-0.1-1-0.6-0.9-1.1c0-0.5,0.1-1,0.1-1.5c0-8.4-6.9-15.3-15.3-15.3S19.2,26.6,19.2,35
		s6.9,15.3,15.3,15.3c1.6,0,3.2-0.2,4.7-0.7c0.5-0.2,1.1,0.1,1.3,0.7c0.2,0.5-0.1,1.1-0.7,1.3C38.1,52.1,36.3,52.4,34.5,52.4z"/>
	<path class="st0" d="M38.2,66.5h-7.4c-1.4,0-2.5-1.1-2.5-2.5v-3.9c-2.5-0.6-4.8-1.6-7-3l-2.8,2.8c-1,1-2.6,1-3.6,0l-5.3-5.3
		c-0.5-0.5-0.7-1.1-0.7-1.8c0-0.7,0.3-1.3,0.7-1.8l2.8-2.8c-1.3-2.2-2.3-4.6-3-7H4.8c-1,0-1.8-0.8-1.8-1.8v-8.9c0-1,0.8-1.8,1.8-1.8
		h4.5c0.6-2.6,1.6-5,2.9-7.3l-3-3c-0.3-0.3-0.5-0.8-0.5-1.3c0-0.5,0.2-0.9,0.5-1.3l6.3-6.3c0.7-0.7,1.8-0.7,2.5,0l2.9,2.9
		c2.3-1.5,4.8-2.6,7.5-3.3V6c0-1.4,1.1-2.5,2.5-2.5h7.4c1.4,0,2.5,1.1,2.5,2.5v3c2.8,0.6,5.4,1.7,7.8,3.2l2.1-2.1c1-1,2.6-1,3.6,0
		l5.3,5.3c0.5,0.5,0.7,1.1,0.7,1.8c0,0.7-0.3,1.3-0.7,1.8L57.4,21c1.5,2.4,2.5,5,3.2,7.8h3c1.4,0,2.5,1.1,2.5,2.5v7.4
		c0,1.4-1.1,2.5-2.5,2.5h-3.2c-0.3,1.1-0.7,2.2-1.1,3.3c-0.2,0.5-0.8,0.8-1.4,0.6c-0.5-0.2-0.8-0.8-0.6-1.4c0.5-1.2,0.9-2.5,1.2-3.8
		l0.2-0.8h4.8c0.2,0,0.4-0.2,0.4-0.4v-7.4c0-0.2-0.2-0.4-0.4-0.4h-4.7L58.7,30c-0.6-3.1-1.8-6-3.5-8.6l-0.5-0.7l3.2-3.2
		c0.1-0.1,0.1-0.2,0.1-0.3c0-0.1,0-0.2-0.1-0.3l-5.3-5.3c-0.1-0.1-0.2-0.1-0.3-0.1c-0.1,0-0.2,0-0.3,0.1l-3.2,3.2l-0.7-0.5
		c-2.6-1.7-5.5-2.9-8.6-3.5l-0.8-0.2V6c0-0.2-0.2-0.4-0.4-0.4h-7.4c-0.2,0-0.4,0.2-0.4,0.4v4.8L29.5,11c-3,0.7-5.8,1.9-8.3,3.6
		l-0.7,0.5l-3.9-3.9l-5.9,5.9l4,4l-0.4,0.7c-1.6,2.5-2.7,5.3-3.2,8.2l-0.2,0.8H5.1v8.3h6l0.2,0.8c0.6,2.8,1.8,5.5,3.3,7.9l0.5,0.7
		l-4,4c-0.1,0.1-0.1,0.2-0.1,0.3c0,0.1,0,0.2,0.1,0.3l5.3,5.3c0.1,0.1,0.2,0.1,0.3,0.1s0.2,0,0.3-0.1l4-4l0.7,0.5
		c2.4,1.6,5.1,2.7,7.9,3.3l0.8,0.2V64c0,0.2,0.2,0.4,0.4,0.4h7.4c0.2,0,0.4-0.2,0.4-0.4v-5.4l0.8-0.2c2.1-0.4,4.2-1.1,6.2-2.1
		c0.5-0.3,1.1,0,1.4,0.5c0.3,0.5,0,1.1-0.5,1.4c-1.9,0.9-3.8,1.6-5.9,2.1V64C40.8,65.4,39.6,66.5,38.2,66.5z"/>
	<path class="st0" d="M34.5,52.4c-9.6,0-17.4-7.8-17.4-17.4s7.8-17.4,17.4-17.4S51.9,25.4,51.9,35c0,0.6,0,1.1-0.1,1.7
		c-0.1,0.6-0.6,1-1.1,0.9c-0.6-0.1-1-0.6-0.9-1.1c0-0.5,0.1-1,0.1-1.5c0-8.4-6.9-15.3-15.3-15.3S19.2,26.6,19.2,35
		s6.9,15.3,15.3,15.3c1.6,0,3.2-0.2,4.7-0.7c0.5-0.2,1.1,0.1,1.3,0.7c0.2,0.5-0.1,1.1-0.7,1.3C38.1,52.1,36.3,52.4,34.5,52.4z"/>
</g>
</svg>
