<?xml version="1.0" encoding="utf-8"?>
<!-- Generator: Adobe Illustrator 24.0.2, SVG Export Plug-In . SVG Version: 6.00 Build 0)  -->
<svg version="1.1" id="Layer_1" xmlns="http://www.w3.org/2000/svg" xmlns:xlink="http://www.w3.org/1999/xlink" x="0px" y="0px"
	 viewBox="0 0 60 60" style="enable-background:new 0 0 60 60;" xml:space="preserve">
<style type="text/css">
	.st0{fill:#333333;}
</style>
<g>
	<path class="st0" d="M55.1,15.3c0-0.3-0.2-0.5-0.4-0.7L30.3,3.9c-0.2-0.1-0.4-0.1-0.6,0L5.9,15c-0.1,0-0.2-0.1-0.3-0.1
		c-0.4,0-0.7,0.3-0.7,0.7v28.7c0,0.3,0.2,0.5,0.4,0.7l24.4,11c0,0,0,0,0.1,0c0,0,0,0,0.1,0c0.1,0,0.1,0,0.2,0c0,0,0,0,0,0
		c0.1,0,0.1,0,0.2,0c0,0,0,0,0.1,0c0,0,0,0,0.1,0l24.4-11c0.3-0.1,0.4-0.4,0.4-0.7V15.6c0-0.1,0-0.1,0-0.2
		C55.1,15.4,55.1,15.4,55.1,15.3z M30,5.4l22.6,9.9l-6.5,2.9L23.3,8.5L30,5.4z M45.5,26.5l-4.6,2v-6.2c0,0,0,0,0-0.1l4.6-2.1
		L45.5,26.5z M21.5,9.3l22.8,9.8l-4.8,2.2l-22-10.1L21.5,9.3z M15.9,12L37.8,22L30,25.6L7.4,15.9L15.9,12z M6.4,17l22.9,9.8v27.4
		L6.4,43.9V17z M30.7,54.3V26.8l8.7-3.9v6.7c0,0.2,0.1,0.5,0.3,0.6c0.1,0.1,0.3,0.1,0.4,0.1c0.1,0,0.2,0,0.3-0.1l6.1-2.6
		c0.3-0.1,0.4-0.4,0.4-0.7l-0.1-7.4l6.8-3.1v27.4L30.7,54.3z"/>
	<path class="st0" d="M24.8,39.3c-0.4,0-0.7,0.3-0.7,0.7v7.3c0,0.4,0.3,0.7,0.7,0.7s0.7-0.3,0.7-0.7V40
		C25.5,39.6,25.2,39.3,24.8,39.3z"/>
	<path class="st0" d="M20.4,37.3c-0.4,0-0.7,0.3-0.7,0.7v7.3c0,0.4,0.3,0.7,0.7,0.7s0.7-0.3,0.7-0.7V38
		C21.1,37.6,20.8,37.3,20.4,37.3z"/>
</g>
</svg>
