<?xml version="1.0" encoding="utf-8"?>
<!-- Generator: Adobe Illustrator 24.0.2, SVG Export Plug-In . SVG Version: 6.00 Build 0)  -->
<svg version="1.1" id="Layer_1" xmlns="http://www.w3.org/2000/svg" xmlns:xlink="http://www.w3.org/1999/xlink" x="0px" y="0px"
	 viewBox="0 0 70 70" style="enable-background:new 0 0 70 70;" xml:space="preserve">
<style type="text/css">
	.st0{fill:#333333;}
</style>
<path class="st0" d="M68.4,63.8h-3.7v-6.8c0-2.3-1.9-4.1-4.1-4.1h-9.7c-0.6,0-1.1,0.5-1.1,1.1s0.5,1.1,1.1,1.1h9.7
	c1,0,1.9,0.8,1.9,1.9v6.8H46V35c0-2.3-1.9-4.1-4.1-4.1H28.1c-2.3,0-4.1,1.9-4.1,4.1v28.8H8.1V45.9c0-1,0.8-1.9,1.9-1.9h9.4
	c0.6,0,1.1-0.5,1.1-1.1s-0.5-1.1-1.1-1.1H10c-2.3,0-4.1,1.9-4.1,4.1v17.8H1.6c-0.6,0-1.1,0.5-1.1,1.1S1,66,1.6,66H7h18.1H27h17h0.9
	h18.7h4.9c0.6,0,1.1-0.5,1.1-1.1S69,63.8,68.4,63.8z M26.2,63.8V35c0-1,0.8-1.9,1.9-1.9h13.8c1,0,1.9,0.8,1.9,1.9v28.8H27H26.2z"/>
<path class="st0" d="M28.3,27.6c-0.2,0-0.5-0.1-0.7-0.2c-0.3-0.3-0.5-0.7-0.4-1.1l1.2-6.9l-5-4.9c-0.3-0.3-0.4-0.7-0.3-1.2
	c0.1-0.4,0.5-0.7,0.9-0.8l7-1L34,5.2c0.2-0.4,0.6-0.6,1-0.6s0.8,0.2,1,0.6l3.1,6.3l7,1c0.4,0.1,0.8,0.4,0.9,0.8
	c0.1,0.4,0,0.9-0.3,1.2l-5,4.9l1.2,6.9c0.1,0.4-0.1,0.8-0.4,1.1c-0.3,0.3-0.8,0.3-1.2,0.1L35,24.2l-6.2,3.3
	C28.6,27.6,28.4,27.6,28.3,27.6z M26.5,14.4l3.8,3.7c0.3,0.3,0.4,0.6,0.3,1l-0.9,5.3l4.7-2.5c0.3-0.2,0.7-0.2,1,0l4.7,2.5l-0.9-5.3
	c-0.1-0.4,0.1-0.7,0.3-1l3.8-3.7l-5.3-0.8c-0.4-0.1-0.7-0.3-0.8-0.6L35,8.3l-2.4,4.8c-0.2,0.3-0.5,0.6-0.8,0.6L26.5,14.4z"/>
</svg>
