<?xml version="1.0" encoding="utf-8"?>
<!-- Generator: Adobe Illustrator 24.0.2, SVG Export Plug-In . SVG Version: 6.00 Build 0)  -->
<svg version="1.1" id="Layer_1" xmlns="http://www.w3.org/2000/svg" xmlns:xlink="http://www.w3.org/1999/xlink" x="0px" y="0px"
	 viewBox="0 0 70 70" style="enable-background:new 0 0 70 70;" xml:space="preserve">
<style type="text/css">
	.st0{fill:#333333;}
</style>
<path class="st0" d="M68.6,43l-9.7-29.9c-0.2-0.5-0.8-0.8-1.3-0.7c-0.5,0.2-0.8,0.8-0.7,1.3l8,24.5l-6.5,1.3c-1.2-2.6-3.9-5.3-6-7.4
	c-2.3-2.3-8.9-8.1-11.3-10.2c0.4-0.3,0.7-0.6,0.9-0.8c0.4-0.4,0.5-1,0.1-1.5c-0.4-0.4-1-0.5-1.5-0.1c-2.6,2.4-7.2,6.3-8.1,6.8
	c-0.9,0.5-4.7,1.3-6.3,0.6c-0.4-0.2-0.5-0.4-0.6-0.6c-0.6-2.3,1.2-6.1,3.2-8c0.5-0.5,1-1.1,1.5-1.7c1.8-2.3,3.8-4.9,8.2-4.9
	c5.8,0,9.2,1.2,10.6,2c1.5,0.7,4.3,1.4,4.4,1.5c0.6,0.1,1.1-0.2,1.3-0.8c0.1-0.6-0.2-1.1-0.8-1.3c0,0-2.7-0.7-4-1.3
	c-1.6-0.8-5.3-2.2-11.6-2.2c-5.4,0-8,3.3-9.9,5.7c-0.5,0.6-0.9,1.1-1.3,1.5c-0.3,0.3-0.5,0.6-0.8,0.9c-1.8,1.3-8.9,1.7-13.8,1.6
	l1-2.8c0.2-0.5-0.1-1.1-0.6-1.3c-0.5-0.2-1.1,0.1-1.3,0.6L1.4,45.8c-0.2,0.5,0.1,1.1,0.6,1.3c0.1,0,0.2,0.1,0.3,0.1
	c0.4,0,0.8-0.3,1-0.7l8.7-25c0.5,0,1.2,0,2.1,0c2.9,0,7.4-0.1,10.6-0.9c-1,2.1-1.6,4.4-1.1,6.3c0.2,0.9,0.8,1.5,1.7,2
	c0.8,0.4,1.7,0.5,2.7,0.5c2.2,0,4.7-0.7,5.4-1.1c1-0.5,3.9-3,6.1-4.9c2.2,1.9,9.2,8,11.4,10.3c1.9,1.9,5,5,5.8,7.3c0,0,0,0,0,0
	c0,0,0,0,0,0c0.2,0.5,0.2,1,0.1,1.4c-0.5,2.2-3.4,3.4-5.2,3.4c-1.2-0.3-5.6-5.4-8.9-10c-0.3-0.5-1-0.6-1.5-0.2
	c-0.5,0.3-0.6,1-0.2,1.5c2.5,3.5,6.8,9,9.4,10.5c-0.5,1-2.2,3.7-4.8,3.9c-1.1-0.8-6-4.2-11.3-10.7c-0.4-0.4-1-0.5-1.5-0.1
	c-0.4,0.4-0.5,1-0.1,1.5c3.9,4.7,7.5,7.9,9.7,9.6c0,2.5-1.2,3.4-3,4c-1.3,0.4-3.1-0.2-3.9-0.6l-7.5-8.2c-0.4-0.4-1-0.5-1.5-0.1
	c-0.4,0.4-0.5,1-0.1,1.5l7.6,8.3c0.1,0.1,0.2,0.2,0.3,0.2c0.1,0,0.3,0.1,0.5,0.2c-1.6,1.3-3.2,1.3-5.6,1.3c-2.2,0-5.4-2.3-6.9-3.9
	c-0.6-0.6-1.9-2.3-3.3-4.2c-1.9-2.5-3.8-5-5-6.2c-2.4-2.4-7-1.7-7.2-1.7c-0.6,0.1-0.9,0.6-0.9,1.2c0.1,0.6,0.6,0.9,1.2,0.9
	c1-0.2,4-0.3,5.3,1.1c1.1,1.1,3.1,3.7,4.8,6c1.5,2,2.8,3.7,3.5,4.4c0.2,0.2,4.5,4.5,8.4,4.5c2.8,0,5.3,0,7.7-2.4
	c0.1-0.1,0.2-0.2,0.2-0.3c0.4,0.1,0.8,0.1,1.2,0.1c0.6,0,1.1-0.1,1.6-0.2c1-0.3,3.7-1.2,4.3-4.5c0.2,0.1,0.4,0.2,0.4,0.3
	c0.2,0.1,0.4,0.2,0.6,0.2c4.8,0,7.1-5.3,7.2-5.5c0,0,0-0.1,0-0.1c2.4-0.4,5.5-1.9,6.3-4.9c0.1-0.4,0.1-0.9,0.1-1.3l6.5-1.3l1.1,3.4
	c0.1,0.4,0.6,0.7,1,0.7c0.1,0,0.2,0,0.3-0.1C68.5,44.1,68.8,43.6,68.6,43z"/>
</svg>
