<?xml version="1.0" encoding="utf-8"?>
<!-- Generator: Adobe Illustrator 24.0.2, SVG Export Plug-In . SVG Version: 6.00 Build 0)  -->
<svg version="1.1" id="Layer_1" xmlns="http://www.w3.org/2000/svg" xmlns:xlink="http://www.w3.org/1999/xlink" x="0px" y="0px"
	 viewBox="0 0 60 60" style="enable-background:new 0 0 60 60;" xml:space="preserve">
<style type="text/css">
	.st0{fill:#333333;}
</style>
<g>
	<path class="st0" d="M29.9,32.9c-6.2,0-11.2-5-11.2-11.2s5-11.2,11.2-11.2s11.2,5,11.2,11.2S36.1,32.9,29.9,32.9z M29.9,11.8
		c-5.5,0-9.9,4.4-9.9,9.9s4.4,9.9,9.9,9.9s9.9-4.4,9.9-9.9S35.3,11.8,29.9,11.8z"/>
	<path class="st0" d="M22.7,40c-0.1,0-0.2,0-0.3-0.1c-0.2-0.1-0.4-0.3-0.4-0.5c0,0-0.9-4.5-8.9-7.9c-0.3-0.1-0.5-0.5-0.4-0.8
		c0,0,1.7-4.6-2.1-11.3c-0.1-0.2-0.1-0.4,0-0.6c0.1-0.2,0.3-0.3,0.5-0.4c0,0,3.7-0.8,7.1-11.2c0.1-0.2,0.2-0.3,0.3-0.4
		c0.2-0.1,0.3-0.1,0.5,0l0,0c0.2,0.1,5,1.6,10.1-3.3c0.3-0.2,0.7-0.2,0.9,0c0,0,4.9,4.8,11.1,4.6c0.2,0,0.4,0.1,0.5,0.2
		c0.1,0.1,0.2,0.3,0.2,0.5c0,0-0.6,4.8,5.9,10.5c0.2,0.2,0.3,0.5,0.1,0.8c0,0.1-2.8,5.2-2.6,12.3c0,0.2-0.1,0.4-0.2,0.5
		c-0.1,0.1-0.3,0.2-0.5,0.2c-0.2,0-4.7,0.1-8.7,6.3c-0.2,0.2-0.4,0.4-0.7,0.3c-0.1,0-9-2.3-12.4,0.2C23,40,22.9,40,22.7,40z
		 M14.3,30.6c6.2,2.8,8.2,6.2,8.8,7.8c3.7-1.8,10.4-0.4,12.3,0c3.4-5.1,7.3-6.2,8.9-6.4c-0.1-6,1.8-10.5,2.5-11.9
		c-5.2-4.8-5.9-8.9-5.9-10.6c-5.4-0.1-9.6-3.3-10.9-4.5c-4.5,4-8.8,3.7-10.4,3.3c-2.8,8.1-5.7,10.5-7.1,11.2
		C15.2,25,14.7,29.1,14.3,30.6z"/>
	<path class="st0" d="M18.8,56.7C18.8,56.7,18.7,56.7,18.8,56.7c-0.4,0-0.6-0.2-0.6-0.5l-1.9-8.4l-7.7,3.8c-0.3,0.1-0.6,0.1-0.8-0.1
		c-0.2-0.2-0.3-0.5-0.1-0.8l6.9-14.3c0.2-0.3,0.6-0.5,0.9-0.3c0.3,0.2,0.5,0.6,0.3,0.9l-6,12.5l6.7-3.4c0.2-0.1,0.4-0.1,0.6,0
		c0.2,0.1,0.3,0.3,0.4,0.4l1.7,7.5L24.8,43c0.2-0.3,0.6-0.4,0.9-0.3c0.3,0.2,0.4,0.6,0.3,0.9l-6.6,12.7C19.3,56.5,19,56.7,18.8,56.7
		z"/>
	<path class="st0" d="M41.2,56.7c-0.2,0-0.5-0.1-0.6-0.4L34,43.6c-0.2-0.3,0-0.7,0.3-0.9c0.3-0.2,0.7,0,0.9,0.3L41,54.1l1.7-7.5
		c0-0.2,0.2-0.4,0.4-0.4c0.2-0.1,0.4-0.1,0.6,0l6.7,3.4l-6-12.5c-0.2-0.3,0-0.7,0.3-0.9c0.3-0.2,0.7,0,0.9,0.3l6.9,14.3
		c0.1,0.3,0.1,0.6-0.1,0.8c-0.2,0.2-0.5,0.2-0.8,0.1l-7.7-3.8l-1.9,8.4C41.8,56.4,41.6,56.6,41.2,56.7
		C41.3,56.7,41.2,56.7,41.2,56.7z"/>
	<path class="st0" d="M30.4,27.4c-0.4,0-0.7-0.3-0.7-0.7v-7.2c-1.1,1-2.5,1.6-2.8,1.7c-0.3,0.1-0.7,0-0.9-0.4
		c-0.1-0.3,0-0.7,0.4-0.9c0.8-0.3,3-1.5,3.3-2.7c0.1-0.3,0.4-0.5,0.7-0.5c0.3,0,0.6,0.3,0.6,0.7v9.2C31.1,27.1,30.8,27.4,30.4,27.4z
		"/>
</g>
</svg>
