<?xml version="1.0" encoding="utf-8"?>
<!-- Generator: Adobe Illustrator 24.0.2, SVG Export Plug-In . SVG Version: 6.00 Build 0)  -->
<svg version="1.1" id="Layer_1" xmlns="http://www.w3.org/2000/svg" xmlns:xlink="http://www.w3.org/1999/xlink" x="0px" y="0px"
	 viewBox="0 0 222 34" style="enable-background:new 0 0 222 34;" xml:space="preserve">
<style type="text/css">
	.st0{fill:#009ADE;}
	.st1{fill:#C2D500;}
	.st2{fill:#F1A21F;}
	.st3{fill:#4E4C4C;}
</style>
<g>
	<g>
		<path class="st0" d="M7,20.7l-1.3,5c-0.9,3.5,1.1,7,4.5,7.9l0.7,0.2c1.6,0.4,3.4,0.2,4.8-0.7c1.5-0.9,2.5-2.3,3-3.9l1.3-5
			c0.2-0.9-0.3-1.7-1.1-2c-0.8-0.2-1.7,0.3-1.9,1.1l-1.3,5c-0.2,0.8-0.8,1.5-1.5,2c-0.8,0.4-1.6,0.6-2.4,0.3l-0.7-0.2
			c-1.7-0.5-2.8-2.3-2.3-4l1.3-5c0.2-0.9-0.3-1.7-1.1-2C8.1,19.3,7.3,19.8,7,20.7z"/>
	</g>
	<g>
		<path class="st1" d="M2.5,1.9L2,2.4C-0.5,4.9-0.5,9,2,11.6l3.6,3.6c0.6,0.6,1.6,0.6,2.2,0c0.6-0.6,0.6-1.6,0-2.3L4.2,9.3
			C3,8,3,5.9,4.2,4.7l0.5-0.5c1.3-1.3,3.3-1.3,4.6,0l3.6,3.6c0.6,0.6,1.6,0.6,2.2,0c0.6-0.6,0.6-1.6,0-2.3l-3.6-3.6
			C9.1-0.6,5-0.6,2.5,1.9z"/>
	</g>
	<g>
		<path class="st2" d="M25.4,5.7L20.6,7c-0.8,0.2-1.3,1.1-1.1,2c0.2,0.9,1.1,1.4,1.9,1.1l4.9-1.3c0.8-0.2,1.7-0.1,2.5,0.3
			c0.8,0.4,1.3,1.1,1.5,2l0.2,0.7c0.5,1.7-0.6,3.6-2.3,4l-4.9,1.3c-0.8,0.2-1.3,1.1-1.1,2c0.2,0.9,1.1,1.4,1.9,1.1l4.9-1.3
			c3.4-0.9,5.4-4.5,4.5-7.9l-0.2-0.7c-0.4-1.7-1.5-3.1-3-3.9C28.8,5.5,27.1,5.2,25.4,5.7z"/>
	</g>
	<polygon class="st3" points="221.9,25.3 221.9,25.3 208.3,25.3 208.3,7.5 211.5,7.5 211.5,21.8 221.9,21.8 221.9,25.3 	"/>
	<path class="st3" d="M203.9,8.5c-0.5-0.7-1.2-1-1.9-1h-5.9h-5.9c-0.7,0-1.4,0.3-1.9,1c-0.5,0.7-0.8,1.5-0.8,2.5v14.3h3.1v-7.2h5.5
		h5.5v7.2h3.1V11.1C204.7,10.1,204.4,9.2,203.9,8.5z M201.6,14.7h-5.5h-5.5v-2.9c0-0.2,0.1-0.4,0.2-0.6c0.1-0.2,0.3-0.2,0.4-0.2h4.9
		h4.9c0.2,0,0.3,0.1,0.4,0.2c0.1,0.1,0.2,0.3,0.2,0.6V14.7z"/>
	<path class="st3" d="M183.7,15.5c0.2-0.4,0.3-0.9,0.3-1.4v-3c0-1-0.3-1.8-0.8-2.5c-0.5-0.7-1.2-1-1.9-1h-6.1h-8.8v17.8h8.8h6.1
		c0.7,0,1.4-0.3,1.9-1c0.5-0.7,0.8-1.5,0.8-2.5v-3c0-0.6-0.1-1.1-0.3-1.4c-0.2-0.4-0.4-0.7-0.7-0.9
		C183.3,16.2,183.5,15.9,183.7,15.5z M180.8,21.1c0,0.2-0.1,0.4-0.2,0.5c-0.1,0.1-0.3,0.2-0.4,0.2h-5.1h-5.7v-3.7h5.7h5.1
		c0.2,0,0.3,0.1,0.4,0.2c0.1,0.1,0.2,0.3,0.2,0.5V21.1z M180.8,13.9c0,0.2-0.1,0.4-0.2,0.5c-0.1,0.1-0.3,0.2-0.4,0.2h-5.1h-5.7v-3.7
		h5.7h5.1c0.2,0,0.3,0.1,0.4,0.2c0.1,0.2,0.2,0.3,0.2,0.6V13.9z"/>
	<path class="st3" d="M59.9,25.3L59.9,25.3H45.8c-0.7,0-1.4-0.3-1.9-1c-0.5-0.7-0.8-1.5-0.8-2.5V11.1c0-1,0.3-1.8,0.8-2.5
		c0.5-0.7,1.2-1,1.9-1h14.1v3.4H46.8c-0.2,0-0.3,0.1-0.4,0.2c-0.1,0.2-0.2,0.3-0.2,0.6v9.4c0,0.2,0.1,0.4,0.2,0.5
		c0.1,0.1,0.2,0.2,0.4,0.2h13.1V25.3L59.9,25.3z"/>
	<path class="st3" d="M161.9,8.5c-0.5-0.7-1.2-1-1.9-1h-6.3h-6.3c-0.7,0-1.4,0.3-1.9,1c-0.5,0.7-0.8,1.5-0.8,2.5v10.7
		c0,1,0.3,1.9,0.8,2.5c0.5,0.7,1.2,1,1.9,1h6.3h6.3c0.7,0,1.4-0.3,1.9-1c0.5-0.7,0.8-1.5,0.8-2.5V11.1
		C162.7,10.1,162.4,9.2,161.9,8.5z M159.6,21.1c0,0.2-0.1,0.4-0.2,0.5c-0.1,0.1-0.2,0.2-0.4,0.2h-5.3h-5.3c-0.2,0-0.3-0.1-0.4-0.2
		c-0.1-0.1-0.2-0.3-0.2-0.5v-9.4c0-0.2,0.1-0.4,0.2-0.6c0.1-0.2,0.2-0.2,0.4-0.2h5.3h5.3c0.2,0,0.3,0.1,0.4,0.2
		c0.1,0.2,0.2,0.3,0.2,0.6V21.1z"/>
	<path class="st3" d="M98,21.7L98,21.7c0,1-0.3,1.9-0.8,2.5c-0.5,0.7-1.2,1-1.9,1H84.7c-0.7,0-1.4-0.3-1.9-1
		c-0.5-0.7-0.8-1.5-0.8-2.5V7.5h3.1v13.6c0,0.2,0.1,0.4,0.2,0.5c0.1,0.1,0.2,0.2,0.4,0.2h8.6c0.2,0,0.3-0.1,0.4-0.2
		c0.1-0.1,0.2-0.3,0.2-0.5V7.5H98V21.7L98,21.7z"/>
	<path class="st3" d="M63.2,11.1L63.2,11.1c0-1,0.3-1.8,0.8-2.5c0.5-0.7,1.2-1,1.9-1h10.6c0.7,0,1.4,0.3,1.9,1
		c0.5,0.7,0.8,1.5,0.8,2.5v14.3H76V11.7c0-0.2-0.1-0.4-0.2-0.5C75.7,11,75.6,11,75.4,11h-8.6c-0.2,0-0.3,0.1-0.4,0.2
		c-0.1,0.1-0.2,0.3-0.2,0.5v13.6h-3.1V11.1L63.2,11.1z"/>
	<path class="st3" d="M125,21.7L125,21.7c0,1-0.3,1.9-0.8,2.5c-0.5,0.7-1.2,1-1.9,1H110c-0.7,0-1.4-0.3-1.9-1
		c-0.5-0.7-0.8-1.5-0.8-2.5V11.1c0-1,0.3-1.8,0.8-2.5c0.5-0.7,1.2-1,1.9-1H125v3.4H111c-0.2,0-0.3,0.1-0.4,0.2
		c-0.1,0.2-0.2,0.3-0.2,0.6v9.4c0,0.2,0.1,0.4,0.2,0.5c0.1,0.1,0.2,0.2,0.4,0.2h10.2c0.2,0,0.3-0.1,0.4-0.2c0.1-0.1,0.2-0.3,0.2-0.5
		v-2.9h-7.1v-3.5H125V21.7L125,21.7z"/>
	<polygon class="st3" points="142.2,25.3 142.2,25.3 128.7,25.3 128.7,7.5 131.8,7.5 131.8,21.8 142.2,21.8 	"/>
</g>
</svg>
