<?xml version="1.0" encoding="utf-8"?>
<!-- Generator: Adobe Illustrator 24.0.2, SVG Export Plug-In . SVG Version: 6.00 Build 0)  -->
<svg version="1.1" id="Layer_1" xmlns="http://www.w3.org/2000/svg" xmlns:xlink="http://www.w3.org/1999/xlink" x="0px" y="0px"
	 viewBox="0 0 220 140" style="enable-background:new 0 0 220 140;" xml:space="preserve">
<style type="text/css">
	.st0{fill:#009ADE;}
	.st1{fill:#C2D500;}
	.st2{fill:#F1A21F;}
	.st3{fill:#4E4C4C;}
</style>
<g>
	<g>
		<path class="st0" d="M89.3,47.2l-2.7,10.4C84.7,65,88.8,72.3,96,74.2l1.5,0.4c3.3,0.8,7.1,0.4,10-1.5c3.1-1.9,5.2-4.8,6.3-8.2
			l2.7-10.4c0.4-1.9-0.6-3.6-2.3-4.2c-1.7-0.4-3.6,0.6-4,2.3l-2.7,10.4c-0.4,1.7-1.7,3.1-3.1,4.2c-1.7,0.8-3.3,1.3-5,0.6l-1.5-0.4
			c-3.6-1-5.9-4.8-4.8-8.4l2.7-10.4c0.4-1.9-0.6-3.6-2.3-4.2C91.6,44.3,89.9,45.3,89.3,47.2z"/>
	</g>
	<g>
		<path class="st1" d="M79.9,7.9l-1,1c-5.2,5.2-5.2,13.8,0,19.2l7.5,7.5c1.3,1.3,3.3,1.3,4.6,0s1.3-3.3,0-4.8l-7.5-7.5
			c-2.5-2.7-2.5-7.1,0-9.6l1-1c2.7-2.7,6.9-2.7,9.6,0l7.5,7.5c1.3,1.3,3.3,1.3,4.6,0c1.3-1.3,1.3-3.3,0-4.8l-7.5-7.5
			C93.7,2.7,85.1,2.7,79.9,7.9z"/>
	</g>
	<g>
		<path class="st2" d="M127.7,15.9l-10,2.7c-1.7,0.4-2.7,2.3-2.3,4.2c0.4,1.9,2.3,2.9,4,2.3l10.2-2.7c1.7-0.4,3.6-0.2,5.2,0.6
			c1.7,0.8,2.7,2.3,3.1,4.2l0.4,1.5c1,3.6-1.3,7.5-4.8,8.4l-10.2,2.7c-1.7,0.4-2.7,2.3-2.3,4.2s2.3,2.9,4,2.3l10.2-2.7
			c7.1-1.9,11.3-9.4,9.4-16.5l-0.4-1.5c-0.8-3.6-3.1-6.5-6.3-8.2C134.8,15.4,131.3,14.8,127.7,15.9z"/>
	</g>
</g>
<g>
	<polygon class="st3" points="214.3,135 214.3,135 198.4,135 198.4,114.2 202.2,114.2 202.2,130.9 214.3,130.9 	"/>
	<path class="st3" d="M193.3,115.4c-0.6-0.8-1.4-1.2-2.2-1.2h-6.9h-6.9c-0.8,0-1.6,0.3-2.2,1.2c-0.6,0.8-0.9,1.8-0.9,2.9V135h3.6
		v-8.4h6.4h6.4v8.4h3.6v-16.6C194.2,117.3,193.9,116.2,193.3,115.4z M190.6,122.6h-6.4h-6.4v-3.4c0-0.2,0.1-0.5,0.2-0.7
		c0.1-0.2,0.4-0.2,0.5-0.2h5.7h5.7c0.2,0,0.4,0.1,0.5,0.2c0.1,0.1,0.2,0.3,0.2,0.7L190.6,122.6L190.6,122.6z"/>
	<path class="st3" d="M169.7,123.6c0.2-0.5,0.4-1.1,0.4-1.6v-3.5c0-1.2-0.4-2.1-0.9-2.9c-0.6-0.8-1.4-1.2-2.2-1.2h-7.1h-10.3v20.8
		h10.3h7.1c0.8,0,1.6-0.3,2.2-1.2c0.6-0.8,0.9-1.8,0.9-2.9v-3.5c0-0.7-0.1-1.3-0.4-1.6c-0.2-0.5-0.5-0.8-0.8-1
		C169.3,124.4,169.5,124,169.7,123.6z M166.4,130.1c0,0.2-0.1,0.5-0.2,0.6c-0.1,0.1-0.4,0.2-0.5,0.2h-6h-6.6v-4.3h6.6h6
		c0.2,0,0.4,0.1,0.5,0.2c0.1,0.1,0.2,0.3,0.2,0.6V130.1z M166.4,121.7c0,0.2-0.1,0.5-0.2,0.6c-0.1,0.1-0.4,0.2-0.5,0.2h-6h-6.6v-4.3
		h6.6h6c0.2,0,0.4,0.1,0.5,0.2c0.1,0.2,0.2,0.3,0.2,0.7V121.7z"/>
	<path class="st3" d="M25.3,135L25.3,135H8.9c-0.8,0-1.6-0.3-2.2-1.2c-0.6-0.8-0.9-1.8-0.9-2.9v-12.5c0-1.2,0.3-2.1,0.9-2.9
		s1.4-1.2,2.2-1.2h16.5v4H10c-0.2,0-0.3,0.1-0.5,0.2c-0.1,0.2-0.2,0.3-0.2,0.7v11c0,0.2,0.1,0.5,0.2,0.6c0.1,0.1,0.2,0.2,0.5,0.2
		h15.3V135L25.3,135z"/>
	<path class="st3" d="M144.3,115.4c-0.6-0.8-1.4-1.2-2.2-1.2h-7.4h-7.4c-0.8,0-1.6,0.3-2.2,1.2s-0.9,1.8-0.9,2.9v12.5
		c0,1.2,0.3,2.2,0.9,2.9c0.6,0.8,1.4,1.2,2.2,1.2h7.4h7.4c0.8,0,1.6-0.3,2.2-1.2c0.6-0.8,0.9-1.8,0.9-2.9v-12.4
		C145.2,117.3,144.9,116.2,144.3,115.4z M141.6,130.1c0,0.2-0.1,0.5-0.2,0.6c-0.1,0.1-0.2,0.2-0.5,0.2h-6.2h-6.2
		c-0.2,0-0.4-0.1-0.5-0.2c-0.1-0.1-0.2-0.3-0.2-0.6v-11c0-0.2,0.1-0.5,0.2-0.7c0.1-0.2,0.2-0.2,0.5-0.2h6.2h6.2
		c0.2,0,0.4,0.1,0.5,0.2c0.1,0.2,0.2,0.4,0.2,0.7V130.1z"/>
	<path class="st3" d="M69.8,130.8L69.8,130.8c0,1.2-0.3,2.2-0.9,2.9c-0.6,0.8-1.4,1.2-2.2,1.2H54.2c-0.8,0-1.6-0.3-2.2-1.2
		c-0.6-0.8-0.9-1.8-0.9-2.9v-16.6h3.6v15.9c0,0.2,0.1,0.5,0.2,0.6s0.2,0.2,0.5,0.2h10c0.2,0,0.4-0.1,0.5-0.2
		c0.1-0.1,0.2-0.3,0.2-0.6v-15.9h3.6V130.8L69.8,130.8z"/>
	<path class="st3" d="M29.2,118.4L29.2,118.4c0-1.2,0.4-2.1,0.9-2.9c0.6-0.8,1.4-1.2,2.2-1.2h12.4c0.8,0,1.6,0.3,2.2,1.2
		s0.9,1.8,0.9,2.9v16.7h-3.7v-16c0-0.2-0.1-0.5-0.2-0.6c-0.1-0.2-0.2-0.2-0.5-0.2h-10c-0.2,0-0.4,0.1-0.5,0.2s-0.2,0.3-0.2,0.6V135
		H29v-16.6H29.2z"/>
	<path class="st3" d="M101.3,130.8L101.3,130.8c0,1.2-0.4,2.2-0.9,2.9c-0.6,0.8-1.4,1.2-2.2,1.2H83.8c-0.8,0-1.6-0.3-2.2-1.2
		c-0.6-0.8-0.9-1.8-0.9-2.9v-12.4c0-1.2,0.4-2.1,0.9-2.9c0.6-0.8,1.4-1.2,2.2-1.2h17.5v4H84.9c-0.2,0-0.4,0.1-0.5,0.2
		c-0.1,0.2-0.2,0.3-0.2,0.7v11c0,0.2,0.1,0.5,0.2,0.6c0.1,0.1,0.2,0.2,0.5,0.2h11.9c0.2,0,0.4-0.1,0.5-0.2c0.1-0.1,0.2-0.3,0.2-0.6
		v-3.4h-8.3v-4.1h12V130.8L101.3,130.8z"/>
	<polygon class="st3" points="121.3,135 121.3,135 105.6,135 105.6,114.2 109.2,114.2 109.2,130.9 121.3,130.9 	"/>
</g>
</svg>
