<?xml version="1.0" encoding="utf-8"?>
<!-- Generator: Adobe Illustrator 24.0.2, SVG Export Plug-In . SVG Version: 6.00 Build 0)  -->
<svg version="1.1" id="Layer_1" xmlns="http://www.w3.org/2000/svg" xmlns:xlink="http://www.w3.org/1999/xlink" x="0px" y="0px"
	 viewBox="0 0 960 492" style="enable-background:new 0 0 960 492;" xml:space="preserve">
<style type="text/css">
	.st0{fill:#E6E6E5;}
	.st1{fill:#231916;}
	.st2{font-family:'NotoSansCJKkr-Medium-KSCpc-EUC-H';}
	.st3{font-size:12px;}
	.st4{fill:#0397D6;}
	.st5{opacity:0.2;fill:#231916;enable-background:new    ;}
	.st6{font-size:16px;}
	.st7{display:none;}
	.st8{display:inline;fill:#231916;}
	.st9{display:inline;fill:#0397D6;}
	.st10{display:inline;opacity:0.2;fill:#231916;enable-background:new    ;}
</style>
<g>
	<g>
		<path class="st0" d="M937.8,294.5c0.6-0.2,0.6,0.3,0.9,0.4c-0.2,2.7-1.8,4.4-5.2,4.1c-1.5-0.1-4.2-1.3-4.3-2
			C928.8,294.2,936.1,295.8,937.8,294.5z"/>
		<path class="st0" d="M928.6,307.1c1.3,0.4,7.3,4.6,5.4,6.5c-1,1-2.4-0.6-4.1-0.9c-2.3-0.5-4,0.1-5.6-1.1c-1.8-1.4-2.2-4.4-4.1-6.1
			c-1-0.9-3.5-2-5.2-1.9c-3,0.3-2.9,3.7-5.6,5.2c-2.5-0.3-4,0.5-6-0.2s-3-3.3-4.8-3.5c-1.9-0.3-6.4,3-7.1,0.2
			c-0.6-2.3,3.1-3.1,3.3-4.6c0.2-1.6-1.4-4.1-2.2-4.8c-0.8-0.7-1.9-0.8-2.8-1.3c-0.9-0.6-1.7-1.7-2.8-2.2c-3.9-2-9.8-1.2-11.3-4.5
			c-0.3-0.6,0.1-1.2-0.2-2c-0.4-1-1.9-1.3-2.4-2.2c-1.3-2.3-0.4-5.6,1.9-6c2-0.3,6,2.2,6.5,3.7c0.2,0.8-0.2,1.7,0,2.6
			c0.2,1.1,1.9,3.8,3.3,3.9c1.9,0.2,3.1-2.8,4.8-3.9c1.2-0.8,3.2-1.6,4.8-1.5s2.6,1.4,4.5,2c1.3,0.5,2.9,0.7,4.5,1.1
			c1.3,0.4,2.5,1.2,3.9,1.7c4.4,1.6,9.7,2.5,12.1,5.4c0.7,0.8,0.6,1.9,1.5,2.8c0.8,0.8,5.1,1.6,5.2,3.3c0.1,1.4-1.8,1.4-1.9,2.8
			C924.2,304.2,928,304.1,928.6,307.1z"/>
		<path class="st0" d="M889.4,418.5c-0.6,2.3-2.3,4.9-4.6,6.5c-1.7,1.2-7,3.5-7.6,0.2c-0.2-0.9,1-5.2,1.5-6.1
			c1.3-2.6,2.7-0.9,4.8-0.6C885.6,418.8,887.7,417.2,889.4,418.5z"/>
		<path class="st0" d="M874.9,148.1c0.8,2.2,1.3,4.4,1.9,6.5c-2.1,2.5-6.1,1.6-9.1,3c-1.4,0.6-1.8,3-3.2,3.3c-1.1,0.3-1.9-0.9-3-0.9
			c-2.7,0.1-4,4.5-7.3,3.3c-1.9,1.1,0.1,5.4-2.2,5.8c-1.6,0.3-2.5-1.9-3.5-3.2c-1.2-1.6-2.9-2.4-3-3.7s2.7-3.5,3.5-4.5
			c1.1-1.1,3.1-3.2,4.5-3.5c2.5-0.5,5,0.2,6.9-0.6c1.6-0.7,1.7-3.3,2.6-3.9c0.7-0.5,1.6-0.4,2.2-0.7c1.7-0.9,3.6-4.2,2.6-7.4
			c-0.6-2.1-4.1-4.3-1.9-6.9c3.3,0.4,7.6,3.6,8.2,6.9c0.2,1.3-0.5,2.6-0.4,3.9C873.9,146.3,874.6,147.1,874.9,148.1z"/>
		<path class="st0" d="M875.6,127.8c-0.4,0.9-1.3,0.8-2,1.3c-0.8,0.5-1.7,2.2-2.6,2.4c-1.5,0.3-3.2-1.5-4.7-1.1
			c-1.7,0.4-0.7,1.8-1.3,3.3c-1.5-0.3-4-2-4.1-3.7c0-1.1,1.3-1.7,1.7-3c0.5-2.1-0.9-3.2-1.7-5.2c-0.1-0.3,0.2-0.3,0.2-0.6
			c1.8-0.4,5.4,3,9.5,3.7C873.3,125.5,875.5,125.3,875.6,127.8z"/>
		<path class="st0" d="M868.8,316.6c0.2,1.5-2.5,1.4-2.8,0.4C866,315.7,868.4,315.4,868.8,316.6z"/>
		<path class="st0" d="M855.8,112.2c1.8,1,6.3,3.2,3.2,5.2C857,116.7,855,114.3,855.8,112.2z"/>
		<path class="st0" d="M847.2,308.4c2.1-1.2,4.5-3.7,8.2-2.4c-0.8,2.3-3.6,2.3-5.4,3.3c-1.8,1.1-3.3,2.9-5.6,3.2
			c-0.2-0.3-0.4-0.6-0.7-0.7C843.7,309.7,845.7,309.2,847.2,308.4z"/>
		<path class="st0" d="M842.2,273.4c2.2,0,4.2-0.7,5.8,0.2c-0.3,4.6-7.5,1.1-12.3,1.9c-1,0.2-1.3,0.9-2.4,0.6
			c0.1-1.6,1.8-3.2,3.5-3.3C838.1,272.6,840.2,273.4,842.2,273.4z"/>
		<path class="st0" d="M844,279.2c0.2,2.6-3.3,2.9-4.3,4.8c1.5,2.4,2.1,5.7,3.9,7.8c-0.1,1.4,0.3,3.3-0.6,3.9
			c-3.7,0.7-5.8-6-7.3-8.4c-2.9,0.5-0.2,9.7-4.1,8.6c-1.9-0.6,0-3.2-0.4-5.2c-0.3-1.8-2.1-2.2-2.2-3.5c-0.1-1.1,1.3-2.4,1.7-3.5
			c0.6-1.7,0.2-4.9,2.2-5c1,0,2.3,2.1,3,2.2C838.3,281.4,840.9,278.6,844,279.2z"/>
		<path class="st0" d="M837.2,306.9c-0.7,1.4-4.5,0.7-4.8-0.6C833,304.9,836.8,305.3,837.2,306.9z"/>
		<path class="st0" d="M833.6,311.4c-0.2,0.3-0.5,0.5-0.7,0.7c-1.4-0.5-2.9-0.8-3.3-2.2C830.6,308.4,833.6,309.6,833.6,311.4z"/>
		<path class="st0" d="M828.6,306.7c-0.9,1.3-4.2-0.1-5.4,1.3c-1.9,0-3.9-0.1-4.3-1.7c0.6-1.4,2.3-0.4,3.7-0.6
			C824.9,305.6,828,304,828.6,306.7z"/>
		<path class="st0" d="M802.4,377.9c0-1.6-1-3.1-1.3-4.8c-0.1-0.6,0.1-1.4,0-2.2c-0.1-1.2-0.7-2.1-0.6-2.8c0.3-1.2,1.7-1.4,2.1-2.4
			c0.6-1.7-0.7-2-0.7-4.1c0-1.5,1.1-2.2,1.9-4.1c0.3-0.9,0.4-2.5,0.7-3.2c0.5-0.8,2.5-1.5,3.3-1.9c2.9-1.4,5.1-4,8-4.5
			c0.7-0.1,1.7,0.1,2.2,0c1.7-0.3,3.8-1.7,6.1-2.2s4.3-0.3,5.9-1.3c1.9-1.1,4.5-3.9,5.2-5.6c0.8-2,0.6-3.8,2.2-4.5
			c0.8-0.3,1.6,0,2.4-0.2c0.9-0.2,2.7-1.1,3.3-1.7c1.3-1.2,1.5-3.1,3-4.3c1-0.8,2.9-2.1,4.3-2.8c0.8-0.4,2.3-0.8,3-0.7
			c2.6,0.2,3.8,3.9,6.7,3.2c1-0.3,2.1-2.4,3-3.7c1.3-1.9,2.3-4.5,4.6-5c1.9-0.5,4,0.7,5-0.9c0.2-1.2-0.9-1.9,0-2.6
			c2.2,0.1,5.8,3.1,9.1,3.2c1.8,0.1,5-1.9,5.4,0.7c0.2,1.2-1.3,2.1-1.7,3.3c-0.2,0.9,0.4,1.3-0.2,2.2c-1.5,0.6-3.1,0.9-3.2,2.6
			c-0.1,2.1,3,3.1,4.8,4.3c1.3,0.8,2.3,2,3,2.4c0.6,0.3,1.5,0.5,1.9,0.7c1.2,0.8,2.1,2.6,3.7,2.6c1.9,0,3.8-2.4,4.8-4.7
			c1.2-2.7,1.3-5.9,1.9-8.7c0.2-0.9,0.9-1.9,1.1-2.8c0.7-2.5,1.7-6,3.9-6.9c2.2,2.4,3,6.9,2.6,10.8c1.5,1.1,4.1,0.8,4.5,3.3
			c0.1,0.9-0.4,2-0.4,3c0.1,1.6,1.3,2.9,1.5,4.3c0.4,2.5-0.4,4.5,0.7,6.3c1.5,2.3,4.3,2.2,6.1,4.7c0,1.5,0.6,2.1,0.9,3.3
			c0.2,0.6,0,1.5,0.2,1.9c0.6,1.2,2.2,1.4,2.8,2.4c0.3,0.5,0.2,1.5,0.6,2.4c0.5,1.4,1.7,2.4,2.6,3.7c0.8,1.3,2.2,2.7,2.4,3.7
			c0.4,1.9-1,3.1-1.3,4.6c-0.4,1.8,0,4.2-0.7,6.1c-0.9,2.2-3,4.4-4.7,7.3c-1.4,2.3-3.2,4.9-5.2,6.5c-1.2,0.9-2.6,1.5-3.7,2.4
			c-1.8,1.5-3.2,3.3-4.8,5c-1.7,1.8-3.7,3.1-5,4.6c-1.9,2.2-2.9,5.8-6.1,6.1c-1.9,0.2-3.6,0-5.4,0.7c-2.8,1.1-4.6,3.1-5.9,3.2
			c-1.4,0-2.8-1.7-4.1-1.9c-1.5-0.2-2.7,1.1-4.8,1.1c-0.9,0-1.3-0.5-2.6-0.9c-2.7-0.8-5.6-0.8-5.9-3.7c-0.2-1.6,1-2.3,0.9-3.7
			c-0.1-1.4-1.5-1.8-2-3c0.4-1.3,0.4-2.9-0.9-3.7c0-1.2,0.2-2,0.7-2.6c-1.1,0.5-2.5,0.7-3.7,1.5c-1.4,0.8-2.3,2.7-3.9,2.4
			c-1.5-0.5-0.3-2-0.6-3.2c-0.2-0.9-2.2-4.7-3.2-5.4c-1.1-0.7-5-2.2-6.3-2.4c-5.7-0.9-9.4,2.2-13.9,2.6c-1.2,0.1-2.4-0.2-3.5,0
			c-3.7,0.7-7.9,3.6-10.2,5.6c-3.8,0.4-7.7-0.8-11.7,0.4c-3.9,1.1-6.2,4.4-12.3,3.5c-1.2-1-3.3-1.5-3.3-3.3c0-1.4,2.1-2.3,2.8-3.3
			c0.7-1.1,2-3.6,2-5.2c0-1.2-0.8-2.7-0.7-4.3C801.7,380.4,802.4,379.1,802.4,377.9z"/>
		<path class="st0" d="M799.2,300.4c1-0.1,1.8-0.9,2.8-0.9c2.2-0.1,4.3,1.6,6.9,1.3c0.6,0.6,0.2,1.1,0.2,2.1
			c2.2,1.2,5.7,0.9,6.9,3.2c-1.6,1.7-4,0.5-6.1,0.2c-1.9-0.3-3.9-0.1-5.9-0.4c-2.6-0.3-5-1.7-7.4-2c-1.5-0.2-3,0.2-4.5,0
			c-1.7-0.3-7.9-2.6-8-4.3c-0.1-1.7,2.8-2.2,5.4-1.9C792.7,298,794.9,301,799.2,300.4z"/>
		<path class="st0" d="M804.2,287.6c-1.4-0.4-2.7-0.2-3.3-0.6c-1.3-0.8-1.1-3-1.5-4.3s-2-2-2.8-3.7c-1.2-2.5-1.7-8.2,1.5-8.7
			c1.3-0.2,2.6,0.8,3.5,0.6c1.8-0.4,1.5-2.8,3-3.7c0.8-0.5,2.4-0.3,3.5-0.7c1.2-0.4,2.1-1.6,3-2.6c0.8-0.9,1.4-2.5,2.4-3.2
			c1.2-0.8,2.2-0.8,3.2-1.5c2.4-1.9,2.5-4.5,4.5-6.7c1.7-1.9,4.3,1.8,4.5,3.3c0.9,1.2,2.7,1.5,3.5,2.8c-1.1,3.3-4.2,3.6-3.5,8.2
			c0.1,0.8,0.6,2.2,1.1,3.2c0.5,1.1,2.1,2.3,2,3c-0.1,1.4-2.9,1.3-3.5,2.8c-0.6,1.4,0,1.4-0.2,3.5c-0.8,1.5-2.9,1.9-3.5,3.7
			c-0.8,2.2,0.1,5.1-1.7,6.7c-1.2-0.1-2.6,1.1-4.1,0.9c-1.6-0.1-3.2-2.4-5.8-2.4c-1,0-2.2,0.6-3.2,0.6
			C806.1,288.6,805.4,287.9,804.2,287.6z"/>
		<path class="st0" d="M792.2,283.4c4.7,0,4.7,7.3,0,7.3C787.5,290.8,787.5,283.4,792.2,283.4z"/>
		<path class="st0" d="M785.3,282.5c0.6,0.1,2.6,2.9,2.6,3.7c-0.1,1.3-2,1.2-2.6,3c-0.9,2.7,0.4,5.7-1.1,7.1
			c-0.8,0.5-2.4,0.4-3.7,0.4c-3.4-2.4-6-5.2-8.9-8.4c-1-1.2-2.3-2.2-3-3.3c-1-1.8-1.3-3.7-2.4-5.4c-1-1.5-2.8-2.5-3.7-4.1
			c-0.8-1.3-0.9-3-1.7-4.3c-0.8-1.2-2.1-1.7-3-2.6c-0.6-0.6-0.9-1.6-1.5-2.2c-2.3-2.8-6.8-4.3-7.1-8.4c1-1.1,1.9,0.4,3.7,0.7
			c1.2,0.2,2.5-0.1,3.3,0.2c1.7,0.6,2.9,3.2,4.6,4.6c1,0.8,2.3,1.4,3.3,2.2c1.1,0.9,1.9,2.2,2.8,2.8c1.2,0.7,2.9,1.2,4.5,2.2
			c2.2,1.4,6,2.8,6.5,5.6c0.1,0.7-0.3,1.9-0.2,2.4c0.3,1,1.5,1.4,2.2,2.2c0.9,1,1.1,2.6,2.4,2.8
			C783.8,284.2,783.9,282.4,785.3,282.5z"/>
		<path class="st0" d="M697.5,243.5c1.6,0.5,6.9,7,5.4,10.6c-0.4,1-2.3,2.3-4.1,2c-3.7-0.6-3-8.8-1.9-12.1
			C697.1,243.8,697.3,243.6,697.5,243.5z"/>
		<path class="st0" d="M573.9,337.6c0.2-1.5,1.2-4,2.4-4.8c1.7-1.3,4-1.1,5.8-2c1.4-0.7,3.4-2,4.5-3.3c0.9-1.2,0.9-2.5,1.7-3.3
			c0.5-0.6,1.6-0.8,2.2-1.5c0.5-0.7,0.4-1.9,1.3-2.6c2.6-1.1,3.3,3.6,3.7,6.9c0.1,1,0.6,2.1,0.5,2.6c-0.3,1.5-1.9,1.8-2.4,2.8
			c-0.1,4.1-1.7,7.6-3.2,11c-1.2,2.9-2,6.1-3,8.6c-0.4,0.9-1.2,1.6-1.5,2.4c-1.3,3.2-1.8,8.1-4.3,9.5c-0.9,0.5-4.3,1.3-5.2,1.3
			c-2.3,0-4.3-1.7-4.8-3.7c-0.3-1.1,0-2.2-0.2-3.3c-0.2-1.5-1.1-2.8-0.9-4.5c0.4-3.8,4.1-5.6,4.3-8.7
			C574.9,342.3,573.6,340,573.9,337.6z"/>
		<path class="st0" d="M484.2,73c0.2,3.1-4.8,2.7-5.4,5.4c-0.3,1.2,0.6,2.8,0.4,3.9c-0.4,2-2.3,1.4-4.6,2.4
			c-1.2,0.5-2.4,2.5-3.7,2.6c-1.2,0.1-2-0.7-2.8-0.6c-1.2,0.2-0.8,1.7-2.6,2c-1.4,0.2-3.9-1.3-4.1,0.6c-0.1,1.2,2.2,1.8,3.7,1.7
			c1.2-0.1,2-0.9,3.2-0.9c2.2,0,3.6,1.6,5,1.7c3.2,0.1,6.3-2.9,9.7-2.6c1.5,0.2,2.4,1.2,3.5,1.1c1.8-0.2,3.3-2.2,4.6-3
			c-0.6-3.1,0.1-7.3,3-7.4c2-0.1,5,3.4,5.4,0c0.2-1.5-1.6-2.8-2.8-2.8c-1.1,0-2.5,2.1-3.3,0.4c0-1.7,1.9-1.3,3-1.7
			c0.8-0.3,1.3-1.2,2.2-1.5c4.4-1.6,10.6,1.5,12.3-2.2c-3.9-3.3-10.6,1.2-15.1,0.9c-1.9-0.1-4.4-1.5-5-3.3c-0.2-0.6,0-1.3-0.2-2.4
			c-0.2-1.2-0.8-2.4-0.7-3.2c0.2-3.4,8.6-4,8.6-8.2c-1.6-1.5-6.3-1.3-7.8,0.4c-0.5,0.6-0.5,1.8-1.3,3c-1.7,2.5-7.1,2.8-8.7,5.9
			c-0.4,0.7-1,2.6-0.7,3.7C480.2,70.7,484.1,71.1,484.2,73z M440,254.8c-5.4-0.8-10.8,1.4-14.5,3c-2.1,0.9-4.3,2.3-6.1,2.4
			c-1.8,0.1-3.5-0.9-5.2-1.1c-2.2-0.2-5.1,0-7.3,0.4c-2.1,0.4-4.1,1.9-5.9,2c-3.6,0.3-7-3.2-9.3-5c-1.4-1.1-2.8-2-4.1-3
			c-1.4-1.1-3.2-1.7-4.3-2.8c-1.5-1.4-1.5-3.9-2.2-5.8c-0.9-2.2-3.7-3.8-5.8-5.9c-1.6-1.6-5.2-3.9-5.6-5.9c-0.2-1,0.4-2.2,0.4-3.3
			c-0.1-1.6-1.3-2.6-1.3-3.7c0-1.6,2-2.9,2.4-4.3c0.2-0.7,0.1-1.7,0.4-2.6c0.5-1.9,1.8-3,1.5-5.8c-0.1-1.1-1.1-2.1-1.1-3.5
			c0-1,0.6-1.5,0.6-2.4c-0.1-1.6-2.2-1.9-2.4-3.7c-0.2-1.9,1.8-3.4,3-5.6c0.5-1,0.8-2.4,1.3-3.2c1-1.6,2.7-2.3,3.5-3.9
			c0.6-1.2,0.8-2.9,1.3-3.7c0.7-1.1,2-1.7,3.3-3.2c1.1-1.2,1.5-2.6,2.2-3.2c0.9-0.7,2.3-0.8,3.3-1.3c3.4-1.6,6-3.6,7.6-6.9
			c-0.5-3,0.3-4.3,1.5-6.3c1.1-1.9,2-3.7,3.9-4.8c2.3-1.3,4.5-1.4,6.1-3.9c0.8-1.2,2-3.4,2-4.6c0-1.8-1.9-4.2-3.5-4.5
			c-1.7-0.3-4.3,1.3-5.2-0.6c-0.3-0.6,0.1-2,0-2.6c-0.2-1.2-1.3-2.1-1.3-3c-0.1-1.7,1.7-3.6,2.2-5.6c0.7-2.7,0-4.8-0.2-8
			c2.6-4.1,8.4-2.1,14.1-1.7c0.9,0.1,1.9-0.2,2.8-0.2c3.4,0.1,6.1,1.1,7.2-1.9c0.4-1.1,0.8-5.3,0.6-6.3c-0.3-1.2-2.7-4.5-3.9-5.2
			c-1.8-1.2-4.5-0.7-5.6-2.8c0.9-3.7,5-0.6,7.4-1.5c1.3-0.4,1.1-2.6,2.2-3c0.8-0.2,1.7,0.8,2.8,0.7c0.9,0,4.2-1.7,5-2.2
			c1.2-0.8,1.6-2.5,2.6-3.2c0.7-0.5,1.6-0.4,2.4-0.7c1.6-0.7,3.6-2.1,4.6-3.3c1.5-1.8,2.2-4.1,4.1-4.5c2.5-0.5,8.1,0.5,8.6-2.2
			c0.4-2.6-2.3-4.6-1.3-7.4c0.8-2.2,2.8-1.8,5.6-3.2c1.4,1,1,3.7,1.1,5.4c1.7,0,5.2-0.5,5.6-2c0.4-1.9-2.5-3.9-3.2-5
			c-0.7-1.3-0.8-3.5-2.2-3.7c-2.8-0.5-5.6,3.9-9.1,3.9c-2.3,0-4.8-1.8-5.4-3.5c-0.3-1,0-1.9-0.2-3c-0.2-1.5-1.1-3.1-0.7-5.2
			c1.4-2.4,4.7-2.8,7.1-4.1c0.9-0.5,1.6-1.5,2.6-1.9c1.7-0.6,4.1,0,5.8-0.9c1-0.6,0.7-1.6,1.5-2.8c0.5-0.7,1.6-1.2,2.2-2
			c0.4-0.6,0.5-1.5,0.9-2c1.6-2,4.6-2.8,5.8-4.8c0.5-0.9-0.9-1.3-0.6-2.6c0.6-1.3,2.9-0.3,4.3-0.6c1.9-0.3,3.6-2.5,5.6-3
			c2.1-0.5,4.4-0.2,6.3-0.9c1.2-0.5,2.2-1.5,3.3-1.7c0.4-0.1,1.5,0.2,2,0.2c0.7,0,1.5-0.5,2.4-0.6c1.4-0.1,3.1,0.3,4.8,0.4
			c2.9,0.1,5.7-0.9,8.2,0.2c1.3,0.6,1.1,2,2.8,2.6c0.8,0.3,1.9-0.1,3.2,0c1.8,0.2,3.7,1.4,6.1,1.7c0.9,0.1,1.7-0.1,2.6,0
			c2.7,0.3,5.6,1.7,8.2,2.6c2.2,0.7,6.8,1.7,6.9,3.7c0.1,2.4-4,3.2-5.8,3.2c-2.9,0-6.8-1.7-9.9-0.7c0,4.2,4.6,7.4,8.7,6.9
			c0.4-2-2.3-0.9-2-2.8c1.9-1.4,4.1,0.9,6.7,0.6c1-0.3,0.8-1.8,1.1-2.8c2.2-1.3,5-3.3,8.4-1.9c0.2-0.3,0.4-0.6,0.7-0.7
			c0.2-2-2.2-3.1-0.9-5c0.6-1.3,4.1-0.9,4.6,0.2c0.3,1.3-0.9,1.1-0.7,2.2c0.7,1.5,2.2,1.7,3,1.7c1.8-0.1,2.2-1.7,3.9-2.6
			c0.7-0.4,1.7-0.4,2.6-0.7c1.1-0.4,1.9-1.3,2.8-1.5c0.6-0.2,1.6,0,2.4-0.2c1.1-0.2,2.3-1.1,3.2-1.1c1.1,0,1.9,1.3,3.3,1.5
			c0.8,0.1,1.7-0.4,2.8-0.6c0.9-0.1,1.9,0.1,2.6,0c1.8-0.3,3-1.2,4.5-1.1c1,0.1,2.8,1.5,3.5,0.7c1.2-1.2-1.6-2.1-0.7-3.2
			c2.8,0.2,5.9,0.1,8.7,0.6c4.2,0.6,8.2,2.7,12.1,2.8c-0.4-2.6-3.3-1.8-4.6-3c-0.4-0.3-2.1-3.1-2-3.9c0-0.4,2.1-4,2.6-4.5
			c1.6-1.5,7-1.5,8.5,0.6c1.1,1.4,0.7,3.6,2.2,3.5c1.3,0,2-3.3,3.5-3.3c1.3-0.1,1.9,2.1,3.2,2c1.5,0,2.6-2.9,4.6-3
			c1.1,0,1.5,0.6,3.2,0.7c1.2-0.7-0.4-1.7,0.2-2.8c2.1-1.5,6.8-0.4,9.5-1.3c0.7-0.9-0.9-1.5-0.2-2.4c2.3-1.6,6.1-1.7,10-2.4
			c2.4-0.4,4.6-2.1,6.5-2.2c2-0.2,3.8,1.1,5.6,1.1c1.1,0,2.3-0.3,3.3-0.7c1-0.4,1.8-1.4,2.8-1.7c1.6-0.4,3.7,0.2,5.6,0
			c2-0.2,3.8-1,5.2-0.7c1.4,0.2,2.4,1.7,3.7,1.9c3.9,0.6,8-0.6,11.5,0.4c0.6,0.2,1.3,0.8,2,1.1c2.4,0.9,4,0.6,4.5,3.5
			c1.9,0.7,3,2.4,5.2,3c1.5,0.4,3-0.2,4.6-0.2c2.2,0,5,0.1,6.9,0.4c1.1,0.2,1.9,0.9,3,1.1c0.8,0.1,1.7-0.1,2.6,0
			c1.2,0.1,2.2,0.6,3.2,0.6c1.9-0.1,3.4-1.8,5-2c0.9-0.1,2,0.3,2.8,0.4c3.1,0.3,6.7-0.4,9.3,0.2c1.4,0.3,3.7,1.8,5.2,3
			c1.1,0.8,1.8,2.2,2.8,2.8s3.5,1.7,4.5,1.5c1.2-0.2,1.2-1.5,2.4-2c3.7-0.8,10.2,1.2,13.2-0.2c1.1-0.5,0.9-1.7,1.9-2.4
			c5.6-0.3,11.1,0.2,16.4,0.4c1.8,0.1,3.7-0.5,5.4-0.2c1.8,0.3,3.2,2.2,5,2.8c1.2,0.4,3.4,0.2,5.2,0.6c1.2,0.2,2.2,1,3.2,1.1
			c2,0.3,3.9-0.2,5.8-0.4c4.3-0.3,9.7-0.6,13.9,1.1c2.2,0.9,3.2,2.7,5.6,3c3.4,0.4,8.8-0.3,12.3,0c0.8,0.1,1.6,0.4,2.2,0.4
			c1.2-0.1,1.9-1.1,3.3-1.1c1.8,0,4.8,2.9,7.4,2.4c1.2-0.8-0.9-1.9,0.2-2.6c1-0.9,2.5,0,4.1,0c0.9,0,2-0.4,2.8-0.4
			c2,0.2,4,2,6.5,2.6c2,0.5,4.8,0.6,7.3,0.4c1.8-0.2,3.3-0.8,5-0.6c0.8,0.1,1.6,0.7,2.4,0.9c0.8,0.2,1.6,0,2.2,0.2
			c0.6,0.2,1.2,0.8,1.9,0.9c3.5,1,8.1,1.5,11.7,2.6c2.2,0.7,4.3,2,6.1,2c0.9,0,1.7-0.4,2.8-0.4c5.6,0,12.2,2.4,11.7,7.6
			c-6.6,1.4-12.1-4.5-19-2.8c-1.1,0.3-2.3,1.5-2.2,2.6c0.3,3.2,8.4,3,9.1,6.1c-1.3,1-2.8,0.1-3.9,0.2c-1.7,0.2-4.5,2-5.6,3
			c-1.3,1.2-2.4,4.2-3.7,4.5c-1.7,0.3-4.2-1.6-6.7-1.1c-0.9,0.2-1.8,1.3-2.6,1.5c-2.1,0.4-4.7-1.1-5.9,1.3c0.7,1.7,0.3,4.1,1.7,5
			c0.9,0.6,2,0.1,3.2,0.6c1.3,0.5,2,2.1,3.2,3c0.9,0.7,1.9,0.7,2.4,1.7c0.1,1.4-0.5,1.5-0.4,2.4c0.3,1.6,2.7,1.9,2.8,3
			c0.1,1.3-1.5,1.1-1.9,2.4c-0.1,0.9,1,1.1,1.1,2.2c0.1,0.8-0.6,1.6-0.6,2.4c0.1,1.2,1.1,2.1,0.9,3.2c-0.1,0.9-0.9,1.7-1.7,2
			c-3.6-2.3-6.8-5.4-10.6-8.4c-3.9-3-10.1-6.7-10.8-13c0-1,2.1-1.7,2.4-3.2c0.1-0.6-0.2-1.4-0.2-2.2c0.1-2.2,1.9-4.3,1.9-5.6
			c-0.1-1.4-2.7-4.1-4.1-4.5c-1.1,0.6,0,1.7-0.2,2.6c-0.2,1.1-1.6,2.5-2.8,2.6c-3.5,0.3-3.9-4.5-9.5-3.2c-1.4,0.4-3.5,2.5-3,5.2
			c0.2,0.8,2.4,1.7,2.2,2.8c-0.2,1.1-5.1,1.4-6.1,1.3c-3-0.2-4.5-2.5-7.2-2.4c-1.3,0-2.5,1.1-3.5,1.3c-5.9,1.1-14.5-2.9-16.5,2.2
			c-0.3,0.7-0.1,1.7-0.4,2.4c-0.4,1.1-1.2,1.9-1.5,2.6c-0.2,0.6-0.2,1.7-0.6,2.6c-0.3,0.8-3.9,4-0.7,4.8c0.7,0.2,1.1-0.3,2-0.2
			c1.6,0.2,4.3,2.8,6.1,2.8c1.1,0,2.7-1.3,3.5-1.3c1.7-0.1,3,1,4.3,1.7c1.3,0.6,3.2,1.9,4.1,1.9c1.8-0.1,0.9-1.3,2.6-1.9
			c3.2,1,4.7,4.4,7.8,7.1c1.1,1,2.8,1.8,4.3,3.2c0.8,0.8,3.4,2.8,3.5,3.7c0.1,0.9-0.7,1.3-0.9,2c-0.3,1.1,0.4,2-0.4,2.8
			c-3-1.1-3.6-4-5.8-6.5c-0.8-0.9-1.6-2-2.8-3.3c-0.5-0.6-2.5-2.7-3.7-2.2c-2.3,0.9,1.3,4.4,1.9,5.2c1.2,1.6,2.9,3.8,3,5.6
			c0.1,1.1-0.7,3.1-0.7,5c0,1.3,0.3,2.4,0.2,3.5s-0.9,2.3-1.3,3.5c-0.4,1.4-0.5,3-0.9,3.9c-0.7,1.7-3.2,3.6-4.8,3.7
			c-1.5,0.1-2.2-1.2-3.7-1.1c-2.3,0.1-2.7,2.2-4.1,3.9c0.1,1.8,0.7,2.5,0.4,3.7c-0.5,2-3.2,2.3-3.2,4.3c0.1,1.8,2.5,2.2,3.7,3
			c1.7,1.1,4.6,3.6,6.1,5.6c1,1.3,2.5,3.8,2.4,5.2c-0.1,1.8-5.4,4.4-7.6,3.7c-2.1-0.6-1.4-2.6-1.9-4.5c-0.4-1.4-1.5-2-2-3.2
			c-0.3-0.6-0.2-1.6-0.6-2.2c-1.1-1.9-3.1-0.9-5.4-2c-1.5-0.8-1.1-2.4-1.7-3.9c-0.8-2-4.2-2.9-6.9-2.4c-2,0.4-2.6,2.1-4.5,2.4
			c-2.7-1.6,0.6-5.6-2.8-5.9c-2.6-0.3-4.3,3.7-5.8,4.8c-1,0.8-2.9,0.9-3,2c-0.2,2.1,2.2,1.6,4.1,2.4c1.7,0.7,1.9,2.7,3.5,2.8
			c1.3,0.1,2.2-1.4,3.5-1.5c2.3-0.2,4.1,0.8,5.6,1.7c-0.9,2.3-5.9,3.9-5.9,6.9c0,1.7,2,2,3.5,3.2c1.3,1,3,3.7,4.8,5.6
			c0.8,0.8,2.1,1.4,2.4,1.9c0.9,1.2,0.7,2.7,1.7,3.5c0.2,1-0.5,1.3-0.4,2.2c0.5,1.3,2.5,1.1,3,2.4c-0.4,3.2,1,6.2-1.7,7.4
			c-1.2,5.8-2.6,10.3-6.5,13.4c-3.5,2.8-8.2,3.6-12.5,5c-1.1,0.4-2,1.5-3,1.9c-2.5,0.8-6.9,0.3-7.1,3.3c-0.1,1.5,1.9,2.4,2,3.9
			c0.2,2.3-1.8,4.7-3.3,4.8c-1.1,0.1-3.4-0.6-3.5-2.6c-0.1-2.2,2.8-3.1,3-4.5c0.4-2.4-2-4.7-4.8-4.5c-2.5,0.2-8,5.1-8.2,7.8
			c-0.1,2,4,6.2,5.4,7.4c5.2,4.6,10.8,7.4,9.9,18.6c-1.3,2.8-4.6,3.5-7.2,5c-2,1.2-3,4.9-6.3,5.2c-1.3-0.5-0.6-2.6-0.9-3.5
			c-0.5-1.3-3.2-2-4.8-3.3c-1.4-1.1-1.9-2.9-3-3.9c-1.3-1.3-3.2-1.5-4.8-2.4c-1-0.5-1.8-2.5-2.8-2.4c-1.6,0.1-1.1,1.6-1.5,4.3
			c-0.4,2.6-2.3,4.6-1.7,7.6c0.3,1.2,1.8,2.3,2.6,3.5c1.3,2.1,1.5,4.6,2.8,5.8c0.9,0.8,2.4,1,3.3,1.7c2,1.4,5.4,4.5,6.1,6.1
			c0.8,2,0,4.3,0.6,6.3c0.6,2.4,3.7,4.1,1.9,6.5c-1.8-0.3-3.3-1.5-4.8-2.4c-2.6-1.6-3.7-2.9-5.4-5.6c-0.5-0.8-1.2-1.5-1.5-2.2
			c-0.6-1.7-0.5-3.6-1.1-5.6c-0.5-1.7-2.5-4.5-4.1-6c-1.3-1.2-3.6-1.9-3.7-3.7c-0.1-2.5,0.8-5.4,0.7-8.4c0-0.6-0.5-1.3-0.6-2
			c-0.2-1.4,0.1-3.2-0.2-4.5c-0.3-1.2-1.2-2.3-1.7-3.3c-0.5-1.1-1-2.1-1.5-3.5c-0.8-2.1-1.6-6.3-3.3-6.5c-1.9-0.2-3.7,3.5-6.1,3.5
			c-1.2,0-2.9-1-3.2-2.2c-0.2-1.1,0.6-2.3,0.6-3.5c-0.1-2.5-1.8-3.5-3.2-5.2c-0.5-0.7-0.7-1.7-1.1-2.2c-0.8-1-2.5-1.6-3.5-2.6
			s-2.1-2.4-2.6-3.3c-0.7-1.5-0.9-3.3-2-3.5c-1-0.2-2.3,1.3-3.3,1.7c-1.1,0.4-3.9,0.9-5,0.9c-3.7,0.3-6.8-0.7-6.3,3.7
			c-0.6,2-2.7,2-4.1,3c-1.8,1.2-3.1,3.6-5,5.6c-0.9,0.9-2.3,1.5-3.2,2.4c-0.7,0.7-0.9,1.9-1.7,2.6c-2,1.9-5,2-6.3,4.6
			c-0.1,3.1,1.5,5.4,1.1,8.4c-0.2,1.3-1.2,2.5-1.3,3.9c-0.1,1.2,0.5,2.5,0.2,3.7c-0.2,0.7-0.9,1-1.5,1.9c-0.5,0.7-0.7,1.7-1.1,2.2
			c-0.6,0.8-1.7,1.4-2.2,2c-0.9,1.1-1.1,1.9-2,2c-4.1,0.6-5.1-7.2-6.9-10.4c-0.8-1.5-2.5-2.8-3.3-4.6c-1-2.1-1.2-4.7-2.6-7.1
			c-1.2-2-2.8-4-3.5-6.1c-0.7-1.8-1.2-4-1.9-5.9c-0.7-2.1-1.4-4.7-1.5-6.3c-0.2-2.4,0.5-3.9-1.5-4.8c-1.8,0.4-2.6,2.2-4.6,2.2
			s-7.3-3.4-5.8-6.5c-1.3-1.8-4.6-2.8-7.1-5c-1.4-1.2-2.7-4.2-5.2-4.5c-0.7-0.1-1.6,0.3-2.2,0.4c-1.6,0.1-4.4-0.1-6.1,0
			c-2.2,0.2-5,0.7-7.8,0.4c-1.8-0.2-4.1-0.5-5.9-0.7c-2.4-0.2-5.5-0.8-6.9-2c-0.8-0.8-1.2-3.2-2.6-3.5c-1.7-0.4-2.7,0.9-4.3,1.3
			c-3.4,0.8-6.3-0.7-8.6-2.2c-1.6-1.1-3.1-1.6-4.3-2.4c-2.8-1.9-3.3-7.6-7.6-7.6c-1.5,0-3.9,0.9-4.1,2.6c-0.1,1.2,1.4,3.4,2,4.3
			c2.1,2.9,5.9,4,7.1,8c0.8,0.3,2.3-0.7,3.2,0.2c0.7,1.7,0,4.8,1.7,5.6c7.7,1.3,9.9-3,13.4-5.9c2,1.3,1.3,2.5,2,3.9
			c0.7,1.5,1.8,2.6,3.2,3.2c0.9,0.4,2.1,0,3.5,0.6c0.9,0.3,4.5,3.8,4.7,5c0.1,1.1-2.4,4.8-3.2,5.8c-0.7,0.9-1.9,1.4-2.2,2.2
			c-0.3,0.6-0.2,2-0.4,2.4c-0.3,0.7-2,1.7-3,2.6c-1,0.9-2.2,1.7-3.2,2.4c-1.2,0.9-1.9,2.1-3.2,2.6c-2.5,0.9-4.8,0.5-6.9,1.9
			c-1.3,0.9-1.3,2.8-3,3.9c-1.7,1.1-4.6,1.1-7.1,2.2c-1.6,0.7-2.5,2.1-3.9,2.6c-0.6,0.2-1.3,0-1.9,0.2c-1.2,0.3-2.4,1.2-3.5,1.5
			c-0.9,0.2-1.9,0.1-2.8,0.4c-2.9,0.8-5.5,3.7-8.4,2c-1.4-3.1-1.6-7.1-3.2-9.9c-0.8-1.4-2.4-1.9-3-3.3c-0.1-1.2,1.4-0.9,1.5-1.9
			c-0.5-2-2.4-2.9-3.5-4.7c-0.6-0.8-0.8-2-1.5-3c-2.2-3.2-6.6-4.9-7.4-8.9c-0.2-1.1,0-2-0.2-2.8c-0.4-1.4-1.3-2.8-2.2-3.9
			c-0.7-0.8-2.2-1.4-3-2.6c-0.5-0.8-0.7-1.9-1.1-2.8c-1.8-3.5-4.5-6.5-7.4-8.9c-1.5,0.2-3.1,0.3-3.9,1.3c0.8,2.4,1.9,4.5,3.2,6.5
			c1.1,1.9,2.8,3.9,3.5,5.9c0.3,0.8,0.2,1.8,0.6,2.6c1.2,2.9,4.8,3.9,5.6,7.3c0.5,2.3-0.1,3.9,0.6,6.1c0.6,2.2,3.9,3.5,5.2,5.6
			c1.1,1.7,1.1,4.1,1.9,5.8c1.1,2.4,4.2,3.4,6.5,5c2,1.4,3.5,3.7,5.2,5.2c1,0.9,2.4,1.1,2.6,2c0.3,1.3-0.5,1.7-0.7,2.8
			c1.4,1.5,2.8,4.2,5.2,4.5c1,0.1,2.2-0.9,3.7-1.1c0.8-0.1,1.6,0.1,2.2,0c1-0.2,1.9-1.1,3-1.3c1.9-0.4,4.1-0.2,6.5-0.6
			c2.3-0.3,3.8-2.2,5.6-1.7c1.9,2.1,0.5,4.5,0,6.5c-0.2,0.7-0.2,1.5-0.4,2c-1,3.3-3.6,5.8-4.8,8.7c-0.4,0.9-0.3,2-0.7,3
			c-1.4,3-4.3,5.9-6.5,8.4c-1.3,1.4-2.4,2.6-3.7,3.7s-3,1.7-4.5,2.8c-3,2.2-6.1,5.3-8.2,8.2c-0.8,1.1-1.2,2.4-2,3.3
			c-1.2,1.4-3.1,2-4.1,3.3c-0.8,1-1.3,2.9-2.2,4.8c-1,2.1-3.2,3.6-2.8,6.5c0.1,1.1,1.1,1.8,1.5,3c0.6,2,0.1,3.6-0.2,5.8
			c1.1,2.5,1.8,5.4,3.7,7.1c0.2,3.8-0.3,7.4,0,10.6c0.2,2,1,3.5,0.2,5.4c-0.7,1.6-3.4,4.5-5,5.6c-1.8,1.1-4.4,1.4-6.3,2.8
			c-1.3,0.9-2.4,2.6-3.7,3.7c-2.2,1.8-5.2,3.5-5.4,5.4c-0.1,1.1,0.8,2.7,1.1,3.7c0.7,2.7,1.4,6.7,0.2,9.7c-1.3,3.2-8.2,2.6-8.9,5.9
			c-0.2,1,0.5,1.9,0.4,3c-0.1,0.9-1.3,4.4-1.9,5.4c-0.8,1.5-2.7,2.2-3.9,3.5c-1.5,1.6-2.3,4-3.9,5.8c-2.2,2.4-5.2,4.8-8,6.9
			c-2.5,1.8-6.9,3.6-10.8,3.9c-2.3,0.2-4.7-0.5-7.1-0.2c-0.9,0.1-1.8,0.9-3,1.1c-0.7,0.1-1.4-0.1-2,0c-1.2,0.2-2.3,1.1-3.3,1.1
			c-2.4,0-5.5-2.9-5.6-5.8c0-1.1,0.9-2.2,0.9-3.2c0-1.2-1.5-2.7-2.6-4.8c-1.1-2.1-1.5-4.4-2.6-6.1c-1.2-1.8-2.7-2.7-3.5-4.1
			c-1.7-2.9-1.8-6.2-2.4-9.7c-0.2-1.1-1-2.3-1.1-3.7c-0.2-1.7,0.2-3.6-0.2-5c-0.3-1.1-1.5-2.2-2.2-3.5c-1.3-2.4-2.2-5.6-3.3-7.4
			c-1-1.8-3.2-3.6-3.3-5.6c-0.1-1.4,0.2-3.9,0.4-5.2c0.2-1.3,1.2-2.3,1.5-3.7c0.2-0.9,0-2,0.2-3c0.9-4.3,5.6-5.8,5-11
			c-0.3-2.2-1.8-3.3-2-5.8c-0.1-1.2,0.6-2.2,0.6-3.3c0-1.6-1.4-3.9-2-5.4c-1.9-4.1-3-7.9-5.8-11c-1.5-1.7-3.4-2.9-4.6-4.5
			c-1-1.3-2.2-3.7-2.2-4.6c0-1.1,0.8-1.7,1.1-2.8c0.4-1.4,0.4-4,0.9-6.1c0.2-1,1.3-3.4,1.1-5c-0.2-1.6-2.5-4.5-4.5-5
			c-2.6-0.6-5.3,0.8-8.6,0.6C443.9,260.1,444.1,255.4,440,254.8z M542.8,321.4c0.9-1.4,1.9-5.2,0-6.1c-0.1,0-0.2,0-0.4,0
			C541.6,316.8,540.7,320.5,542.8,321.4z M540.2,282.5c0.6-1.3,2.1-2.6,1.9-4.3c-0.5-3.6-7.2-1.8-8,0.7c-0.5,1.7,0.3,3.1-0.4,4.8
			c0.7,1.4,2.6,1.6,4.8,1.5C539.8,284.8,539.6,283.7,540.2,282.5z M528.9,301.7c0.7-1.4-1.2-2.3-1.5-3.7c-0.4-1.7,0.4-3.7-1.1-4.6
			c-0.2,0-0.4,0-0.6,0C524.4,296.4,526.3,301.4,528.9,301.7z M655.7,117.1c-0.7-1.4-2.7,0.4-1.9,1.7
			C655.1,118.8,655.5,118.1,655.7,117.1z M612.4,124.7c3-0.6,0-5.4-2.2-4.8C607.2,120.6,610.3,125.1,612.4,124.7z M598.6,148.7
			c0.9-6.4-4.1-6.9-5-11.5c0.4,0.1,0.2-0.5,0.6-0.6c1.2-0.6,3.1,0.9,3.7-0.6c0-2.2-2.8-3.8-5.6-2.8c-0.8-0.6-0.9-1.8-1.1-3
			c-2.1-1.3-7.3-4-7.3-6.5c0.1-2.1,2.7-3.2,5.8-3.2c1.3-1,0.5-4-0.7-4.6c-4.8-1.1-7.4-0.3-10.4,1.9c-1.5,1.1-3.1,1.8-3.9,2.4
			c-0.8,0.6-1.8,2.2-1.7,3c0.1,1.2,1.8,1.8,2.4,3.3c0.3,0.8,0.3,1.8,0.6,2.4c0.8,1.8,2.9,3,4.5,4.5c1.1,1.1,4.2,3.4,4.3,4.6
			c0.1,1.1-1,1.3-1.3,2.4c-0.4,1.1-0.8,3.7-0.6,4.6c0.4,2,2.5,2.1,4.5,3c1.9,0.9,3.8,2.4,5.8,2.4
			C595.1,150.6,597.4,149.9,598.6,148.7z M554.9,135.3c5-0.9,2.7-5.2,0.2-6.7c-1.9-1.2-4.2-2.2-6.5-3.5c-1.3-0.8-6.3-2.3-6.3-3.9
			c0-1.7,3.7-2.3,2.2-5.4c-2.5-0.6-8.6,0.4-8.2,3.2c0.2,1.6,2.2,0.7,2.6,2.4c-1.8,0.6-4,2.3-5.9,2c-2.3-0.4-2.9-3.2-4.1-4.8
			c-1.8,0.1-2.9-1.7-5-1.5c-2.2,0.2-3.3,3.4-4.5,5c-0.6,0.8-1.5,1.3-1.9,2c-0.2,0.5,0,1.2-0.2,1.9c-0.6,2.1-2.4,2.8-2.2,4.6
			c0.2,1.6,1.9,2.3,2,3.7c-0.1,1.4-2.4,0.7-2.2,2.4c3.3,2.7,3.5-1.3,5.2-1.9c1.4-0.5,4,0.4,5.8,0c1.4-0.3,2.5-1.6,4.1-2.2
			c1-0.4,2.2-0.7,3.5-0.7c5.9-0.2,9.7,3.6,14.9,3.7C550.1,135.7,553.1,135.6,554.9,135.3z M543,157.2c0.1-2-0.8-3.5-0.9-6.3
			c-3.4-2.1-6,1.9-9.5,1.5c-2.1-0.3-3.7-2.8-5.9-2.4c-1.3,0.2-1.9,1.8-3.2,2c-2.7,0.5-3.9-2.1-6.7-1.1c-4-3-5.8-8-6.7-13.6
			c-2.2-2.8-5.5-0.5-7.1,1.3c-1,0-2.2-0.5-2.4,0.6c-0.7,3.4,4.9,3.8,4.8,6.1c0,1.5-2.2,1.4-3.2,2.4c-1,1.1-0.3,2.1-1.7,2.8
			c-3.7,0.4-4.9-1.6-4.8-4.8c-1.6-2.4-3.6-4.2-5-6.1c-0.5-0.7-1.3-1.9-1.5-3c-0.1-0.9,0.4-2,0.2-3c-0.4-1.8-3.7-3.1-5.8-4.1
			c-2.2-1-4.9-2-6.5-3.3c-1.1-0.9-1.6-2.5-2.6-3.2c-0.8-0.5-1.9-0.4-2.6-0.9c-1-0.7-0.8-1.9-2.2-2.2c-0.7-0.3-1.8,0.7-2.2,1.3
			c-0.9,4.1,2.4,4.3,3.9,6.1c1,1.2,1.6,3.1,2.6,3.9c1.1,0.9,2.6,0.7,4.1,1.3c1,0.4,1.6,1.6,2.6,2.2c1.8,1.1,4.6,1.3,4.8,3.3
			c-1.1,0.8-3.6-1.1-4.5,0.7c-0.2,1.2,1,1.8,0.9,3c0,1.8-2.1,3.8-3.9,3.5c-0.2-1.1,1-2,0.9-3.2c-0.1-2.4-4.8-6-7.2-7.1
			c-1.1-0.5-2.5-0.5-3.5-1.1c-1.8-1-5-3.6-6.1-5c-1.3-1.8-2.5-5-5.4-4.8c-1.2,0.1-2.2,1.2-3.2,1.7c-0.9,0.5-1.9,0.9-2.8,1.5
			c-1.1,0.7-2,1.4-3,1.5c-2.3,0.1-4.3-1.7-6.3-1.3c-0.7,0.1-1.2,0.8-2,1.5c0,1.1,0.3,1.8,0.2,3c-0.6,1-2.4,1-3.7,1.7
			c-1.9,1-3.6,3.1-5.2,4.6c-1,1-1.9,1.8-2,2.6c-0.1,0.6,0.5,1.8,0.4,2.6c-0.2,0.9-1.9,2.8-3,3.5c-0.7,0.5-1.5,0.5-2.2,0.9
			c-1.5,0.9-2.1,2-3.3,2.2c-3.2,0.6-9.2-0.7-9.1,2.8c0,2.3,3.1,2.3,5,2.2c2.6-0.1,4.9,0.6,6.3,0.2c1-0.3,2.1-1.4,3.2-1.9
			c0.7-0.3,1.4-0.3,1.9-0.6c1.1-0.6,1.7-1.5,2.6-1.9c1.7-0.8,4.9-1.4,6.7-1.5c2.5-0.1,5.1,0.3,8.4,0c1.2-0.1,2.3-0.8,3.5-0.9
			c2-0.2,4.7,0.8,6.3,0.7c1.1,0,2.4-1.1,3.7-1.1c1.5,0,3.1,1.1,3.3,2c0.2,0.5-0.3,1.4-0.2,2.2c0.2,1.4,1.4,1.9,1.3,2.8
			c-0.1,1.2-3,2.7-2.6,4.1c0.3,0.9,2.3,1.8,3.3,2.4c1.1,0.6,2.8,1.5,4.1,1.7c1.1,0.1,2-0.3,3-0.2c1.6,0.2,4.2,1.1,5.2,1.9
			c1.7,1.2,1.5,3.2,3.5,3.9c0.9,0.3,2.4,0.1,3.5,0.4c2.7,0.6,4.7,2.8,6.7,2.6c3.1-0.4,1.7-3.3,2-5.4c0.8-4.7,10.1-4.5,11.9-1.3
			c1.4,0.4,2.5,0.1,4.1,0.6c0.9,0.3,1.6,1.3,2.4,1.5c0.6,0.2,1.6-0.1,2.4,0c3.6,0.4,6.8,3.1,9.9,2.6c1.9-0.3,3.4-2.1,5.2-2.2
			c3.6-0.2,5.8,2.6,9.7,1.3c2.8-1,2.2-3.9,3.2-6.9C541.6,160.2,542.9,158.8,543,157.2z M743.4,93.8c0.7-2.4-0.4-4.8-1.9-6.3
			c-2.1,0.4-0.6,2.6-0.7,3.9c-0.2,1.8-2.2,3.1-2,5c-0.7,0.8-1.9,1.2-2,2.6c1.2,0.8,1.7-0.6,2.6-1.5C740.8,96.2,743,95.4,743.4,93.8z
			 M694.7,29.3c-2,0-2.8,0.8-4.1,1.5c-0.7,0.4-2.1,0.6-1.7,1.7C690.7,32.2,694.3,31.4,694.7,29.3z M616.3,52.2
			c4.4,1,6.4-3.9,3.5-6.7c-0.7-0.6-3-0.9-3.9-2.4c-1.1-1.8-1-4.2-3.7-3.7c0,0.2,0,0.5-0.2,0.6c-0.3,4.1,5.7,5.1,5.6,8.4
			C617.5,50,615.7,50.2,616.3,52.2z"/>
		<path class="st0" d="M555.1,45.1c-0.5-2,3.3-1.7,2.6,0.2C557.1,45.8,555.5,45.8,555.1,45.1z"/>
		<path class="st0" d="M532.2,156.3c0.1-1.5,3.6-2.1,4.3-0.7C536.3,157,532.9,158.1,532.2,156.3z"/>
		<path class="st0" d="M468.4,146.3c1.9-1.6,6.3-0.5,8.9-0.6c-0.5,1.4-0.6,3.3-1.7,4.1C472.6,149.2,469.8,148.5,468.4,146.3z"/>
		<path class="st0" d="M454.9,136.4c2.6-2.7,5.2-1.3,4.3,3.9c-0.6,1.5-3.3,3.6-4.5,1.3C455.1,139.8,454.9,138.5,454.9,136.4z"/>
		<path class="st0" d="M458.6,130.4c0.2,1.6-0.4,2.3-1.3,2.8C454.8,132.8,456.7,128.4,458.6,130.4z"/>
		<path class="st0" d="M422.5,92.7c0.2-1.1-0.6-2.4-1.7-3c-0.6-0.3-1.5-0.2-2.2-0.6c-1.8-1-2.5-3.1-3.5-3.5c0.1-2-0.6-3.5,0-4.8
			c0.3-0.8,2.8-3.1,4.1-3.5c1.6-0.6,3.3-0.1,4.3-1.3c0.4-0.1,0.7,0,0.9,0.2c0,1.2-1,1.4-1.1,2.4c0.2,1.7,3.2,0.6,3.5,2.2
			c-0.3,1.7-1.8,2.1-1.9,3.3c0,1.1,2.3,3.2,3.3,4.6c0.8,1.1,2.2,1.9,3,3c0.6,1,0.8,2.1,1.3,2.6c1,0.9,3.2,1.1,3.3,2.4
			c0.2,1.8-2.2,2.5-1.9,4.5c-2.6,2-6.8,1-11,1.5c-1.9,0.2-4,2.1-5.9,0.6c-0.5-1.2,1.7-1.4,1.9-2.6c-0.1-1.1-1.5-0.9-1.9-1.9
			c0.5-1.4,2.2-1.7,2-3.9C420.2,93.8,422.2,94.2,422.5,92.7z"/>
		<path class="st0" d="M408.6,88.2c2.5-1.5,6.8-0.4,7.1,1.5c0.2,1.4-1.3,1.6-1.9,3.2c-0.5,1.4,0.1,3.1-0.6,4.1
			c-0.6,0.8-2.1,0.8-3.2,1.1c-2.3,0.7-6.9,3.4-8.7,0.4c0.3-1.6,1.9-2,2.4-3.3c0-1.1-1.1-1.6-0.9-2.8c0.2-1.4,1.3-0.9,2.8-1.5
			C406.7,90.4,407.2,89.1,408.6,88.2z"/>
		<path class="st0" d="M281.6,47.9c0.4,1.7-4.9,3.8-5.4,1.7C275.8,47.9,280.2,45.7,281.6,47.9z"/>
		<path class="st0" d="M275.4,467c-0.9,0-1.9,0-2.8,0C273.1,466.7,274.9,466.7,275.4,467z"/>
		<path class="st0" d="M267.1,34.7c0.2-0.3,0.9-0.3,1.1,0c-0.2,0.4-0.3,0.9-1.1,0.7C267.1,35.2,267.1,34.9,267.1,34.7z"/>
		<path class="st0" d="M250.5,64.3c0,1-3.7,2.7-4.1,0.7c-0.1-0.3,0-1,0.7-1.5C248.2,62.9,250.5,63.2,250.5,64.3z"/>
		<path class="st0" d="M173.2,237c-0.1,0.3-0.3,0.5-0.4,0.7C170.8,237.7,172.6,235.1,173.2,237z"/>
		<path class="st0" d="M97.7,107c1.3-0.8,2.6,1.1,1.7,2C97.9,109.3,97.5,107.7,97.7,107z"/>
		<path class="st0" d="M300.3,113.9c-0.9-0.2-2.1-0.2-3.2-0.4c-0.9-0.2-2.1-0.5-3-0.6c-2.3-0.3-4.8,0.4-6.1-0.9
			c2.2-2.9,5.2-5.8,8-8.4c0.8-0.8,2.7-1.3,2.2-2.8c-1.6-1.4-3.5,0.1-5,0.9c-1.6,0.9-3.4,2.2-5.2,2.4c-3.1,0.5-7.2-0.9-9.7,0.7
			c-0.3,1.4,2.9,0.9,2.4,3c-1.2,0.2-2.4,0.3-3.3-0.6c-0.9-0.8-0.4-1.9-0.9-2.4c-1-0.8-4.5-1-6.1-0.7c-2,0.3-3.7,1.5-3.9,3.2
			c2.3,1.1,6.2-1.1,7.1,1.7c-1.3,2.3-4.3,3.6-3.9,6.7c0.2,1.2,1.6,2.8,2.6,3s1.6-0.8,2.6-0.7c1.1,0.1,0.8,1.3,2,1.1
			c1.8-0.8,2.8-3.3,4.8-3.2c2.5,3-2.2,4.4-4.8,5.4c-3,1.1-6.8,1.7-9.1,2.6c-1.2,0.5-5.7,4.8-6.3,1.5c-0.5-2.4,2.2-1.7,2.8-3.7
			c-2.9-0.6-5.6,1.2-8.2,2.2c-3.7,1.4-10.1,2.3-11,6.5c-0.2,0.8,0.4,2.4-0.2,3c-0.4,0.5-3.1,0.5-4.3,0.9c-1.8,0.6-3.4,1.9-4.5,2.2
			c-0.8,0.2-2.1,0.2-2.6,0.4c-1.5,0.6-2,2.6-3.7,3.9c-0.7,0.5-2.2,0.9-2.8,1.5c-1,1-1.1,3.4-2.8,3.7c-1.1,0.1-2-0.8-3-0.2
			c-0.1,2.4,0.8,5.6-0.2,8c-2.2,1.8-4.6,3.1-7.4,4.6c-1.6,0.9-3,1.1-4.8,2c-1.3,0.7-2.6,2.3-4.1,3.2c-3.6,2.1-7.8,4.6-7.8,9.9
			c0,1.1,0.6,2.4,0.7,3.7c0.1,0.8-0.1,1.6,0,2.4c0.2,1.9,1.6,4.4,0,5.8c-2.5-1-5.7-1.4-7.4-3.2c-0.5-1.8,1-3.3,0.7-5
			c-0.2-1.3-2.1-3.7-3.2-3.9c-1.1-0.2-2.2,1-3.3,0.9c-1.4-0.1-2.7-2-4.5-2.2c-2.6-0.3-4.5,0.6-7.4,0.2c-2.8,1.5-3.6,4.2-7.1,3.9
			c-1.2-0.1-2.3-1-3.7-1.3c-1.5-0.3-3.8-0.8-5.4-0.7c-3.2,0.2-5.5,2.5-8.2,3.9c-2.4,1.2-5.8,2.8-6.5,5.4c-0.4,1.4-0.1,3.4-0.6,4.6
			c-0.3,0.8-1,1.6-1.5,2.4c-2.1,3.8-3.8,8.8-2.2,14.3c0.2,0.8,2.3,5.4,3.2,6.3c1,1,3.8,2.6,5.4,2.6c1.4,0,3-0.7,4.3-0.9
			c1.5-0.3,3.4-0.3,4.8-0.7c4-1.3,3.2-6.7,7.2-8.6c1.8-0.8,3.8-1,6.9-1.1c1,0.8,1.4,2.3,1.3,3.5c-0.1,0.9-1,1.8-1.5,3.2
			c-0.4,1.2-0.5,2.6-0.9,3.5c-0.6,1.3-1.8,2.2-2.2,3.3c-0.3,0.8-0.1,1.7-0.4,2.4c-0.4,1.2-2.1,2.1-1.3,3.3c4,1.6,8.8-0.5,12.3,0.2
			c1.5,0.3,4.5,2,4.5,4.3c0,1.7-1.3,2.8-1.5,4.6c-0.2,2.3-1.2,5.2-1.3,7.1c-0.2,3.1,4.5,8.4,7.8,8.4c3.5,0,5.6-3.5,9.9-1.7
			c1.4,0.6,2.9,2.9,4.5,2.8c1.3-0.1,3.2-2.3,4.1-3.9c1-1.9,1.1-3.5,3-4.5c2-1,3.6-0.5,6.1-1.5c1.1-0.4,2.1-1.2,3.2-1.9
			c0.9-0.6,1.9-2.2,3-1.1c1.5,1.5-1.8,2.3-0.6,3.9c2.6,1.4,3.9-2.5,5.8-2.6c0.6,0,2.7,1.2,3.7,1.9c1.5,1,1.9,2.3,3.5,2.6
			c1,0.2,2.7-0.4,4.1-0.2c1.9,0.3,3,1.9,4.5,1.9c1.8,0,2.6-2,4.1-2.2c3.3-0.6,4.5,0.4,5.9,2.4c1.6,0.3,1.7-1.9,3.2-1.1
			c-0.8,1.6,0.3,2.4,0.9,3.7c0.4,0.9,0.4,1.5,0.7,1.9c0.9,0.8,2.6,0.8,3.9,1.7c1.4,0.9,2.1,2.5,3.7,4.3s4.3,3.8,6.5,3.9
			c2,0.1,3.7-0.6,5.4-0.4c3.8,0.5,6.2,2.4,8.9,4.5c1.5,1.2,2.9,2,3.3,3.3c0.3,1,0.2,2.3,0.6,3.3c0.8,2.3,4.2,3.4,3,7.4
			c0.6,1.2,1.8,1.6,3.2,2.4c1.1,0.7,2,2,3.2,2.2c0.8,0.1,1.6-0.2,2.2-0.2c2.1,0.2,3.6,1,5.4,1.7c1.1,0.4,2.6,0.6,3.3,1.1
			c0.9,0.6,1.1,2.8,2.2,3.3c0.8,0.4,2.5-0.1,3.7,0c2,0.2,4.7,1.5,6.5,1.5c1.1,0,2-0.5,3-0.4c4.6,0.4,7.1,5.8,11.5,7.4
			c1.4,0.5,3.5,0.2,4.5,0.6c1.6,0.7,3,5.8,3.2,8c0.4,6.8-4.8,8.9-7.8,13.4c-0.6,0.9-1,2.4-1.9,3.7c-1.8,2.6-3.8,3.2-3.5,8
			c0.1,1.3,0.7,2.6,0.7,4.1c0,1.8-0.2,4.2-0.6,5.8c-0.3,1.2-1.3,2.2-1.5,3.3c-0.2,1.1,0.3,2,0.2,3c-0.2,1.1-1.2,2.6-2,4.1
			c-1.7,3.2-2.1,6.9-5.6,8.2c-2,0.8-4.8,0.3-7.1,1.1c-0.9,0.3-2.1,1.2-3.2,1.7c-3.2,1.5-7.8,3.5-8.7,6.9c-0.8,3,1.1,5.3,0.6,8.7
			c-0.6,1-1.4,2-2.2,3.2c-0.8,1.1-1.2,2.3-2,3.3c-1.1,1.4-2.9,2-3.5,3.9c-0.2,0.6-0.1,1.4-0.4,2.4c-0.1,0.4-0.8,1-1.1,1.7
			c-0.3,0.7-0.3,1.5-0.6,2.1c-0.8,1.7-3.4,5.6-5.2,6.1c-3.9,1.1-7.9-1.6-10.6-1.1c0.4,1.9,1.7,1.7,2.6,3c0.5,0.8,0.8,1.8,1.5,2.6
			c0.8,1,1.6,1.3,1.7,2.4c0.2,2.3-1.6,4.6-2.8,5.4c-1.1,0.7-3.4,1.2-5.4,1.5c-1.4,0.2-4.9,0.2-5.6,1.1c-1,1.3,0.5,4.5-0.2,5.8
			c-1.4,2.7-5.1-0.1-7.1,0.7c-0.2,1.4,0.4,2.9,1.5,3.5c1.2,0.7,2.9-0.2,3.7,1.1c-0.4,1.8-2.4,2.1-2.8,3.9c0.1,1.8,0.6,2.2,0.4,3.3
			c-0.5,2.4-4.2,2.3-4.1,4.8c0.2,3.8,7.3,2.2,7.4,6c0.1,2.2-2,2.3-2.8,4.5c-0.4,1.2,0.2,1.4,0,2.4c-0.3,1.3-1.9,1.7-1.9,3.2
			c0,1.8,2.6,3.7,3.9,5.2c1.3,1.4,2.9,3.5,4.6,4.5c2.6,1.4,6.5,1.1,7.6,3.7c-0.4,1.6-1.9,2-3.3,2.4c-0.1,0-0.2,0-0.4,0
			c-0.5-0.3-2.3-0.3-2.8,0c-0.9,0-1.7,0-2.6,0c-2.5-1.1-5.5-1.9-8.6-3c-1.1-0.4-2.3-1.3-3.5-1.9c-0.9-0.4-1.9-0.6-2.6-0.9
			c-1.6-0.8-3.4-3.6-5-4.6c-1-0.7-2.5-1-3.2-1.7c-0.6-0.6-0.9-2-1.5-2.8c-0.6-0.9-1.7-1.5-2.4-2.4c-1.5-2.1-3.5-4.8-3.5-6.3
			s1.4-2.5,0.9-3.9c-0.5-1.3-3.3-1-3.7-2.6c-0.2-0.9,0.8-2.5,0.7-3.9c0-0.8-1.5-1.8-0.9-3c0.7-1.3,1.9,0.1,3-0.6
			c-0.8-2.7,0.1-7-2.6-7.8c-1.4,1.2,1.4,3.8-0.9,4.5c-2.2-1-1.7-4-2.2-6.1c-0.3-1.4-1-2.7-1.1-4.3c0-0.8,0.3-1.8,0.2-2.6
			c-0.4-2.5-3.2-4.6-3.3-7.1c-0.1-1.2,0.7-2.2,0.9-3.5c0.1-0.9-0.1-1.9,0-2.8c0.2-1.2,0.8-2.3,0.9-3.3c0.2-2,0-5.5-0.4-7.3
			c-0.5-2.1-2.2-4-2.4-6.3c-0.1-0.8,0.3-2.3,0.2-3.3s-0.6-2-0.7-3.2c-0.1-1.1,0.3-2.1,0.4-3.3c0.2-2.3-0.5-4.9-0.4-7.3
			c0-0.7,0.4-1.2,0.4-1.9c0-1.9-0.7-3.9-0.7-5.8c-0.1-3.5,0.4-6-0.2-9.3c-0.4-2.5-1-6.3-1.9-7.8c-1-1.7-4.9-4.7-6.9-5.8
			c-1.3-0.7-2.9-1-4.3-1.7c-3-1.5-8.9-4.6-10.2-7.6c-0.4-0.9-0.3-2-0.7-3c-0.8-1.9-2.5-3.6-3.7-5.4c-2.3-3.5-4.2-7.9-6.5-11.5
			c-1.2-1.8-2.2-3.9-3.5-5.4c-0.8-0.9-3.2-1.7-3.5-3c-0.4-1.7-1.7-4.1-1.5-5.4c0.3-1.8,3.7-3.2,3.7-4.8c0-1.4-1.8-2.2-2.2-3.3
			c-0.9-2.8,0.6-4.5,1.7-6.9c0.4-0.8,0.7-2,1.1-2.6c0.7-1,2.1-1.3,3-2.4c0.5-0.6,0.8-1.9,1.5-2.8c1.4-1.9,3.7-2.6,4.3-4.3
			c0.5-1.4,0.8-8.3,0.2-10.6c-0.3-1.3-1.6-2.5-2-3.7c-0.8-2.2-1-4.7-3.3-4.6c-1.4,0-2.4,1.6-3.3,2.6c-0.2,1.3-0.1,2.8-1.5,3.2
			c-2.1,0.6-2.9-2.2-5.4-3c-1-0.3-2.5-0.3-3.2-0.6c-1.8-0.8-2.4-3.4-4.3-4.5c-1.6-0.9-2.9-0.6-3.9-1.9c-0.4-0.9-0.1-2.5-0.2-3.7
			c-2-1.2-3.8-5.6-6.1-6.7c-1.6-0.7-4-0.6-5.9-1.3c-0.9-0.3-1.6-0.7-2.6-0.9c-1.2-0.3-2.4-0.3-3.3-0.7c-3.7-1.8-5.7-7.7-10.2-7.6
			c-1.9,0.1-3.8,1.9-5.6,1.9s-4.7-1.4-6.9-2.4c-2.3-1.1-4.8-1.6-6.7-2.6c-1.5-0.8-2.6-2.2-3.9-2.8c-1-0.5-2.5-0.5-3.3-0.9
			c-1.2-0.6-2.4-1.8-3.9-2.8c-1.4-1-2.9-2.5-3-3.7c-0.1-1.5,1.3-2.7,1.5-4.1c0.5-4.4-2.8-7.6-4.8-10.2c-1.5-1.9-3.3-3.6-4.8-5.4
			c0.1-1.2,0.1-1.4,0-2.6c-1.2-1.1-2.1-2.8-3.3-4.5c-1.1-1.5-3.3-3.1-3.5-4.8c-0.3-2.1,0.8-3.9,0-6c-1.3-3.4-6-1.8-5.4,2.6
			c0.2,1.2,1.9,2.9,2.4,4.1c0.5,1.2,0.4,2.8,0.9,4.3c0.5,1.4,1.9,2.7,2.4,4.3c0.8,2.5,0.8,5.3,1.5,6.9c0.6,1.4,3,2.8,1.7,4.5
			c-1.8,0.4-2.4-1.4-3.5-2.4c-0.6-0.6-2.8-1.6-3.2-3c-0.3-1.1,0.7-2.6,0.4-3.9c-0.6-2.6-5.9-2.7-6-5.4c0-1.7,2.2-1.9,2.2-3.5
			c0-1.8-2.4-3.3-3-4.8c-0.5-1.4-0.6-3.6-0.7-5.6c-0.2-1.8,0.1-4-0.4-5.4c-0.4-1.3-2.3-3-3.5-3.7c-1.6-0.9-2.9-0.5-3.7-1.9
			c-0.7-1.2-1.2-3.6-1.3-4.8c-0.3-2.2-0.1-4.7-0.2-7.1c-0.1-2.4-0.4-4.7,0-7.2c0.9-1.8,2.6-2.7,3.5-4.5c0.7-1.2,0.7-2.8,1.5-4.1
			c1.4-2.4,4.3-4.7,6.3-7.1c2.2-2.6,4.1-5,5.4-8c0.5-1,1.7-3.4,1.5-4.6c-0.2-1.8-3.6-3.3-3.3-5.4c0.2-1.3,2-1.3,2.6-2.6
			c0.3-0.7,0.5-2.5,0.6-3.3c0-1.8-0.9-3.7-0.6-5.6c0.3-1.6,2.7-2.3,1.5-4.1c-1.2-1.8-3.5,1-4.8-0.2C88.3,87.2,89.9,86,90,84
			c0-0.8-0.5-1.7-0.4-2.2c0.1-0.8,1.7-2.2,1.3-2.8c-1-1.3-2.1-4.5-4.3-5.6c-2.7-1.4-5.7-0.4-9.5-1.1c-2.3-0.4-3.4-2.6-5.6-2.4
			c-1.3,0.1-2.1,1.6-3.9,2.4s-4.2,0.5-5.9,0.9c-1.8,0.4-2.6,1.6-4.5,1.5c-1.5-0.1-1.5-1.5-3.3-1.7c-0.7-0.1-2,0.4-3.2,0.6
			c-2.9,0.3-8.1,0.4-11-0.2C36.6,73,35,72.1,32,70.8c-2.2-1-6.3-2.3-6.1-3.9c0.1-1,3.9-2.1,5.4-2.6c2.4-0.7,3.9-1.9,5.8-2
			c0.7,0,1.7,0.4,2.6,0.4c1-0.1,2.1-0.9,3.3-1.1c2.6-0.4,6.3,0.1,5.9-2.4c-2-1.6-10,1.2-10.2-2.2c-0.1-2,3.1-2.7,5.4-3.2
			c2.1-0.5,5.4-1.2,7.2-1.1c2.1,0.1,4.9,2.5,6.1-0.2c0.6-1.9-0.7-3.5-1.1-5c1.6-2.2,4.5-1.9,6.7-2.2c2.5-0.4,4.6-0.8,7.1-1.9
			c2.2-0.9,4.5-1.5,7.1-1.9c2.5-0.3,5-1.3,7.3-1.5c1.9-0.2,3.6,0,5.4-0.4c1.6-0.3,3.3-1.2,5-1.1c1.2,0.1,2.2,0.9,3.3,1.1
			c1.1,0.2,2.4-0.1,3.5,0.2c0.9,0.2,1.7,0.8,2.6,0.9c1.4,0.2,2.9-0.2,4.3,0c1.2,0.2,2.3,1,3.5,1.1c2.9,0.4,6.1-0.2,8.9,0.4
			c1.1,0.2,2,0.7,3.2,0.9c1.1,0.2,2.3,0,3.3,0.2c1.5,0.3,2.7,1.7,4.3,1.9c2.9,0.3,6.1-1.2,9.1-1.5c2.2-0.2,4.4,0.1,6.7-0.4
			c2.1-0.4,4.1-1.2,5.9-1.3c1,0,1.9,0.3,2.8,0.2c1-0.1,2.1-1.3,3.2-1.1c1.4,0.2,1.1,2,2.6,2.4c1.6-0.8,3.2,0.1,5,0
			c1.7-0.1,3.3-0.9,5.2-0.6c3.4,0.5,8.1,3.8,10.8,2c0.7-0.5,0.5-1.2,1.1-2.4c0.8-1.6,2.4-3.5,2-5.8c-3.7,0.1-7.3,1.9-11.5,2
			c-4.3-2.7,1.1-4.4,4.3-5.6c2.6-1,4.6-3.3,7.8-3.7c2.6-0.4,5.5,0.6,8.5,0.9c1.8,0.2,3.6-0.1,4.6,0.2c1.8,0.6,2.8,2.4,4.3,2.8
			c0.7,0.2,1.7,0.2,2.6,0.4c1.7,0.4,3.2,1.3,4.8,0c1.3,0.2,1.5,1.6,2.8,1.9c1.2-0.7,2.2-2.4,4.1-2.8c0.8-0.2,1.7,0.1,2.6,0
			c1.5-0.2,3.5-2.3,4.5-0.4c-0.4,1.3-2.4,1.5-3.5,2.6c-1,0.9-2.5,3.1-2.4,4.1c0.2,1.8,2.9,1.1,3,3.3c-0.4,1.3-1.9,0.7-3.2,1.3
			c-1.1,0.5-1.6,1.6-2.8,1.9c-3.4,0.6-6.2-0.9-9.1-0.7c-0.1,1.3,1.4,2,2.2,2.4c2.7,1.4,4.8,1.2,8.6,1.1c1.9,0,4.1,0.6,5.8-0.6
			c1-0.7,1-2.3,1.9-3.2c1.1-1,3.5-2.1,5-1.9c0.8,0.1,2,1.1,2,1.9c0,1.7-2.4,1.2-2.4,3c1.6,0.9,5.7-1,5.9-2.6c0.2-1.1-1.4-1.8-1.3-3
			c0.1-1.9,2.7-1.9,2.4-3.9c-1.3-1-2.6,0.2-3.9,0c-1.8-0.3-3.5-2.5-4.3-3.9c0.8-1,2.5-0.3,3.7-0.2c1.4-1.9,3.9-2.6,7.4-3
			c1.3-0.1,2.9-0.6,3.5,0.6c0.3,1.8-2.6,2.8-2,4.8c2.5,0.6,3.3-2.8,5.4-4.1c0.9-0.6,2.2-1,3.5-1.5c1.1-0.4,2.4-1.5,3.3-1.5
			c1,0,1.2,0.9,2.2,1.3c0.9,0.4,2.1-0.3,2.4,0.9c-2.2,3.7-10.2,1.6-12.3,5.4c0.5,2.5-1.3,5,0.2,6.7c1,1.2,3.4,0.4,3.9,1.7
			c0.7,1.7-2.3,1.7-1.5,3.7c2,1.2,4.3-1.1,6.1-2c2-1,4.4-2.2,4.6-4.5c-1-1.9-4.6-0.4-5.2-2.4c-0.3-1.1,1.1-3.5,1.5-3.9
			c1.9-2.2,8.7-5.3,13.6-4.8c0.9,0.1,1.9,0.6,2.8,0.7c3.2,0.3,7-1.4,9.5,0c2-1.2,4.4,0.2,7.2-0.2c2.2,1.3,1.6,4,4.8,5.2
			c0.9,0.3,2,0.1,3.2,0.4c0.9,0.2,1.8,1.2,2.8,1.7c1.4,0.6,2.5,0.5,2.8,1.5s-1,1.6-0.9,2.6c0.8,0.7,0.1,1.7,0.6,2.6
			c0.8,1.7,2.8,1.6,4.8,2.4c1.4,0.6,4.4,2.3,4.3,3.7c-0.1,0.9-2.8,2.5-3.7,3c-0.6,0.3-3.8,1.8-4.8,1.7c-1.8-0.3-2.4-3.8-4.8-3.7
			c-1,0-2,0.7-2,2c0,2.4,2.7,2.5,2.8,4.6c0.1,2.5-1.4,2.7-3.5,4.3c-1.5-0.6-2.8-1.5-4.8-1.7c-1.2,1.4,2,1.9,0.9,3.7
			c-3,0.6-5.3-0.8-8-1.7c-0.9-0.3-2.1-0.2-2.8-0.6c-1.1-0.6-1.4-2.4-2.2-3.3c-1-1.1-3-2.6-4.6-2.6c-2.3,0-5.6,2.9-7.4,0.2
			c1.3-4.3,7.2-1.1,11.2-2.6c1.5-0.6,2-2.1,3.2-2.8c2.4-1.4,6.3-1.6,5.9-4.3c-0.2-1.4-2.1-1.3-3.2-2c-1.5-0.9-2.6-4.3-4.6-4.5
			c-1.1-0.1-1.8,0.8-3,0.9c-2.4,0.2-5.1-1-7.2,0c-1,0.6-0.3,1.5-1.1,2.6c-0.6,0.9-2.2,1.2-2.8,2c-0.7,1-0.6,2.3-1.5,3.2
			c-1.5,1.4-4.8,1.6-6.7,2.2c-0.9,0.3-2,1.3-2.8,1.3c-1.5,0-2.2-2.1-3.9-1.3c-0.1,2,2.1,2.8,3.5,3.7c1.5,1,3.2,2,3.7,3.7
			c-1.5,3.2-3.9-0.2-6.3-0.2c-2.6,0-6.5,5-8.7,0.9c0.6-2.2,2.9-2.5,3.5-4.6c-2.6,0.4-4.9,2.7-8,3.3c-1.3,0.3-2.6,0.2-3.7,0.6
			c-2.2,0.7-3.8,2.3-6.1,3.2c-0.9,0.3-2,0.2-3,0.6c-2.2,0.8-4.9,2.1-7.2,3.3c-2.4,1.3-5,2.6-6.5,3.9c-0.8,0.7-2.9,3.1-2.8,3.9
			c0.1,1.1,2.2,1.5,2.2,2.6c0,0.7-1.2,2.2-0.4,3.2c0.8,0.9,2.3,0.2,3.9,0.4c2.8,0.4,4.7,2.7,6.9,3.9c1.6,0.9,4.1,2,6,2.2
			c2.6,0.3,5.4-0.7,5.8,1.3c0.3,2-2.4,2.7-2.6,3.9c1.4,1.8-0.9,2.7-0.9,4.3c0,1.3,1.6,3.2,3,3.3c1.9,0.2,4.6-1.8,5.4-3.7
			c0.9-2.2,0.5-5.3,2.2-6.9c8.7,0.2,16-3.9,15.4-12.8c-0.1-0.9-0.6-2-0.4-3c0.3-1.4,2.7-2.6,2.4-4.5c2.4-0.7,2.3-4.6,4.8-5.2
			c2.1-0.5,4.5,1.5,7.2,1.3c0.9-0.1,2.1-0.9,3-0.7c1.8,0.3,2.9,2.5,4.3,3.5c1.2,0.9,2.5,0.6,2.8,1.9c-0.4,2.1-1.8,2.1-1.7,4.1
			c0.1,1.7,1.9,3,2.8,3.2c1.4,0.3,3.3-0.5,4.6-1.1c2.5-1.2,4.6-4.7,6.7-4.3c1.6,0.4,2.9,5.6,3.2,7.4c0.3,2-0.3,3.5-0.2,5.4
			c0.2,3.1,4.2,2.8,6.1,4.5c0.6,0.5,0.8,1.8,1.3,2.4c0.9,1.3,2.1,1.3,2.2,2.6c0.3,3.2-2.9,3.5-2.6,7.1c-0.7,1.4-2.4,1.3-2.2,3.2
			c0.2,2.9,4.4,0.7,5.6,3c0.6,1.2-0.1,2.1-0.6,3.9c1.4,1.7,1.4,4.5-1.1,4.5C302.3,115.9,301.9,114.3,300.3,113.9z M99.3,109.1
			c0.9-0.9-0.4-2.8-1.7-2C97.5,107.7,97.9,109.3,99.3,109.1z M229.1,126c-0.8-0.8-3.3-0.5-5-0.4c-1.2,0.1-2.7,0.4-2.8,1.3
			C223.3,127.8,228.5,128.4,229.1,126z M219.5,122.8c1.5-1.2,0.8-3.5-0.7-3.9c-0.6-0.2-1.4,0.5-2.4,0.4c-1.1-0.1-2.1-1-3-1.1
			c-1.5-0.1-3,0.6-3.5,1.3c-0.1,1.1,0.8,1.3,0.7,2.4c-1.8,1.3-0.8,5.6,0.9,5.8c1.9,0.2,2.9-4.8,5.4-5.2
			C217.8,122.3,218.2,123,219.5,122.8z M216.9,130.3c-2.6-0.9-5.1,0.6-7.2,0.9c-1.3,0.2-3.6-0.3-3.3,1.7c0.2,1.6,2.7,1,4.1,0.6
			C213.3,132.5,215.1,131.7,216.9,130.3z M208.7,116.1c3.7-1.6-0.7-6.4-2.4-6.9c-3-0.8-7.3,2.2-10.8,3.2c-2,0.5-3.8,0.6-4.3,2.2
			c1.8,2.9,5.2-0.6,7.8-0.2c1.3,0.2,2.1,2,3.3,2.2C203.2,116.8,208.3,116.3,208.7,116.1z M206.1,119.1c-0.8-0.9-4.9,0.1-6.1,0.9
			c-0.8,0.6-1.4,2-2.2,3c-0.9,1.1-1.9,1.9-2.6,2.8c-0.7,0.8-4.4,6.3-1.5,6.9c1.3,0.3,3.8-2.3,4.1-3.3c0.8-3.4,2.4-5.8,5-7.4
			C204.3,121,205.8,121.1,206.1,119.1z M182.8,98.3c2.1-0.1,3.5-6.2,0-5.4C180.5,93.4,179.9,98.4,182.8,98.3z M172.8,237.7
			c0.1-0.3,0.3-0.5,0.4-0.7C172.6,235.1,170.8,237.7,172.8,237.7z M94.1,82.1c0-0.4-0.2-0.4-0.2-0.7c-0.6,0-1.2-0.1-1.1,0.6
			C93.1,82.5,93.8,82.5,94.1,82.1z M289.6,52.9c0.9,0.1,1.4-0.2,1.3-1.1C290,51.2,288.8,52,289.6,52.9z M268.2,34.7
			c-0.2-0.3-0.9-0.3-1.1,0c0,0.2,0,0.5,0,0.7C267.8,35.6,268,35.1,268.2,34.7z M197.5,49c0.6-0.4,1.6-0.9,1.1-1.9
			c-2.1-1-5.5-0.2-8.6-0.6c-1.7-2.4-4.6-2.8-4.8,1.1C188.7,50.5,193.9,46.4,197.5,49z M164.2,68.2c1.1-0.4,2.5-0.2,2.8-1.3
			c-0.9-0.7-1.8-1.6-2.8-1.7c-1.3,0-2,1.1-3.3,1.9c-1.6,0.8-3.8,1-3.9,2.4C159.9,70,162.5,68.8,164.2,68.2z M163.3,54.8
			c1.2-0.2,2.4,0.3,3.2-0.7c-0.9-4.1-6.6-1.6-9.9-1.3c-0.7,1.2-1.6,2.1-1.9,3.7C157.3,57.1,160.4,55.3,163.3,54.8z M219.1,244.8
			c1.5-0.2,1-3.6-0.7-2.8C217,242.6,217.7,245,219.1,244.8z"/>
		<path class="st0" d="M94,81.4c0,0.3,0.2,0.4,0.2,0.7c-0.3,0.4-1,0.3-1.3-0.2C92.7,81.2,93.4,81.4,94,81.4z"/>
		<path class="st0" d="M88.4,92.3c-0.4,1.2-1.5,1.8-2.6,2.2c-0.4-0.3-0.7-0.6-0.9-0.9C84.9,91.9,87.4,90.6,88.4,92.3z"/>
	</g>
</g>
<g id="사우디아라비아">
	<text transform="matrix(1 0 0 1 397.9913 147.7192)" class="st1 st2 st3">AMI 사업 추진중</text>
	<path class="st4" d="M496.3,111.2c-4.4,0-8,3.6-8,8s8,16,8,16s8-11.6,8-16C504.3,114.8,500.7,111.2,496.3,111.2z M496.3,122.6
		c-1.9,0-3.4-1.5-3.4-3.4s1.5-3.4,3.4-3.4s3.4,1.5,3.4,3.4S498.2,122.6,496.3,122.6z"/>
	<ellipse class="st5" cx="496.3" cy="138.6" rx="3.1" ry="0.7"/>
	<text transform="matrix(1 0 0 1 386.0751 130.0831)" class="st4 st2 st6">Saudi Arabia</text>
</g>
<g id="도미닉" class="st7">
	<text transform="matrix(1 0 0 1 225.8521 210.7156)" class="st8 st2 st3">AMI 시범사업완료</text>
	<text transform="matrix(1 0 0 1 225.8521 225.1156)" class="st8 st2 st3">한전KDN 협력</text>
	<path class="st9" d="M208.1,174.2c-4.4,0-8,3.6-8,8s8,16,8,16s8-11.6,8-16C216,177.8,212.5,174.2,208.1,174.2z M208.1,185.6
		c-1.9,0-3.4-1.5-3.4-3.4s1.5-3.4,3.4-3.4s3.4,1.5,3.4,3.4S210,185.6,208.1,185.6z"/>
	<ellipse class="st10" cx="208.1" cy="201.6" rx="3.1" ry="0.7"/>
	<text transform="matrix(1 0 0 1 225.852 193.0795)" class="st9 st2 st6">Dominican Republic</text>
</g>
<g id="우즈베키스칸" class="st7">
	<text transform="matrix(1 0 0 1 574.9146 87.5156)" class="st8 st2 st3">AMI 시범사업완료</text>
	<text transform="matrix(1 0 0 1 574.9146 101.9156)" class="st8 st2 st3">한전KDN 협력</text>
	<path class="st9" d="M557.1,51c-4.4,0-8,3.6-8,8s8,16,8,16s8-11.6,8-16S561.5,51,557.1,51z M557.1,62.4c-1.9,0-3.4-1.5-3.4-3.4
		s1.5-3.4,3.4-3.4s3.4,1.5,3.4,3.4S559,62.4,557.1,62.4z"/>
	<ellipse class="st10" cx="557.1" cy="78.4" rx="3.1" ry="0.7"/>
	<text transform="matrix(1 0 0 1 574.9144 69.8795)" class="st9 st2 st6">Uzbekistan</text>
</g>
<g id="준국" class="st7">
	<text transform="matrix(1 0 0 1 772.5256 209.5157)" class="st8 st2 st3">AMI 시범사업완료</text>
	<text transform="matrix(1 0 0 1 772.5256 223.9157)" class="st8 st2 st3">광저우 지역</text>
	<path class="st9" d="M754.7,173c-4.4,0-8,3.6-8,8s8,16,8,16s8-11.6,8-16S759.1,173,754.7,173z M754.7,184.4c-1.9,0-3.4-1.5-3.4-3.4
		s1.5-3.4,3.4-3.4s3.4,1.5,3.4,3.4S756.6,184.4,754.7,184.4z"/>
	<ellipse class="st10" cx="754.7" cy="200.4" rx="3.1" ry="0.7"/>
	<text transform="matrix(1 0 0 1 772.5255 191.8796)" class="st9 st2 st6">China</text>
</g>
<g id="베트남" class="st7">
	<text transform="matrix(1 0 0 1 707.5254 237.5157)" class="st8 st2 st3">EVN: AMI 사업 추진중</text>
	<path class="st9" d="M689.7,201c-4.4,0-8,3.6-8,8s8,16,8,16s8-11.6,8-16S694.1,201,689.7,201z M689.7,212.4c-1.9,0-3.4-1.5-3.4-3.4
		s1.5-3.4,3.4-3.4s3.4,1.5,3.4,3.4S691.6,212.4,689.7,212.4z"/>
	<ellipse class="st10" cx="689.7" cy="228.4" rx="3.1" ry="0.7"/>
	<text transform="matrix(1 0 0 1 707.5253 219.8796)" class="st9 st2 st6">Vietnam</text>
</g>
<g id="라오스" class="st7">
	<text transform="matrix(1 0 0 1 517.7798 251.7156)" class="st8 st2 st3">EDL Smart Meter 공급 추진중</text>
	<path class="st9" d="M688.1,215.2c-4.4,0-8,3.6-8,8s8,16,8,16s8-11.6,8-16C696,218.8,692.5,215.2,688.1,215.2z M688.1,226.6
		c-1.9,0-3.4-1.5-3.4-3.4s1.5-3.4,3.4-3.4s3.4,1.5,3.4,3.4S690,226.6,688.1,226.6z"/>
	<ellipse class="st10" cx="688.1" cy="242.6" rx="3.1" ry="0.7"/>
	<text transform="matrix(1 0 0 1 636.7475 234.0795)" class="st9 st2 st6">Laos</text>
</g>
</svg>
